0
SECTION
2
HEADER
9
$ACADVER
1
AC1006
0
ENDSEC
0
SECTION
2
TABLES
0
TABLE
2
LAYER
70
6
0
LAYER
70
0
62
1
6
CONTINUOUS
2
Metal
0
LAYER
70
0
62
2
6
CONTINUOUS
2
Bemassung
0
LAYER
70
0
62
3
6
CONTINUOUS
2
$CONSTRUCTION
0
LAYER
70
0
62
4
6
CONTINUOUS
2
Kommentare
0
LAYER
70
0
62
5
6
CONTINUOUS
2
Metal2
0
ENDTAB
0
ENDSEC
0
SECTION
2
BLOCKS
0
BLOCK
2
Winkel$2
70
0
10
0
20
0
0
POLYLINE
8
0
70
1
40
0
41
0
66
1
0
VERTEX
8
0
10
-0.25
20
0.13
0
VERTEX
8
0
10
-0.25
20
0.25
0
VERTEX
8
0
10
0.25
20
0.25
0
VERTEX
8
0
10
0.25
20
0.13
0
SEQEND
0
POLYLINE
8
0
70
1
40
0
41
0
66
1
0
VERTEX
8
0
10
-0.25
20
-0.25
0
VERTEX
8
0
10
-0.25
20
0.25
0
VERTEX
8
0
10
-0.13
20
0.25
0
VERTEX
8
0
10
-0.13
20
-0.25
0
SEQEND
0
ENDBLK
0
BLOCK
2
Winkel
70
0
10
0
20
0
0
POLYLINE
8
Metal2
70
1
40
0
41
0
66
1
0
VERTEX
8
Metal2
10
-0.25
20
0.13
0
VERTEX
8
Metal2
10
-0.25
20
0.25
0
VERTEX
8
Metal2
10
0.25
20
0.25
0
VERTEX
8
Metal2
10
0.25
20
0.13
0
SEQEND
0
POLYLINE
8
Metal2
70
1
40
0
41
0
66
1
0
VERTEX
8
Metal2
10
-0.25
20
-0.25
0
VERTEX
8
Metal2
10
-0.25
20
0.25
0
VERTEX
8
Metal2
10
-0.13
20
0.25
0
VERTEX
8
Metal2
10
-0.13
20
-0.25
0
SEQEND
0
ENDBLK
0
BLOCK
2
Winkel$1
70
0
10
0
20
0
0
POLYLINE
8
Metal
70
1
40
0
41
0
66
1
0
VERTEX
8
Metal
10
-0.25
20
0.13
0
VERTEX
8
Metal
10
-0.25
20
0.25
0
VERTEX
8
Metal
10
0.25
20
0.25
0
VERTEX
8
Metal
10
0.25
20
0.13
0
SEQEND
0
POLYLINE
8
Metal
70
1
40
0
41
0
66
1
0
VERTEX
8
Metal
10
-0.25
20
-0.25
0
VERTEX
8
Metal
10
-0.25
20
0.25
0
VERTEX
8
Metal
10
-0.13
20
0.25
0
VERTEX
8
Metal
10
-0.13
20
-0.25
0
SEQEND
0
ENDBLK
0
BLOCK
2
Winkel2$1
70
0
10
0
20
0
0
INSERT
8
0
2
Winkel$2
10
-0.5
20
-0.5
41
1
42
1
50
0
0
INSERT
8
0
2
Winkel
10
0.5
20
-0.5
41
1
42
1
50
0
0
ENDBLK
0
BLOCK
2
Winkel2
70
0
10
0
20
0
0
INSERT
8
0
2
Winkel$1
10
-0.5
20
-0.5
41
1
42
1
50
0
0
INSERT
8
0
2
Winkel
10
0.5
20
-0.5
41
1
42
1
50
0
0
ENDBLK
0
ENDSEC
0
SECTION
2
ENTITIES
0
INSERT
8
0
2
Winkel$1
10
-0.5
20
0.5
41
1
42
1
50
0
0
INSERT
8
0
2
Winkel2
10
-0.5
20
3
41
1
42
1
50
0
0
INSERT
8
0
2
Winkel2$1
10
2
20
3
41
1
42
1
50
0
0
INSERT
8
0
2
Winkel$1
10
0.5
20
0.5
41
1
42
1
50
90
0
INSERT
8
0
2
Winkel$1
10
1.5
20
0.5
41
0.5
42
-0.5
50
270
0
INSERT
8
0
2
Winkel$1
10
2.5
20
0.5
41
1.5
42
-1.5
50
0
0
INSERT
8
0
2
Winkel$1
10
4
20
0.5
41
1.5
42
-1.5
50
0
0
INSERT
8
0
2
Winkel$1
10
5
20
0.5
41
1.5
42
-1.5
50
0
0
INSERT
8
0
2
Winkel$1
10
6
20
0.5
41
1.5
42
-1.5
50
0
0
INSERT
8
0
2
Winkel$1
10
4
20
2
41
1.5
42
-1.5
50
0
0
INSERT
8
0
2
Winkel$1
10
5
20
2
41
1.5
42
-1.5
50
0
0
INSERT
8
0
2
Winkel$1
10
6
20
2
41
1.5
42
-1.5
50
0
0
INSERT
8
0
2
Winkel$1
10
10
20
0.5
41
1
42
1
50
90
0
INSERT
8
0
2
Winkel$1
10
10
20
1.5
41
1
42
1
50
90
0
INSERT
8
0
2
Winkel$1
10
10
20
2.5
41
1
42
1
50
90
0
INSERT
8
0
2
Winkel$1
10
8.5
20
0.5
41
1
42
1
50
90
0
INSERT
8
0
2
Winkel$1
10
8.5
20
1.5
41
1
42
1
50
90
0
INSERT
8
0
2
Winkel$1
10
8.5
20
2.5
41
1
42
1
50
90
0
POLYLINE
8
Metal
70
1
40
0
41
0
66
1
0
VERTEX
8
Metal
10
-0.24
20
-0.301
0
VERTEX
8
Metal
10
-0.24
20
0.301
0
VERTEX
8
Metal
10
-0.12
20
0.301
0
VERTEX
8
Metal
10
-0.12
20
-0.301
0
SEQEND
0
ENDSEC
0
EOF
