999
dxflib 3.26.4.0
  0
SECTION
  2
HEADER
  9
$ACADVER
  1
AC1015
  9
$HANDSEED
  5
FFFF
  9
$ANGBASE
 50
0.0
  9
$ANGDIR
 70
0
  9
$ATTMODE
 70
1
  9
$AUNITS
 70
0
  9
$AUPREC
 70
0
  9
$CECOLOR
 62
178
  9
$CELTSCALE
 40
1.0
  9
$CHAMFERA
 40
0.5
  9
$CHAMFERB
 40
0.5
  9
$CHAMFERC
 40
1.0
  9
$CHAMFERD
 40
0.0
  9
$CMLJUST
 70
0
  9
$CMLSCALE
 40
1.0
  9
$DIMADEC
 70
0
  9
$DIMALT
 70
0
  9
$DIMALTD
 70
2
  9
$DIMALTF
 40
25.3999999999999986
  9
$DIMALTRND
 40
0.0
  9
$DIMALTTD
 70
2
  9
$DIMALTTZ
 70
0
  9
$DIMALTU
 70
2
  9
$DIMALTZ
 70
0
  9
$DIMAPOST
  1

  9
$DIMASZ
 40
2.5
  9
$DIMATFIT
 70
3
  9
$DIMAUNIT
 70
0
  9
$DIMAZIN
 70
3
  9
$DIMBLK
  1
0
  9
$DIMBLK1
  1
0
  9
$DIMBLK2
  1
0
  9
$DIMCEN
 40
0.09
  9
$DIMCLRD
 70
178
  9
$DIMCLRE
 70
178
  9
$DIMDEC
 70
4
  9
$DIMDLE
 40
0.0
  9
$DIMDLI
 40
0.38
  9
$DIMDSEP
 70
46
  9
$DIMEXE
 40
1.25
  9
$DIMEXO
 40
0.625
  9
$DIMFRAC
 70
0
  9
$DIMGAP
 40
0.625
  9
$DIMJUST
 70
0
  9
$DIMLDRBLK
  1

  9
$DIMLFAC
 40
1.0
  9
$DIMLIM
 70
0
  9
$DIMLUNIT
 70
2
  9
$DIMLWD
 70
-2
  9
$DIMLWE
 70
-2
  9
$DIMPOST
  1

  9
$DIMRND
 40
0.0
  9
$DIMSAH
 70
0
  9
$DIMSCALE
 40
1.0
  9
$DIMSD1
 70
0
  9
$DIMSD2
 70
0
  9
$DIMSE1
 70
0
  9
$DIMSE2
 70
0
  9
$DIMSOXD
 70
0
  9
$DIMTAD
 70
0
  9
$DIMTDEC
 70
4
  9
$DIMTFAC
 40
1.0
  9
$DIMTIH
 70
1
  9
$DIMTIX
 70
0
  9
$DIMTM
 40
0.0
  9
$DIMTOFL
 70
0
  9
$DIMTOH
 70
1
  9
$DIMTOL
 70
0
  9
$DIMTOLJ
 70
1
  9
$DIMTP
 40
0.0
  9
$DIMTSZ
 40
0.0
  9
$DIMTVP
 40
0.0
  9
$DIMTXSTY
  7
Standard
  9
$DIMTXT
 40
2.5
  9
$DIMTZIN
 70
0
  9
$DIMUPT
 70
0
  9
$DIMZIN
 70
8
  9
$DISPSILH
 70
0
  9
$DWGCODEPAGE
  3
ANSI_1252
  9
$ELEVATION
 40
0.0
  9
$EXTMAX
 10
-100000000000000000000.0
 20
-100000000000000000000.0
 30
-100000000000000000000.0
  9
$EXTMIN
 10
100000000000000000000.0
 20
100000000000000000000.0
 30
100000000000000000000.0
  9
$FILLETRAD
 40
0.5
  9
$FILLMODE
 70
1
  9
$INSBASE
 10
0.0
 20
0.0
 30
0.0
  9
$INSUNITS
 70
0
  9
$LIMCHECK
 70
0
  9
$LIMMAX
 10
12.0
 20
9.0
  9
$LIMMIN
 10
0.0
 20
0.0
  9
$LTSCALE
 40
1.0
  9
$LUNITS
 70
2
  9
$LUPREC
 70
4
  9
$MAXACTVP
 70
64
  9
$MEASUREMENT
 70
1
  9
$MIRRTEXT
 70
1
  9
$ORTHOMODE
 70
0
  9
$PDMODE
 70
0
  9
$PDSIZE
 40
0.0
  9
$PELEVATION
 40
0.0
  9
$PEXTMAX
 10
-100000000000000000000.0
 20
-100000000000000000000.0
 30
-100000000000000000000.0
  9
$PEXTMIN
 10
100000000000000000000.0
 20
100000000000000000000.0
 30
100000000000000000000.0
  9
$PINSBASE
 10
0.0
 20
0.0
 30
0.0
  9
$PLIMCHECK
 70
0
  9
$PLIMMAX
 10
12.0
 20
9.0
  9
$PLIMMIN
 10
0.0
 20
0.0
  9
$PLINEGEN
 70
0
  9
$PLINEWID
 40
0.0
  9
$PROXYGRAPHICS
 70
1
  9
$PSLTSCALE
 70
1
  9
$PUCSNAME
  2

  9
$PUCSORG
 10
0.0
 20
0.0
 30
0.0
  9
$PUCSXDIR
 10
1.0
 20
0.0
 30
0.0
  9
$PUCSYDIR
 10
0.0
 20
1.0
 30
0.0
  9
$QTEXTMODE
 70
0
  9
$REGENMODE
 70
1
  9
$SHADEDGE
 70
3
  9
$SHADEDIF
 70
70
  9
$SKETCHINC
 40
0.1
  9
$SKPOLY
 70
0
  9
$SPLFRAME
 70
0
  9
$SPLINESEGS
 70
8
  9
$SPLINETYPE
 70
6
  9
$SURFTAB1
 70
6
  9
$SURFTAB2
 70
6
  9
$SURFTYPE
 70
6
  9
$SURFU
 70
6
  9
$SURFV
 70
6
  9
$TEXTSIZE
 40
0.2
  9
$TEXTSTYLE
  7
Standard
  9
$THICKNESS
 40
0.0
  9
$TILEMODE
 70
1
  9
$TRACEWID
 40
0.05
  9
$TREEDEPTH
 70
3020
  9
$UCSNAME
  2

  9
$UCSORG
 10
0.0
 20
0.0
 30
0.0
  9
$UCSXDIR
 10
1.0
 20
0.0
 30
0.0
  9
$UCSYDIR
 10
0.0
 20
1.0
 30
0.0
  9
$UNITMODE
 70
0
  9
$USERI1
 70
0
  9
$USERI2
 70
0
  9
$USERI3
 70
0
  9
$USERI4
 70
0
  9
$USERI5
 70
0
  9
$USERR1
 40
0.0
  9
$USERR2
 40
0.0
  9
$USERR3
 40
0.0
  9
$USERR4
 40
0.0
  9
$USERR5
 40
0.0
  9
$USRTIMER
 70
1
  9
$VISRETAIN
 70
1
  0
ENDSEC
  0
SECTION
  2
TABLES
  0
TABLE
  2
VPORT
  5
8
100
AcDbSymbolTable
 70
1
  0
VPORT
  5
30
100
AcDbSymbolTableRecord
100
AcDbViewportTableRecord
  2
*Active
 70
0
 10
0.0
 20
0.0
 11
1.0
 21
1.0
 12
286.3055555555554861
 22
148.5
 13
0.0
 23
0.0
 14
10.0
 24
10.0
 15
10.0
 25
10.0
 16
0.0
 26
0.0
 36
1.0
 17
0.0
 27
0.0
 37
0.0
 40
297.0
 41
1.92798353909465
 42
50.0
 43
0.0
 44
0.0
 50
0.0
 51
0.0
 71
0
 72
100
 73
1
 74
3
 75
1
 76
1
 77
0
 78
0
281
0
 65
1
110
0.0
120
0.0
130
0.0
111
1.0
121
0.0
131
0.0
112
0.0
122
1.0
132
0.0
 79
0
146
0.0
  0
ENDTAB
  0
TABLE
  2
LTYPE
  5
5
100
AcDbSymbolTable
 70
41
  0
LTYPE
  5
16
100
AcDbSymbolTableRecord
100
AcDbLinetypeTableRecord
  2
Continuous
 70
0
  3
Solid line
 72
65
 73
0
 40
0.0
  0
LTYPE
  5
31
100
AcDbSymbolTableRecord
100
AcDbLinetypeTableRecord
  2
PHANTOM
 70
0
  3
Phantom ______  __  __  ______  __  __  ______ 
 72
65
 73
6
 40
63.5000000000000071
 49
31.75
 74
0
 49
-6.3499999999999996
 74
0
 49
6.3499999999999996
 74
0
 49
-6.3499999999999996
 74
0
 49
6.3499999999999996
 74
0
 49
-6.3499999999999996
 74
0
  0
LTYPE
  5
32
100
AcDbSymbolTableRecord
100
AcDbLinetypeTableRecord
  2
DASHDOT
 70
0
  3

 72
65
 73
4
 40
24.0
 49
12.0
 74
0
 49
-5.9500000000000002
 74
0
 49
0.1
 74
0
 49
-5.9500000000000002
 74
0
  0
LTYPE
  5
33
100
AcDbSymbolTableRecord
100
AcDbLinetypeTableRecord
  2
ACAD_ISO02W100
 70
0
  3
ISO dash __ __ __ __ __ __ __ __ __ __ __ __ __
 72
65
 73
2
 40
15.0
 49
12.0
 74
0
 49
-3.0
 74
0
  0
LTYPE
  5
34
100
AcDbSymbolTableRecord
100
AcDbLinetypeTableRecord
  2
PHANTOM2
 70
0
  3
Phantom (.5x) ___ _ _ ___ _ _ ___ _ _ ___ _ _
 72
65
 73
6
 40
31.7500000000000036
 49
15.875
 74
0
 49
-3.1749999999999998
 74
0
 49
3.1749999999999998
 74
0
 49
-3.1749999999999998
 74
0
 49
3.1749999999999998
 74
0
 49
-3.1749999999999998
 74
0
  0
LTYPE
  5
35
100
AcDbSymbolTableRecord
100
AcDbLinetypeTableRecord
  2
DASHEDX2
 70
0
  3

 72
65
 73
2
 40
36.0
 49
24.0
 74
0
 49
-12.0
 74
0
  0
LTYPE
  5
36
100
AcDbSymbolTableRecord
100
AcDbLinetypeTableRecord
  2
ACAD_ISO11W100
 70
0
  3
ISO double-dash dot __ __ . __ __ . __ __ . __ _
 72
65
 73
6
 40
33.0
 49
12.0
 74
0
 49
-3.0
 74
0
 49
12.0
 74
0
 49
-3.0
 74
0
 49
0.0
 74
0
 49
-3.0
 74
0
  0
LTYPE
  5
37
100
AcDbSymbolTableRecord
100
AcDbLinetypeTableRecord
  2
DOTX2
 70
0
  3

 72
65
 73
2
 40
12.5
 49
0.1
 74
0
 49
-12.4000000000000004
 74
0
  0
LTYPE
  5
38
100
AcDbSymbolTableRecord
100
AcDbLinetypeTableRecord
  2
DASHED
 70
0
  3

 72
65
 73
2
 40
18.0
 49
12.0
 74
0
 49
-6.0
 74
0
  0
LTYPE
  5
39
100
AcDbSymbolTableRecord
100
AcDbLinetypeTableRecord
  2
ACAD_ISO10W100
 70
0
  3
ISO dash dot __ . __ . __ . __ . __ . __ . __ . 
 72
65
 73
4
 40
18.0
 49
12.0
 74
0
 49
-3.0
 74
0
 49
0.0
 74
0
 49
-3.0
 74
0
  0
LTYPE
  5
3A
100
AcDbSymbolTableRecord
100
AcDbLinetypeTableRecord
  2
BORDER2
 70
0
  3

 72
65
 73
6
 40
21.0
 49
6.0
 74
0
 49
-3.0
 74
0
 49
6.0
 74
0
 49
-2.9500000000000002
 74
0
 49
0.1
 74
0
 49
-2.9500000000000002
 74
0
  0
LTYPE
  5
3B
100
AcDbSymbolTableRecord
100
AcDbLinetypeTableRecord
  2
BORDER
 70
0
  3

 72
65
 73
6
 40
42.0000000000000071
 49
12.0
 74
0
 49
-6.0
 74
0
 49
12.0
 74
0
 49
-5.9500000000000002
 74
0
 49
0.1
 74
0
 49
-5.9500000000000002
 74
0
  0
LTYPE
  5
15
100
AcDbSymbolTableRecord
100
AcDbLinetypeTableRecord
  2
ByLayer
 70
0
  3

 72
65
 73
0
 40
0.0
  0
LTYPE
  5
3C
100
AcDbSymbolTableRecord
100
AcDbLinetypeTableRecord
  2
CENTER2
 70
0
  3

 72
65
 73
4
 40
25.0
 49
16.0
 74
0
 49
-3.0
 74
0
 49
3.0
 74
0
 49
-3.0
 74
0
  0
LTYPE
  5
3D
100
AcDbSymbolTableRecord
100
AcDbLinetypeTableRecord
  2
HIDDENX2
 70
0
  3
Hidden (2x) ____ ____ ____ ____ ____ ____ ____ 
 72
65
 73
2
 40
19.0499999999999972
 49
12.6999999999999993
 74
0
 49
-6.3499999999999996
 74
0
  0
LTYPE
  5
3E
100
AcDbSymbolTableRecord
100
AcDbLinetypeTableRecord
  2
BORDERX2
 70
0
  3

 72
65
 73
6
 40
84.0
 49
24.0
 74
0
 49
-12.0
 74
0
 49
24.0
 74
0
 49
-11.9499999999999993
 74
0
 49
0.1
 74
0
 49
-11.9499999999999993
 74
0
  0
LTYPE
  5
3F
100
AcDbSymbolTableRecord
100
AcDbLinetypeTableRecord
  2
ACAD_ISO03W100
 70
0
  3
ISO dash space __    __    __    __    __    __
 72
65
 73
2
 40
30.0
 49
12.0
 74
0
 49
-18.0
 74
0
  0
LTYPE
  5
40
100
AcDbSymbolTableRecord
100
AcDbLinetypeTableRecord
  2
CENTER
 70
0
  3

 72
65
 73
4
 40
50.0
 49
32.0
 74
0
 49
-6.0
 74
0
 49
6.0
 74
0
 49
-6.0
 74
0
  0
LTYPE
  5
41
100
AcDbSymbolTableRecord
100
AcDbLinetypeTableRecord
  2
ACAD_ISO14W100
 70
0
  3
ISO dash triple-dot __ . . . __ . . . __ . . . _
 72
65
 73
8
 40
24.0
 49
12.0
 74
0
 49
-3.0
 74
0
 49
0.0
 74
0
 49
-3.0
 74
0
 49
0.0
 74
0
 49
-3.0
 74
0
 49
0.0
 74
0
 49
-3.0
 74
0
  0
LTYPE
  5
42
100
AcDbSymbolTableRecord
100
AcDbLinetypeTableRecord
  2
ACAD_ISO12W100
 70
0
  3
ISO dash double-dot __ . . __ . . __ . . __ . . 
 72
65
 73
6
 40
21.0
 49
12.0
 74
0
 49
-3.0
 74
0
 49
0.0
 74
0
 49
-3.0
 74
0
 49
0.0
 74
0
 49
-3.0
 74
0
  0
LTYPE
  5
43
100
AcDbSymbolTableRecord
100
AcDbLinetypeTableRecord
  2
DOT
 70
0
  3

 72
65
 73
2
 40
6.2999999999999998
 49
0.1
 74
0
 49
-6.2000000000000002
 74
0
  0
LTYPE
  5
14
100
AcDbSymbolTableRecord
100
AcDbLinetypeTableRecord
  2
ByBlock
 70
0
  3

 72
65
 73
0
 40
0.0
  0
LTYPE
  5
44
100
AcDbSymbolTableRecord
100
AcDbLinetypeTableRecord
  2
HIDDEN
 70
0
  3
Hidden __ __ __ __ __ __ __ __ __ __ __ __ __ __
 72
65
 73
2
 40
9.5249999999999986
 49
6.3499999999999996
 74
0
 49
-3.1749999999999998
 74
0
  0
LTYPE
  5
45
100
AcDbSymbolTableRecord
100
AcDbLinetypeTableRecord
  2
ACAD_ISO05W100
 70
0
  3
ISO long-dash double-dot ____ .. ____ .. ____ . 
 72
65
 73
6
 40
33.0
 49
24.0
 74
0
 49
-3.0
 74
0
 49
0.0
 74
0
 49
-3.0
 74
0
 49
0.0
 74
0
 49
-3.0
 74
0
  0
LTYPE
  5
46
100
AcDbSymbolTableRecord
100
AcDbLinetypeTableRecord
  2
DASHED2
 70
0
  3

 72
65
 73
2
 40
9.0
 49
6.0
 74
0
 49
-3.0
 74
0
  0
LTYPE
  5
47
100
AcDbSymbolTableRecord
100
AcDbLinetypeTableRecord
  2
CENTERX2
 70
0
  3

 72
65
 73
4
 40
100.0
 49
64.0
 74
0
 49
-12.0
 74
0
 49
12.0
 74
0
 49
-12.0
 74
0
  0
LTYPE
  5
48
100
AcDbSymbolTableRecord
100
AcDbLinetypeTableRecord
  2
DOT2
 70
0
  3

 72
65
 73
2
 40
3.2000000000000002
 49
0.1
 74
0
 49
-3.1000000000000001
 74
0
  0
LTYPE
  5
49
100
AcDbSymbolTableRecord
100
AcDbLinetypeTableRecord
  2
ACAD_ISO04W100
 70
0
  3
ISO long-dash dot ____ . ____ . ____ . ____ . _
 72
65
 73
4
 40
30.0
 49
24.0
 74
0
 49
-3.0
 74
0
 49
0.0
 74
0
 49
-3.0
 74
0
  0
LTYPE
  5
4A
100
AcDbSymbolTableRecord
100
AcDbLinetypeTableRecord
  2
ACAD_ISO07W100
 70
0
  3
ISO dot . . . . . . . . . . . . . . . . . . . . 
 72
65
 73
2
 40
3.0
 49
0.0
 74
0
 49
-3.0
 74
0
  0
LTYPE
  5
4B
100
AcDbSymbolTableRecord
100
AcDbLinetypeTableRecord
  2
DIVIDE2
 70
0
  3

 72
65
 73
6
 40
15.0000000000000018
 49
6.0
 74
0
 49
-2.8999999999999999
 74
0
 49
0.15
 74
0
 49
-2.8999999999999999
 74
0
 49
0.15
 74
0
 49
-2.8999999999999999
 74
0
  0
LTYPE
  5
4C
100
AcDbSymbolTableRecord
100
AcDbLinetypeTableRecord
  2
HIDDEN2
 70
0
  3
Hidden (.5x) _ _ _ _ _ _ _ _ _ _ _ _ _ _ _ _ _ 
 72
65
 73
2
 40
4.7624999999999993
 49
3.1749999999999998
 74
0
 49
-1.5874999999999999
 74
0
  0
LTYPE
  5
4D
100
AcDbSymbolTableRecord
100
AcDbLinetypeTableRecord
  2
ACAD_ISO08W100
 70
0
  3
ISO long-dash short-dash ____ __ ____ __ ____ _
 72
65
 73
4
 40
36.0
 49
24.0
 74
0
 49
-3.0
 74
0
 49
6.0
 74
0
 49
-3.0
 74
0
  0
LTYPE
  5
4E
100
AcDbSymbolTableRecord
100
AcDbLinetypeTableRecord
  2
ACAD_ISO09W100
 70
0
  3
ISO long-dash double-short-dash ____ __ __ ____
 72
65
 73
6
 40
45.0
 49
24.0
 74
0
 49
-3.0
 74
0
 49
6.0
 74
0
 49
-3.0
 74
0
 49
6.0
 74
0
 49
-3.0
 74
0
  0
LTYPE
  5
4F
100
AcDbSymbolTableRecord
100
AcDbLinetypeTableRecord
  2
ACAD_ISO15W100
 70
0
  3
ISO double-dash triple-dot __ __ . . . __ __ . .
 72
65
 73
10
 40
39.0
 49
12.0
 74
0
 49
-3.0
 74
0
 49
12.0
 74
0
 49
-3.0
 74
0
 49
0.0
 74
0
 49
-3.0
 74
0
 49
0.0
 74
0
 49
-3.0
 74
0
 49
0.0
 74
0
 49
-3.0
 74
0
  0
LTYPE
  5
50
100
AcDbSymbolTableRecord
100
AcDbLinetypeTableRecord
  2
ACAD_ISO13W100
 70
0
  3
ISO double-dash double-dot __ __ . . __ __ . . _
 72
65
 73
8
 40
36.0
 49
12.0
 74
0
 49
-3.0
 74
0
 49
12.0
 74
0
 49
-3.0
 74
0
 49
0.0
 74
0
 49
-3.0
 74
0
 49
0.0
 74
0
 49
-3.0
 74
0
  0
LTYPE
  5
51
100
AcDbSymbolTableRecord
100
AcDbLinetypeTableRecord
  2
DASHDOTX2
 70
0
  3

 72
65
 73
4
 40
48.0
 49
24.0
 74
0
 49
-11.9499999999999993
 74
0
 49
0.1
 74
0
 49
-11.9499999999999993
 74
0
  0
LTYPE
  5
52
100
AcDbSymbolTableRecord
100
AcDbLinetypeTableRecord
  2
DASHDOT2
 70
0
  3

 72
65
 73
4
 40
12.0
 49
6.0
 74
0
 49
-2.9500000000000002
 74
0
 49
0.1
 74
0
 49
-2.9500000000000002
 74
0
  0
LTYPE
  5
53
100
AcDbSymbolTableRecord
100
AcDbLinetypeTableRecord
  2
PHANTOMX2
 70
0
  3
Phantom (2x) ____________    ____    ____   _
 72
65
 73
6
 40
127.0000000000000142
 49
63.5
 74
0
 49
-12.6999999999999993
 74
0
 49
12.6999999999999993
 74
0
 49
-12.6999999999999993
 74
0
 49
12.6999999999999993
 74
0
 49
-12.6999999999999993
 74
0
  0
LTYPE
  5
54
100
AcDbSymbolTableRecord
100
AcDbLinetypeTableRecord
  2
ACAD_ISO06W100
 70
0
  3
ISO long-dash triple-dot ____ ... ____ ... ____
 72
65
 73
8
 40
36.0
 49
24.0
 74
0
 49
-3.0
 74
0
 49
0.0
 74
0
 49
-3.0
 74
0
 49
0.0
 74
0
 49
-3.0
 74
0
 49
0.0
 74
0
 49
-3.0
 74
0
  0
LTYPE
  5
55
100
AcDbSymbolTableRecord
100
AcDbLinetypeTableRecord
  2
DIVIDEX2
 70
0
  3

 72
65
 73
6
 40
59.9999999999999929
 49
24.0
 74
0
 49
-11.9000000000000004
 74
0
 49
0.15
 74
0
 49
-11.9000000000000004
 74
0
 49
0.15
 74
0
 49
-11.9000000000000004
 74
0
  0
LTYPE
  5
56
100
AcDbSymbolTableRecord
100
AcDbLinetypeTableRecord
  2
DIVIDE
 70
0
  3

 72
65
 73
6
 40
29.9999999999999929
 49
12.0
 74
0
 49
-5.9000000000000004
 74
0
 49
0.15
 74
0
 49
-5.9000000000000004
 74
0
 49
0.15
 74
0
 49
-5.9000000000000004
 74
0
  0
ENDTAB
  0
TABLE
  2
LAYER
  5
2
100
AcDbSymbolTable
 70
4
  0
LAYER
  5
57
100
AcDbSymbolTableRecord
100
AcDbLayerTableRecord
  2
entities
 70
0
 62
7
420
16777215
  6
Continuous
370
13
390
F
  0
LAYER
  5
58
100
AcDbSymbolTableRecord
100
AcDbLayerTableRecord
  2
boxes
 70
0
 62
7
420
16777215
  6
Continuous
370
-3
390
F
  0
LAYER
  5
59
100
AcDbSymbolTableRecord
100
AcDbLayerTableRecord
  2
Defpoints
 70
0
 62
7
420
16777215
  6
Continuous
290
0
370
-3
390
F
  0
LAYER
  5
10
100
AcDbSymbolTableRecord
100
AcDbLayerTableRecord
  2
0
 70
0
 62
7
420
16777215
  6
Continuous
370
9
390
F
  0
ENDTAB
  0
TABLE
  2
STYLE
  5
3
100
AcDbSymbolTable
 70
4
  0
STYLE
  5
5A
100
AcDbSymbolTableRecord
100
AcDbTextStyleTableRecord
  2
Standard
 70
0
 40
0.0
 41
1.0
 50
0.0
 71
0
 42
2.5
  3

  4

1001
ACAD
1000
txt
1071
0
  0
STYLE
  5
5B
100
AcDbSymbolTableRecord
100
AcDbTextStyleTableRecord
  2
textstyle0
 70
0
 40
0.0
 41
1.0
 50
0.0
 71
0
 42
10.0
  3

  4

1001
ACAD
1000
Standard
1071
0
  0
STYLE
  5
5C
100
AcDbSymbolTableRecord
100
AcDbTextStyleTableRecord
  2
textstyle1
 70
0
 40
0.0
 41
1.0
 50
0.0
 71
0
 42
10.0
  3

  4

1001
ACAD
1000
Standard
1071
0
  0
STYLE
  5
5D
100
AcDbSymbolTableRecord
100
AcDbTextStyleTableRecord
  2
textstyle2
 70
0
 40
0.0
 41
1.0
 50
0.0
 71
0
 42
5.0
  3

  4

1001
ACAD
1000
Arial
1071
0
  0
ENDTAB
  0
TABLE
  2
VIEW
  5
6
100
AcDbSymbolTable
 70
0
  0
ENDTAB
  0
TABLE
  2
UCS
  5
7
100
AcDbSymbolTable
 70
0
  0
ENDTAB
  0
TABLE
  2
APPID
  5
9
100
AcDbSymbolTable
 70
1
  0
APPID
  5
12
100
AcDbSymbolTableRecord
100
AcDbRegAppTableRecord
  2
ACAD
 70
0
  0
APPID
  5
5E
100
AcDbSymbolTableRecord
100
AcDbRegAppTableRecord
  2
QCAD
 70
0
  0
ENDTAB
  0
TABLE
  2
DIMSTYLE
  5
A
100
AcDbSymbolTable
 70
1
100
AcDbDimStyleTable
 71
0
  0
DIMSTYLE
105
27
100
AcDbSymbolTableRecord
100
AcDbDimStyleTableRecord
  2
Standard
 41
2.5
 42
0.625
 43
3.75
 44
1.25
 70
0
 73
1
 74
0
 77
0
 78
8
140
2.5
141
2.5
143
0.03937007874016
147
0.625
171
3
172
1
271
2
272
2
274
3
278
44
283
0
284
8
340
5A
  0
ENDTAB
  0
TABLE
  2
BLOCK_RECORD
  5
1
100
AcDbSymbolTable
 70
1
  0
BLOCK_RECORD
  5
1F
100
AcDbSymbolTableRecord
100
AcDbBlockTableRecord
  2
*Model_Space
340
22
  0
BLOCK_RECORD
  5
1B
100
AcDbSymbolTableRecord
100
AcDbBlockTableRecord
  2
*Paper_Space
340
1E
  0
BLOCK_RECORD
  5
23
100
AcDbSymbolTableRecord
100
AcDbBlockTableRecord
  2
*Paper_Space0
340
26
  0
BLOCK_RECORD
  5
5F
100
AcDbSymbolTableRecord
100
AcDbBlockTableRecord
  2
circle
340
0
  0
BLOCK_RECORD
  5
60
100
AcDbSymbolTableRecord
100
AcDbBlockTableRecord
  2
dim_diametric_arc
340
0
  0
BLOCK_RECORD
  5
61
100
AcDbSymbolTableRecord
100
AcDbBlockTableRecord
  2
dim_radial_arc
340
0
  0
BLOCK_RECORD
  5
62
100
AcDbSymbolTableRecord
100
AcDbBlockTableRecord
  2
block_insert
340
0
  0
BLOCK_RECORD
  5
63
100
AcDbSymbolTableRecord
100
AcDbBlockTableRecord
  2
dim_ordinate
340
0
  0
BLOCK_RECORD
  5
64
100
AcDbSymbolTableRecord
100
AcDbBlockTableRecord
  2
spline_fp_closed
340
0
  0
BLOCK_RECORD
  5
65
100
AcDbSymbolTableRecord
100
AcDbBlockTableRecord
  2
arc
340
0
  0
BLOCK_RECORD
  5
66
100
AcDbSymbolTableRecord
100
AcDbBlockTableRecord
  2
dim_horizontal
340
0
  0
BLOCK_RECORD
  5
67
100
AcDbSymbolTableRecord
100
AcDbBlockTableRecord
  2
ellispe_arc
340
0
  0
BLOCK_RECORD
  5
68
100
AcDbSymbolTableRecord
100
AcDbBlockTableRecord
  2
hatch_pattern
340
0
  0
BLOCK_RECORD
  5
69
100
AcDbSymbolTableRecord
100
AcDbBlockTableRecord
  2
block02
340
0
  0
BLOCK_RECORD
  5
6A
100
AcDbSymbolTableRecord
100
AcDbBlockTableRecord
  2
spline_cp_2deg_closed
340
0
  0
BLOCK_RECORD
  5
6B
100
AcDbSymbolTableRecord
100
AcDbBlockTableRecord
  2
dim_leader
340
0
  0
BLOCK_RECORD
  5
6C
100
AcDbSymbolTableRecord
100
AcDbBlockTableRecord
  2
ellipse
340
0
  0
BLOCK_RECORD
  5
6D
100
AcDbSymbolTableRecord
100
AcDbBlockTableRecord
  2
spline_fp
340
0
  0
BLOCK_RECORD
  5
6E
100
AcDbSymbolTableRecord
100
AcDbBlockTableRecord
  2
dim_rotated
340
0
  0
BLOCK_RECORD
  5
6F
100
AcDbSymbolTableRecord
100
AcDbBlockTableRecord
  2
spline_cp_3deg
340
0
  0
BLOCK_RECORD
  5
70
100
AcDbSymbolTableRecord
100
AcDbBlockTableRecord
  2
text
340
0
  0
BLOCK_RECORD
  5
71
100
AcDbSymbolTableRecord
100
AcDbBlockTableRecord
  2
spline_cp_2deg
340
0
  0
BLOCK_RECORD
  5
72
100
AcDbSymbolTableRecord
100
AcDbBlockTableRecord
  2
line
340
0
  0
BLOCK_RECORD
  5
73
100
AcDbSymbolTableRecord
100
AcDbBlockTableRecord
  2
polyline
340
0
  0
BLOCK_RECORD
  5
74
100
AcDbSymbolTableRecord
100
AcDbBlockTableRecord
  2
dim_diametric_circle
340
0
  0
BLOCK_RECORD
  5
75
100
AcDbSymbolTableRecord
100
AcDbBlockTableRecord
  2
dim_radial_circle
340
0
  0
BLOCK_RECORD
  5
76
100
AcDbSymbolTableRecord
100
AcDbBlockTableRecord
  2
dim_angular_line
340
0
  0
BLOCK_RECORD
  5
77
100
AcDbSymbolTableRecord
100
AcDbBlockTableRecord
  2
spline_cp_3deg_closed
340
0
  0
BLOCK_RECORD
  5
78
100
AcDbSymbolTableRecord
100
AcDbBlockTableRecord
  2
points
340
0
  0
BLOCK_RECORD
  5
79
100
AcDbSymbolTableRecord
100
AcDbBlockTableRecord
  2
block01
340
0
  0
BLOCK_RECORD
  5
7A
100
AcDbSymbolTableRecord
100
AcDbBlockTableRecord
  2
dim_aligned
340
0
  0
BLOCK_RECORD
  5
7B
100
AcDbSymbolTableRecord
100
AcDbBlockTableRecord
  2
hatch_solid
340
0
  0
BLOCK_RECORD
  5
7C
100
AcDbSymbolTableRecord
100
AcDbBlockTableRecord
  2
dim_vertical
340
0
  0
BLOCK_RECORD
  5
7D
100
AcDbSymbolTableRecord
100
AcDbBlockTableRecord
  2
dim_angular_arc
340
0
  0
ENDTAB
  0
ENDSEC
  0
SECTION
  2
BLOCKS
  0
BLOCK
  5
20
100
AcDbEntity
  8
0
100
AcDbBlockBegin
  2
*Model_Space
 70
0
 10
0.0
 20
0.0
 30
0.0
  3
*Model_Space
  1

  0
ENDBLK
  5
21
100
AcDbEntity
  8
0
100
AcDbBlockEnd
  0
BLOCK
  5
1C
100
AcDbEntity
 67
1
  8
0
100
AcDbBlockBegin
  2
*Paper_Space
 70
0
 10
0.0
 20
0.0
 30
0.0
  3
*Paper_Space
  1

  0
ENDBLK
  5
1D
100
AcDbEntity
 67
1
  8
0
100
AcDbBlockEnd
  0
BLOCK
  5
24
100
AcDbEntity
  8
0
100
AcDbBlockBegin
  2
*Paper_Space0
 70
0
 10
0.0
 20
0.0
 30
0.0
  3
*Paper_Space0
  1

  0
ENDBLK
  5
25
100
AcDbEntity
  8
0
100
AcDbBlockEnd
  0
BLOCK
  5
7E
100
AcDbEntity
  8
0
100
AcDbBlockBegin
  2
circle
 70
0
 10
0.0
 20
0.0
 30
0.0
  3
circle
  1

  0
CIRCLE
  5
7F
100
AcDbEntity
  8
0
 62
256
370
-1
 48
1.0
  6
ByLayer
100
AcDbCircle
 10
50.0
 20
50.0
 30
0.0
 40
40.0
  0
ENDBLK
  5
80
100
AcDbEntity
  8
0
100
AcDbBlockEnd
  0
BLOCK
  5
81
100
AcDbEntity
  8
0
100
AcDbBlockBegin
  2
dim_diametric_arc
 70
0
 10
0.0
 20
0.0
 30
0.0
  3
dim_diametric_arc
  1

  0
ARC
  5
82
100
AcDbEntity
  8
0
 62
256
370
-1
 48
1.0
  6
ByLayer
100
AcDbCircle
 10
50.0
 20
50.0
 30
0.0
 40
40.0
100
AcDbArc
 50
0.0
 51
345.9637565320734893
  0
ARC
  5
83
100
AcDbEntity
  8
0
 62
256
370
-1
 48
1.0
  6
ByLayer
100
AcDbCircle
 10
50.0
 20
50.0
 30
0.0
 40
30.0
100
AcDbArc
 50
0.0
 51
270.0
  0
ARC
  5
84
100
AcDbEntity
  8
0
 62
256
370
-1
 48
1.0
  6
ByLayer
100
AcDbCircle
 10
50.0
 20
50.0
 30
0.0
 40
20.0
100
AcDbArc
 50
0.0
 51
180.0
  0
ARC
  5
85
100
AcDbEntity
  8
0
 62
256
370
-1
 48
1.0
  6
ByLayer
100
AcDbCircle
 10
50.0
 20
50.0
 30
0.0
 40
10.0
100
AcDbArc
 50
0.0
 51
90.0
  0
DIMENSION
  5
86
100
AcDbEntity
  8
0
 62
256
370
-1
 48
1.0
  6
ByLayer
100
AcDbDimension
 10
88.8057000058132644
 20
40.2985749985466413
 30
0.0
 11
80.0
 21
40.0000000000000071
 31
0.0
 70
131
 71
8
 72
1
 74
0
 75
0
 41
1.0
 42
0.0
  1

  3
Standard
100
AcDbDiametricDimension
 15
11.1942999941867303
 25
59.7014250014533729
 35
0.0
 40
0.0
1001
ACAD
1000
DSTYLE
1002
{
1070
279
1070
2
1070
144
1040
1.0
1070
40
1040
1.0
1002
}
  0
DIMENSION
  5
87
100
AcDbEntity
  8
0
 62
256
370
-1
 48
1.0
  6
ByLayer
100
AcDbDimension
 10
36.2408016867936027
 20
23.3413342085944215
 30
0.0
 11
37.1658127719297795
 21
32.051729684210521
 31
0.0
 70
131
 71
8
 72
1
 74
0
 75
0
 41
1.0
 42
0.0
  1
\U+2300<>
  3
Standard
100
AcDbDiametricDimension
 15
63.7591983132064115
 25
76.6586657914055678
 35
0.0
 40
0.0
1001
ACAD
1000
DSTYLE
1002
{
1070
279
1070
2
1070
144
1040
1.0
1070
40
1040
1.0
1002
}
  0
DIMENSION
  5
88
100
AcDbEntity
  8
0
 62
256
370
-1
 48
1.0
  6
ByLayer
100
AcDbDimension
 10
33.7599153114531703
 20
61.6730308535884078
 30
0.0
 11
40.0
 21
60.0
 31
0.0
 70
131
 71
8
 72
1
 74
0
 75
0
 41
1.0
 42
0.0
  1
text
  3
Standard
100
AcDbDiametricDimension
 15
66.2400846885468297
 25
38.3269691464116207
 35
0.0
 40
0.0
1001
ACAD
1000
DSTYLE
1002
{
1070
279
1070
2
1070
144
1040
1.0
1070
40
1040
1.0
1002
}
  0
DIMENSION
  5
89
100
AcDbEntity
  8
0
 62
256
370
-1
 48
1.0
  6
ByLayer
100
AcDbDimension
 10
59.3966924725874321
 20
53.4208435473752488
 30
0.0
 11
36.0037075087718819
 21
48.0306770526315603
 31
0.0
 70
131
 71
8
 72
1
 74
0
 75
0
 41
1.0
 42
0.0
  1
\A1;<>\S0.01^ 0.02;
  3
Standard
100
AcDbDiametricDimension
 15
40.6033075274125679
 25
46.5791564526247726
 35
0.0
 40
0.0
1001
ACAD
1000
DSTYLE
1002
{
1070
279
1070
2
1070
144
1040
1.0
1070
40
1040
1.0
1002
}
  0
ENDBLK
  5
8A
100
AcDbEntity
  8
0
100
AcDbBlockEnd
  0
BLOCK
  5
8B
100
AcDbEntity
  8
0
100
AcDbBlockBegin
  2
dim_radial_arc
 70
0
 10
0.0
 20
0.0
 30
0.0
  3
dim_radial_arc
  1

  0
ARC
  5
8C
100
AcDbEntity
  8
0
 62
256
370
-1
 48
1.0
  6
ByLayer
100
AcDbCircle
 10
50.0
 20
50.0
 30
0.0
 40
40.0
100
AcDbArc
 50
90.0
 51
180.0
  0
ARC
  5
8D
100
AcDbEntity
  8
0
 62
256
370
-1
 48
1.0
  6
ByLayer
100
AcDbCircle
 10
90.0
 20
90.0
 30
0.0
 40
40.0
100
AcDbArc
 50
180.0
 51
270.0
  0
ARC
  5
8E
100
AcDbEntity
  8
0
 62
256
370
-1
 48
1.0
  6
ByLayer
100
AcDbCircle
 10
10.0
 20
10.0
 30
0.0
 40
40.0000000000000071
100
AcDbArc
 50
0.0
 51
90.0
  0
ARC
  5
8F
100
AcDbEntity
  8
0
 62
256
370
-1
 48
1.0
  6
ByLayer
100
AcDbCircle
 10
50.0
 20
50.0
 30
0.0
 40
39.9999999999999929
100
AcDbArc
 50
270.0
 51
0.0
  0
DIMENSION
  5
90
100
AcDbEntity
  8
0
 62
256
370
-1
 48
1.0
  6
ByLayer
100
AcDbDimension
 10
50.0
 20
50.0000000000000071
 30
0.0
 11
35.8578643762690561
 21
64.142135623730951
 31
0.0
 70
4
 71
8
 72
1
 74
0
 41
1.0
 42
0.0
  1

  3
Standard
100
AcDbRadialDimension
 15
21.7157287525381086
 25
78.284271247461902
 35
0.0
 40
0.0
1001
ACAD
1000
DSTYLE
1002
{
1070
144
1040
1.0
1070
40
1040
1.0
1002
}
  0
DIMENSION
  5
91
100
AcDbEntity
  8
0
 62
256
370
-1
 48
1.0
  6
ByLayer
100
AcDbDimension
 10
90.0
 20
90.0000000000000142
 30
0.0
 11
71.0263340389897166
 21
83.6754446796632436
 31
0.0
 70
4
 71
8
 72
1
 74
0
 41
1.0
 42
0.0
  1
\U+2300<>
  3
Standard
100
AcDbRadialDimension
 15
52.0526680779794475
 25
77.350889359326473
 35
0.0
 40
0.0
1001
ACAD
1000
DSTYLE
1002
{
1070
144
1040
1.0
1070
40
1040
1.0
1002
}
  0
DIMENSION
  5
92
100
AcDbEntity
  8
0
 62
256
370
-1
 48
1.0
  6
ByLayer
100
AcDbDimension
 10
50.0
 20
50.0000000000000071
 30
0.0
 11
56.8588526647918684
 21
31.2128730210636931
 31
0.0
 70
4
 71
8
 72
1
 74
0
 41
1.0
 42
0.0
  1
text
  3
Standard
100
AcDbRadialDimension
 15
63.717705329583751
 25
12.4257460421273809
 35
0.0
 40
0.0
1001
ACAD
1000
DSTYLE
1002
{
1070
144
1040
1.0
1070
40
1040
1.0
1002
}
  0
DIMENSION
  5
93
100
AcDbEntity
  8
0
 62
256
370
-1
 48
1.0
  6
ByLayer
100
AcDbDimension
 10
10.0
 20
10.0
 30
0.0
 11
18.6074235782577198
 21
28.053040169025639
 31
0.0
 70
4
 71
8
 72
1
 74
0
 41
1.0
 42
0.0
  1
\A1;<>\S0.01^ 0.02;
  3
Standard
100
AcDbRadialDimension
 15
27.2148471565154395
 25
46.106080338051278
 35
0.0
 40
0.0
1001
ACAD
1000
DSTYLE
1002
{
1070
144
1040
1.0
1070
40
1040
1.0
1002
}
  0
ENDBLK
  5
94
100
AcDbEntity
  8
0
100
AcDbBlockEnd
  0
BLOCK
  5
95
100
AcDbEntity
  8
0
100
AcDbBlockBegin
  2
block_insert
 70
0
 10
0.0
 20
0.0
 30
0.0
  3
block_insert
  1

  0
INSERT
  5
96
100
AcDbEntity
  8
0
 62
256
370
-1
 48
1.0
  6
ByLayer
100
AcDbBlockReference
  2
block01
 10
0.0
 20
0.0
 30
0.0
  0
INSERT
  5
97
100
AcDbEntity
  8
0
 62
256
370
-1
 48
1.0
  6
ByLayer
100
AcDbBlockReference
  2
block02
 10
0.0
 20
0.0
 30
0.0
  0
ENDBLK
  5
98
100
AcDbEntity
  8
0
100
AcDbBlockEnd
  0
BLOCK
  5
99
100
AcDbEntity
  8
0
100
AcDbBlockBegin
  2
dim_ordinate
 70
0
 10
0.0
 20
0.0
 30
0.0
  3
dim_ordinate
  1

  0
DIMENSION
  5
9A
100
AcDbEntity
  8
0
 62
256
370
-1
 48
1.0
  6
ByLayer
100
AcDbDimension
 10
0.0
 20
0.0
 30
0.0
 11
31.874989817232823
 21
20.0
 31
0.0
 70
6
 71
8
 72
1
 41
1.0
  1

  3
Standard
100
AcDbOrdinateDimension
 13
10.0
 23
10.0
 33
0.0
 14
30.0
 24
20.0
 34
0.0
  0
DIMENSION
  5
9B
100
AcDbEntity
  8
0
 62
256
370
-1
 48
1.0
  6
ByLayer
100
AcDbDimension
 10
0.0
 20
0.0
 30
0.0
 11
53.4027680389901747
 21
39.9999999999999929
 31
0.0
 70
6
 71
8
 72
1
 41
1.0
  1
\U+2300<>
  3
Standard
100
AcDbOrdinateDimension
 13
10.0
 23
30.0
 33
0.0
 14
50.0
 24
39.9999999999999929
 34
0.0
  0
DIMENSION
  5
9C
100
AcDbEntity
  8
0
 62
256
370
-1
 48
1.0
  6
ByLayer
100
AcDbDimension
 10
0.0
 20
0.0
 30
0.0
 11
73.8194444444444429
 21
60.0
 31
0.0
 70
6
 71
8
 72
1
 41
1.0
  1
text
  3
Standard
100
AcDbOrdinateDimension
 13
9.9999999999999982
 23
50.0
 33
0.0
 14
70.0
 24
60.0
 34
0.0
  0
DIMENSION
  5
9D
100
AcDbEntity
  8
0
 62
256
370
-1
 48
1.0
  6
ByLayer
100
AcDbDimension
 10
0.0
 20
0.0
 30
0.0
 11
83.7360751940457106
 21
80.0000000000000142
 31
0.0
 70
6
 71
8
 72
1
 41
1.0
  1
\A1;<>\S0.01^ 0.02;
  3
Standard
100
AcDbOrdinateDimension
 13
9.9999999999999964
 23
70.0
 33
0.0
 14
80.0
 24
80.0000000000000142
 34
0.0
  0
ENDBLK
  5
9E
100
AcDbEntity
  8
0
100
AcDbBlockEnd
  0
BLOCK
  5
9F
100
AcDbEntity
  8
0
100
AcDbBlockBegin
  2
spline_fp_closed
 70
0
 10
0.0
 20
0.0
 30
0.0
  3
spline_fp_closed
  1

  0
SPLINE
  5
A0
100
AcDbEntity
  8
0
 62
256
370
-1
 48
1.0
  6
ByLayer
100
AcDbSpline
 70
11
 71
3
 72
0
 73
0
 74
6
 11
20.0
 21
20.0
 31
0.0
 11
20.0
 21
80.0
 31
0.0
 11
80.0
 21
80.0
 31
0.0
 11
60.0
 21
50.0
 31
0.0
 11
90.0
 21
20.0
 31
0.0
 11
20.0
 21
20.0
 31
0.0
  0
ENDBLK
  5
A1
100
AcDbEntity
  8
0
100
AcDbBlockEnd
  0
BLOCK
  5
A2
100
AcDbEntity
  8
0
100
AcDbBlockBegin
  2
arc
 70
0
 10
0.0
 20
0.0
 30
0.0
  3
arc
  1

  0
ARC
  5
A3
100
AcDbEntity
  8
0
 62
256
370
-1
 48
1.0
  6
ByLayer
100
AcDbCircle
 10
90.0
 20
10.0
 30
0.0
 40
80.0
100
AcDbArc
 50
90.0
 51
180.0
  0
ENDBLK
  5
A4
100
AcDbEntity
  8
0
100
AcDbBlockEnd
  0
BLOCK
  5
A5
100
AcDbEntity
  8
0
100
AcDbBlockBegin
  2
dim_horizontal
 70
0
 10
0.0
 20
0.0
 30
0.0
  3
dim_horizontal
  1

  0
DIMENSION
  5
A6
100
AcDbEntity
  8
0
 62
256
370
-1
 48
1.0
  6
ByLayer
100
AcDbDimension
 10
90.0
 20
90.0000000000000142
 30
0.0
 11
50.0000000000000071
 21
90.0000000000000142
 31
0.0
 70
0
 71
8
 72
1
 74
0
 75
0
 41
1.0
 42
0.0
  1

  3
Standard
100
AcDbAlignedDimension
 13
10.0000000000000107
 23
80.0
 33
0.0
 14
90.0
 24
79.9999999999999858
 34
0.0
 50
0.0
100
AcDbRotatedDimension
1001
ACAD
1000
DSTYLE
1002
{
1070
144
1040
1.0
1070
40
1040
1.0
1002
}
  0
DIMENSION
  5
A7
100
AcDbEntity
  8
0
 62
256
370
-1
 48
1.0
  6
ByLayer
100
AcDbDimension
 10
80.0
 20
70.0
 30
0.0
 11
45.0
 21
70.0
 31
0.0
 70
0
 71
8
 72
1
 74
0
 75
0
 41
1.0
 42
0.0
  1
\U+2300<>
  3
Standard
100
AcDbAlignedDimension
 13
9.9999999999999947
 23
60.0
 33
0.0
 14
80.0
 24
59.9999999999999929
 34
0.0
 50
0.0
100
AcDbRotatedDimension
1001
ACAD
1000
DSTYLE
1002
{
1070
144
1040
1.0
1070
40
1040
1.0
1002
}
  0
DIMENSION
  5
A8
100
AcDbEntity
  8
0
 62
256
370
-1
 48
1.0
  6
ByLayer
100
AcDbDimension
 10
70.0
 20
50.0000000000000071
 30
0.0
 11
40.0
 21
50.0000000000000071
 31
0.0
 70
0
 71
8
 72
1
 74
0
 75
0
 41
1.0
 42
0.0
  1
text
  3
Standard
100
AcDbAlignedDimension
 13
9.9999999999999964
 23
40.0
 33
0.0
 14
70.0
 24
39.9999999999999787
 34
0.0
 50
0.0
100
AcDbRotatedDimension
1001
ACAD
1000
DSTYLE
1002
{
1070
144
1040
1.0
1070
40
1040
1.0
1002
}
  0
DIMENSION
  5
A9
100
AcDbEntity
  8
0
 62
256
370
-1
 48
1.0
  6
ByLayer
100
AcDbDimension
 10
60.0
 20
29.9999999999999893
 30
0.0
 11
35.0
 21
29.9999999999999893
 31
0.0
 70
0
 71
8
 72
1
 74
0
 75
0
 41
1.0
 42
0.0
  1
\A1;<>\S0.01^ 0.02;
  3
Standard
100
AcDbAlignedDimension
 13
10.0
 23
20.0
 33
0.0
 14
60.0
 24
20.0000000000000107
 34
0.0
 50
0.0
100
AcDbRotatedDimension
1001
ACAD
1000
DSTYLE
1002
{
1070
144
1040
1.0
1070
40
1040
1.0
1002
}
  0
ENDBLK
  5
AA
100
AcDbEntity
  8
0
100
AcDbBlockEnd
  0
BLOCK
  5
AB
100
AcDbEntity
  8
0
100
AcDbBlockBegin
  2
ellispe_arc
 70
0
 10
0.0
 20
0.0
 30
0.0
  3
ellispe_arc
  1

  0
ELLIPSE
  5
AC
100
AcDbEntity
  8
0
 62
256
370
-1
 48
1.0
  6
ByLayer
100
AcDbEllipse
 10
50.0
 20
50.0
 30
0.0
 11
-40.0000000000000071
 21
-40.0000000000000071
 31
0.0
 40
0.25
 41
1.815774989921761
 42
7.038393146846551
  0
ENDBLK
  5
AD
100
AcDbEntity
  8
0
100
AcDbBlockEnd
  0
BLOCK
  5
AE
100
AcDbEntity
  8
0
100
AcDbBlockBegin
  2
hatch_pattern
 70
0
 10
0.0
 20
0.0
 30
0.0
  3
hatch_pattern
  1

  0
LWPOLYLINE
  5
AF
100
AcDbEntity
  8
0
 62
256
370
-1
 48
1.0
  6
ByLayer
100
AcDbPolyline
 90
18
 70
1
 10
20.0
 20
90.0
 10
10.0
 20
80.0
 10
10.0
 20
30.0
 42
0.9999999999999999
 10
50.0
 20
30.0
 10
50.0
 20
50.0
 10
60.0
 20
50.0
 10
60.0
 20
20.0
 10
70.0
 20
10.0
 10
90.0
 20
10.0
 10
90.0
 20
70.0
 10
80.0
 20
70.0
 10
80.0
 20
80.0
 10
90.0
 20
80.0
 10
90.0
 20
90.0
 10
50.0
 20
90.0
 10
50.0
 20
80.0
 10
40.0
 20
80.0
 10
40.0
 20
90.0
  0
HATCH
  5
B0
100
AcDbEntity
  8
0
 62
256
370
-1
 48
1.0
  6
ByLayer
100
AcDbHatch
 10
0.0
 20
0.0
 30
0.0
210
0.0
220
0.0
230
1.0
  2
STARS
 70
0
 71
0
 91
1
 92
1
 93
18
 72
1
 10
20.0
 20
90.0
 11
10.0
 21
80.0
 72
1
 10
10.0
 20
80.0
 11
10.0
 21
30.0
 72
2
 10
30.0
 20
30.0
 40
20.0
 50
180.0
 51
0.0
 73
1
 72
1
 10
50.0
 20
30.0
 11
50.0
 21
50.0
 72
1
 10
50.0
 20
50.0
 11
60.0
 21
50.0
 72
1
 10
60.0
 20
50.0
 11
60.0
 21
20.0
 72
1
 10
60.0
 20
20.0
 11
70.0
 21
10.0
 72
1
 10
70.0
 20
10.0
 11
90.0
 21
10.0
 72
1
 10
90.0
 20
10.0
 11
90.0
 21
70.0
 72
1
 10
90.0
 20
70.0
 11
80.0
 21
70.0
 72
1
 10
80.0
 20
70.0
 11
80.0
 21
80.0
 72
1
 10
80.0
 20
80.0
 11
90.0
 21
80.0
 72
1
 10
90.0
 20
80.0
 11
90.0
 21
90.0
 72
1
 10
90.0
 20
90.0
 11
50.0
 21
90.0
 72
1
 10
50.0
 20
90.0
 11
50.0
 21
80.0
 72
1
 10
50.0
 20
80.0
 11
40.0
 21
80.0
 72
1
 10
40.0
 20
80.0
 11
40.0
 21
90.0
 72
1
 10
40.0
 20
90.0
 11
20.0
 21
90.0
 97
0
 75
0
 76
1
 52
0.0
 41
4.0
 77
0
 78
1
 53
45.0
 43
0.0
 44
0.0
 45
-0.0883883476483184
 46
0.0883883476483185
 79
0
 98
0
1001
ACAD
1010
0.0
1020
0.0
1030
0
  0
ENDBLK
  5
B1
100
AcDbEntity
  8
0
100
AcDbBlockEnd
  0
BLOCK
  5
B2
100
AcDbEntity
  8
0
100
AcDbBlockBegin
  2
block02
 70
0
 10
0.0
 20
0.0
 30
0.0
  3
block02
  1

  0
LINE
  5
B3
100
AcDbEntity
  8
0
 62
256
370
-1
 48
1.0
  6
ByLayer
100
AcDbLine
 10
30.0
 20
30.0
 30
0.0
 11
90.0
 21
30.0
 31
0.0
  0
LINE
  5
B4
100
AcDbEntity
  8
0
 62
256
370
-1
 48
1.0
  6
ByLayer
100
AcDbLine
 10
90.0
 20
30.0
 30
0.0
 11
90.0
 21
10.0
 31
0.0
  0
LINE
  5
B5
100
AcDbEntity
  8
0
 62
256
370
-1
 48
1.0
  6
ByLayer
100
AcDbLine
 10
90.0
 20
10.0
 30
0.0
 11
30.0
 21
10.0
 31
0.0
  0
MTEXT
  5
B6
100
AcDbEntity
  8
0
 62
256
370
-1
 48
1.0
  6
ByLayer
100
AcDbMText
 10
35.7171200000000226
 20
24.9036800000000191
 30
0.0
 40
10.0
 41
100.0
 71
1
 72
1
  1
block02
  7
textstyle1
 50
0.0
 73
1
 44
1.0
  0
ELLIPSE
  5
B7
100
AcDbEntity
  8
0
 62
256
370
-1
 48
1.0
  6
ByLayer
100
AcDbEllipse
 10
30.0
 20
20.0
 30
0.0
 11
20.0
 21
0.0
 31
0.0
 40
0.5
 41
1.570796326794897
 42
4.7123889803846897
  0
ENDBLK
  5
B8
100
AcDbEntity
  8
0
100
AcDbBlockEnd
  0
BLOCK
  5
B9
100
AcDbEntity
  8
0
100
AcDbBlockBegin
  2
spline_cp_2deg_closed
 70
0
 10
0.0
 20
0.0
 30
0.0
  3
spline_cp_2deg_closed
  1

  0
SPLINE
  5
BA
100
AcDbEntity
  8
0
 62
256
370
-1
 48
1.0
  6
ByLayer
100
AcDbSpline
 70
8
 71
2
 72
10
 73
7
 74
0
 40
-1.0
 40
-1.0
 40
0.0
 40
1.0
 40
2.0
 40
3.0
 40
4.0
 40
5.0
 40
6.0
 40
6.0
 10
10.0
 20
10.0
 30
0.0
 10
10.0
 20
90.0
 30
0.0
 10
90.0
 20
90.0
 30
0.0
 10
50.0
 20
60.0
 30
0.0
 10
90.0
 20
10.0
 30
0.0
 10
10.0
 20
10.0
 30
0.0
 10
10.0
 20
90.0
 30
0.0
  0
ENDBLK
  5
BB
100
AcDbEntity
  8
0
100
AcDbBlockEnd
  0
BLOCK
  5
BC
100
AcDbEntity
  8
0
100
AcDbBlockBegin
  2
dim_leader
 70
0
 10
0.0
 20
0.0
 30
0.0
  3
dim_leader
  1

  0
LEADER
  5
BD
100
AcDbEntity
  8
0
 62
256
370
-1
 48
1.0
  6
ByLayer
100
AcDbLeader
  3
Standard
 71
0
 72
0
 73
3
 74
0
 75
0
 40
1.0
 41
10.0
 76
3
 10
10.0
 20
70.0
 10
40.0
 20
90.0
 10
90.0
 20
90.0
1001
ACAD
1000
DSTYLE
1002
{
1070
40
1040
1.0
1002
}
  0
LEADER
  5
BE
100
AcDbEntity
  8
0
 62
256
370
-1
 48
1.0
  6
ByLayer
100
AcDbLeader
  3
Standard
 71
0
 72
0
 73
3
 74
0
 75
0
 40
1.0
 41
10.0
 76
3
 10
10.0
 20
50.0
 10
40.0
 20
70.0
 10
70.0
 20
70.0
1001
ACAD
1000
DSTYLE
1002
{
1070
40
1040
1.0
1002
}
  0
LEADER
  5
BF
100
AcDbEntity
  8
0
 62
256
370
-1
 48
1.0
  6
ByLayer
100
AcDbLeader
  3
Standard
 71
0
 72
0
 73
3
 74
0
 75
0
 40
1.0
 41
10.0
 76
4
 10
90.0
 20
10.0
 10
80.0
 20
30.0
 10
50.0
 20
40.0
 10
20.0
 20
40.0
1001
ACAD
1000
DSTYLE
1002
{
1070
40
1040
1.0
1002
}
  0
ENDBLK
  5
C0
100
AcDbEntity
  8
0
100
AcDbBlockEnd
  0
BLOCK
  5
C1
100
AcDbEntity
  8
0
100
AcDbBlockBegin
  2
ellipse
 70
0
 10
0.0
 20
0.0
 30
0.0
  3
ellipse
  1

  0
ELLIPSE
  5
C2
100
AcDbEntity
  8
0
 62
256
370
-1
 48
1.0
  6
ByLayer
100
AcDbEllipse
 10
50.0
 20
50.0
 30
0.0
 11
40.0
 21
30.0
 31
0.0
 40
0.28
 41
0.0
 42
6.2831853071795862
  0
ENDBLK
  5
C3
100
AcDbEntity
  8
0
100
AcDbBlockEnd
  0
BLOCK
  5
C4
100
AcDbEntity
  8
0
100
AcDbBlockBegin
  2
spline_fp
 70
0
 10
0.0
 20
0.0
 30
0.0
  3
spline_fp
  1

  0
SPLINE
  5
C5
100
AcDbEntity
  8
0
 62
256
370
-1
 48
1.0
  6
ByLayer
100
AcDbSpline
 70
8
 71
3
 72
0
 73
0
 74
4
 11
20.0
 21
10.0
 31
0.0
 11
20.0
 21
80.0
 31
0.0
 11
80.0
 21
80.0
 31
0.0
 11
80.0
 21
10.0
 31
0.0
  0
ENDBLK
  5
C6
100
AcDbEntity
  8
0
100
AcDbBlockEnd
  0
BLOCK
  5
C7
100
AcDbEntity
  8
0
100
AcDbBlockBegin
  2
dim_rotated
 70
0
 10
0.0
 20
0.0
 30
0.0
  3
dim_rotated
  1

  0
DIMENSION
  5
C8
100
AcDbEntity
  8
0
 62
256
370
-1
 48
1.0
  6
ByLayer
100
AcDbDimension
 10
29.1537958399999901
 20
90.8462041600000134
 30
0.0
 11
19.1537958399999866
 21
80.8462041599998997
 31
0.0
 70
0
 71
8
 72
1
 74
0
 75
0
 41
1.0
 42
0.0
  1

  3
Standard
100
AcDbAlignedDimension
 13
20.0
 23
60.0
 33
0.0
 14
40.0000000000000071
 24
80.0
 34
0.0
 50
45.0
100
AcDbRotatedDimension
1001
ACAD
1000
DSTYLE
1002
{
1070
144
1040
1.0
1070
40
1040
1.0
1002
}
  0
DIMENSION
  5
C9
100
AcDbEntity
  8
0
 62
256
370
-1
 48
1.0
  6
ByLayer
100
AcDbDimension
 10
75.9151834849652118
 20
87.0751097436367019
 30
0.0
 11
64.0850564660430138
 21
80.2449827247144611
 31
0.0
 70
0
 71
8
 72
1
 74
0
 75
0
 41
1.0
 42
0.0
  1
\U+2300<>
  3
Standard
100
AcDbAlignedDimension
 13
60.0
 23
60.0000000000000071
 33
0.0
 14
80.0
 24
80.0000000000000142
 34
0.0
 50
30.0
100
AcDbRotatedDimension
1001
ACAD
1000
DSTYLE
1002
{
1070
144
1040
1.0
1070
40
1040
1.0
1002
}
  0
DIMENSION
  5
CA
100
AcDbEntity
  8
0
 62
256
370
-1
 48
1.0
  6
ByLayer
100
AcDbDimension
 10
9.9999999999999982
 20
50.0
 30
0.0
 11
10.0
 21
30.0
 31
0.0
 70
0
 71
8
 72
1
 74
0
 75
0
 41
1.0
 42
0.0
  1
text
  3
Standard
100
AcDbAlignedDimension
 13
30.0
 23
10.0
 33
0.0
 14
30.0
 24
50.0
 34
0.0
 50
90.0
100
AcDbRotatedDimension
1001
ACAD
1000
DSTYLE
1002
{
1070
144
1040
1.0
1070
40
1040
1.0
1002
}
  0
DIMENSION
  5
CB
100
AcDbEntity
  8
0
 62
256
370
-1
 48
1.0
  6
ByLayer
100
AcDbDimension
 10
74.7489270808782464
 20
51.0189322670162397
 30
0.0
 11
82.1803568779808984
 21
34.327667660036262
 31
0.0
 70
0
 71
8
 72
1
 74
0
 75
0
 41
1.0
 42
0.0
  1
\A1;<>\S0.01^ 0.02;
  3
Standard
100
AcDbAlignedDimension
 13
73.1144319999999652
 23
10.2913075200000108
 33
0.0
 14
50.0
 24
39.9999999999999929
 34
0.0
 50
-66.0
100
AcDbRotatedDimension
1001
ACAD
1000
DSTYLE
1002
{
1070
144
1040
1.0
1070
40
1040
1.0
1002
}
  0
ENDBLK
  5
CC
100
AcDbEntity
  8
0
100
AcDbBlockEnd
  0
BLOCK
  5
CD
100
AcDbEntity
  8
0
100
AcDbBlockBegin
  2
spline_cp_3deg
 70
0
 10
0.0
 20
0.0
 30
0.0
  3
spline_cp_3deg
  1

  0
SPLINE
  5
CE
100
AcDbEntity
  8
0
 62
256
370
-1
 48
1.0
  6
ByLayer
100
AcDbSpline
 70
8
 71
3
 72
8
 73
4
 74
0
 40
0.0
 40
0.0
 40
0.0
 40
0.0
 40
1.0
 40
1.0
 40
1.0
 40
1.0
 10
10.0
 20
10.0
 30
0.0
 10
10.0
 20
90.0
 30
0.0
 10
90.0
 20
90.0
 30
0.0
 10
90.0
 20
10.0
 30
0.0
  0
ENDBLK
  5
CF
100
AcDbEntity
  8
0
100
AcDbBlockEnd
  0
BLOCK
  5
D0
100
AcDbEntity
  8
0
100
AcDbBlockBegin
  2
text
 70
0
 10
0.0
 20
0.0
 30
0.0
  3
text
  1

  0
MTEXT
  5
D1
100
AcDbEntity
  8
0
 62
256
370
-1
 48
1.0
  6
ByLayer
100
AcDbMText
 10
10.0000000000000107
 20
90.0
 30
0.0
 40
5.0
 41
0.0
 71
1
 72
1
  3
text, Arial, h5\P\fArial|b1|i0|c0|p0;text, Arial, h5, bold\P\fArial|b0|i1|c0|p0;text, Arial, h5, italic\P\fArial|b0|i0|c0|p0;\C1;text, Arial, h5, red\P\c0;special characters:\P%%d %%p %%c \U+2248 \U+00d7 \U+00f7 \U+0394 \U+03c0 \U+2261 \U+2260 \U+212
  1
6 \U+03a9 \U+00b2\U+00b3\P\fTimes New Roman|b0|i0|c0|p0;\C256;text, Times New Roman, h5\fArial|b0|i0|c0|p0;\c0;\P\H7.85714;text, Arial, h8
  7
textstyle2
 50
0.0
 73
1
 44
1.0
  0
ENDBLK
  5
D2
100
AcDbEntity
  8
0
100
AcDbBlockEnd
  0
BLOCK
  5
D3
100
AcDbEntity
  8
0
100
AcDbBlockBegin
  2
spline_cp_2deg
 70
0
 10
0.0
 20
0.0
 30
0.0
  3
spline_cp_2deg
  1

  0
SPLINE
  5
D4
100
AcDbEntity
  8
0
 62
256
370
-1
 48
1.0
  6
ByLayer
100
AcDbSpline
 70
8
 71
2
 72
7
 73
4
 74
0
 40
0.0
 40
0.0
 40
0.0
 40
1.0
 40
2.0
 40
2.0
 40
2.0
 10
10.0
 20
10.0
 30
0.0
 10
10.0
 20
90.0
 30
0.0
 10
90.0
 20
90.0
 30
0.0
 10
90.0
 20
10.0
 30
0.0
  0
ENDBLK
  5
D5
100
AcDbEntity
  8
0
100
AcDbBlockEnd
  0
BLOCK
  5
D6
100
AcDbEntity
  8
0
100
AcDbBlockBegin
  2
line
 70
0
 10
0.0
 20
0.0
 30
0.0
  3
line
  1

  0
LINE
  5
D7
100
AcDbEntity
  8
0
 62
256
370
-1
 48
1.0
  6
ByLayer
100
AcDbLine
 10
10.0
 20
10.0
 30
0.0
 11
90.0
 21
90.0
 31
0.0
  0
ENDBLK
  5
D8
100
AcDbEntity
  8
0
100
AcDbBlockEnd
  0
BLOCK
  5
D9
100
AcDbEntity
  8
0
100
AcDbBlockBegin
  2
polyline
 70
0
 10
0.0
 20
0.0
 30
0.0
  3
polyline
  1

  0
LWPOLYLINE
  5
DA
100
AcDbEntity
  8
0
 62
256
370
-1
 48
1.0
  6
ByLayer
100
AcDbPolyline
 90
6
 70
0
 10
10.0
 20
10.0
 10
10.0
 20
90.0
 10
90.0
 20
90.0
 10
90.0
 20
10.0
 10
60.0
 20
50.0
 42
1.9534367339647389
 10
50.3245553203367493
 20
19.0263340389897309
  0
ENDBLK
  5
DB
100
AcDbEntity
  8
0
100
AcDbBlockEnd
  0
BLOCK
  5
DC
100
AcDbEntity
  8
0
100
AcDbBlockBegin
  2
dim_diametric_circle
 70
0
 10
0.0
 20
0.0
 30
0.0
  3
dim_diametric_circle
  1

  0
DIMENSION
  5
DD
100
AcDbEntity
  8
0
 62
256
370
-1
 48
1.0
  6
ByLayer
100
AcDbDimension
 10
45.0000000000000071
 20
70.0
 30
0.0
 11
30.0000000000000036
 21
70.0
 31
0.0
 70
3
 71
8
 72
1
 74
0
 75
0
 41
1.0
 42
0.0
  1

  3
Standard
100
AcDbDiametricDimension
 15
15.0
 25
70.0
 35
0.0
 40
0.0
1001
ACAD
1000
DSTYLE
1002
{
1070
144
1040
1.0
1070
40
1040
1.0
1002
}
  0
DIMENSION
  5
DE
100
AcDbEntity
  8
0
 62
256
370
-1
 48
1.0
  6
ByLayer
100
AcDbDimension
 10
80.6066017177982133
 20
80.6066017177982275
 30
0.0
 11
70.0
 21
70.0
 31
0.0
 70
3
 71
8
 72
1
 74
0
 75
0
 41
1.0
 42
0.0
  1
\U+2300<>
  3
Standard
100
AcDbDiametricDimension
 15
59.3933982822017867
 25
59.3933982822017867
 35
0.0
 40
0.0
1001
ACAD
1000
DSTYLE
1002
{
1070
144
1040
1.0
1070
40
1040
1.0
1002
}
  0
DIMENSION
  5
DF
100
AcDbEntity
  8
0
 62
256
370
-1
 48
1.0
  6
ByLayer
100
AcDbDimension
 10
30.0
 20
15.0
 30
0.0
 11
30.0
 21
30.0
 31
0.0
 70
3
 71
8
 72
1
 74
0
 75
0
 41
1.0
 42
0.0
  1
text
  3
Standard
100
AcDbDiametricDimension
 15
30.0
 25
45.0
 35
0.0
 40
0.0
1001
ACAD
1000
DSTYLE
1002
{
1070
144
1040
1.0
1070
40
1040
1.0
1002
}
  0
DIMENSION
  5
E0
100
AcDbEntity
  8
0
 62
256
370
-1
 48
1.0
  6
ByLayer
100
AcDbDimension
 10
59.3933982822017867
 20
40.606601717798199
 30
0.0
 11
70.0
 21
29.9999999999999751
 31
0.0
 70
3
 71
8
 72
1
 74
0
 75
0
 41
1.0
 42
0.0
  1
\A1;<>\S0.01^ 0.02;
  3
Standard
100
AcDbDiametricDimension
 15
80.6066017177982133
 25
19.3933982822017512
 35
0.0
 40
0.0
1001
ACAD
1000
DSTYLE
1002
{
1070
144
1040
1.0
1070
40
1040
1.0
1002
}
  0
CIRCLE
  5
E1
100
AcDbEntity
  8
0
 62
256
370
-1
 48
1.0
  6
ByLayer
100
AcDbCircle
 10
30.0
 20
70.0
 30
0.0
 40
15.0
  0
CIRCLE
  5
E2
100
AcDbEntity
  8
0
 62
256
370
-1
 48
1.0
  6
ByLayer
100
AcDbCircle
 10
70.0
 20
70.0
 30
0.0
 40
15.0
  0
CIRCLE
  5
E3
100
AcDbEntity
  8
0
 62
256
370
-1
 48
1.0
  6
ByLayer
100
AcDbCircle
 10
30.0
 20
30.0
 30
0.0
 40
15.0
  0
CIRCLE
  5
E4
100
AcDbEntity
  8
0
 62
256
370
-1
 48
1.0
  6
ByLayer
100
AcDbCircle
 10
70.0
 20
30.0
 30
0.0
 40
15.0
  0
ENDBLK
  5
E5
100
AcDbEntity
  8
0
100
AcDbBlockEnd
  0
BLOCK
  5
E6
100
AcDbEntity
  8
0
100
AcDbBlockBegin
  2
dim_radial_circle
 70
0
 10
0.0
 20
0.0
 30
0.0
  3
dim_radial_circle
  1

  0
CIRCLE
  5
E7
100
AcDbEntity
  8
0
 62
256
370
-1
 48
1.0
  6
ByLayer
100
AcDbCircle
 10
30.0
 20
70.0
 30
0.0
 40
15.0
  0
CIRCLE
  5
E8
100
AcDbEntity
  8
0
 62
256
370
-1
 48
1.0
  6
ByLayer
100
AcDbCircle
 10
70.0
 20
70.0
 30
0.0
 40
15.0
  0
CIRCLE
  5
E9
100
AcDbEntity
  8
0
 62
256
370
-1
 48
1.0
  6
ByLayer
100
AcDbCircle
 10
30.0
 20
30.0
 30
0.0
 40
15.0
  0
CIRCLE
  5
EA
100
AcDbEntity
  8
0
 62
256
370
-1
 48
1.0
  6
ByLayer
100
AcDbCircle
 10
70.0
 20
30.0
 30
0.0
 40
15.0
  0
DIMENSION
  5
EB
100
AcDbEntity
  8
0
 62
256
370
-1
 48
1.0
  6
ByLayer
100
AcDbDimension
 10
30.0
 20
70.0
 30
0.0
 11
37.5
 21
70.0
 31
0.0
 70
4
 71
8
 72
1
 74
0
 41
1.0
 42
0.0
  1

  3
Standard
100
AcDbRadialDimension
 15
45.0000000000000071
 25
70.0
 35
0.0
 40
0.0
1001
ACAD
1000
DSTYLE
1002
{
1070
144
1040
1.0
1070
40
1040
1.0
1002
}
  0
DIMENSION
  5
EC
100
AcDbEntity
  8
0
 62
256
370
-1
 48
1.0
  6
ByLayer
100
AcDbDimension
 10
70.0
 20
70.0000000000000142
 30
0.0
 11
76.3887622694415143
 21
73.9285769261350225
 31
0.0
 70
4
 71
8
 72
1
 74
0
 41
1.0
 42
0.0
  1
\U+2300<>
  3
Standard
100
AcDbRadialDimension
 15
82.7775245388830427
 25
77.8571538522700308
 35
0.0
 40
0.0
1001
ACAD
1000
DSTYLE
1002
{
1070
144
1040
1.0
1070
40
1040
1.0
1002
}
  0
DIMENSION
  5
ED
100
AcDbEntity
  8
0
 62
256
370
-1
 48
1.0
  6
ByLayer
100
AcDbDimension
 10
30.0
 20
30.0
 30
0.0
 11
23.6683370254654051
 21
25.9800442817230319
 31
0.0
 70
4
 71
8
 72
1
 74
0
 41
1.0
 42
0.0
  1
text
  3
Standard
100
AcDbRadialDimension
 15
17.3366740509308102
 25
21.9600885634460603
 35
0.0
 40
0.0
1001
ACAD
1000
DSTYLE
1002
{
1070
144
1040
1.0
1070
40
1040
1.0
1002
}
  0
DIMENSION
  5
EE
100
AcDbEntity
  8
0
 62
256
370
-1
 48
1.0
  6
ByLayer
100
AcDbDimension
 10
70.0
 20
30.0000000000000213
 30
0.0
 11
70.0
 21
37.5000000000000142
 31
0.0
 70
4
 71
8
 72
1
 74
0
 41
1.0
 42
0.0
  1
\A1;<>\S0.01^ 0.02;
  3
Standard
100
AcDbRadialDimension
 15
70.0
 25
45.0000000000000071
 35
0.0
 40
0.0
1001
ACAD
1000
DSTYLE
1002
{
1070
144
1040
1.0
1070
40
1040
1.0
1002
}
  0
ENDBLK
  5
EF
100
AcDbEntity
  8
0
100
AcDbBlockEnd
  0
BLOCK
  5
F0
100
AcDbEntity
  8
0
100
AcDbBlockBegin
  2
dim_angular_line
 70
0
 10
0.0
 20
0.0
 30
0.0
  3
dim_angular_line
  1

  0
DIMENSION
  5
F1
100
AcDbEntity
  8
0
 62
256
370
-1
 48
1.0
  6
ByLayer
100
AcDbDimension
 10
90.0
 20
39.9999999999999929
 30
0.0
 11
31.3078612085926551
 21
30.1210233931595752
 31
0.0
 70
2
 71
8
 72
1
 74
0
 75
0
 41
1.0
 42
0.0
  1
text
  3
Standard
100
AcDb2LineAngularDimension
 13
10.0000000000000107
 23
80.0
 33
0.0
 14
20.0
 24
10.0
 34
0.0
 15
20.0
 25
10.0
 35
0.0
 16
35.3913800005498018
 26
27.1996723567498506
 36
0.0
  0
DIMENSION
  5
F2
100
AcDbEntity
  8
0
 62
256
370
-1
 48
1.0
  6
ByLayer
100
AcDbDimension
 10
89.9999999999999858
 20
71.3133005288857902
 30
0.0
 11
75.4932433384754091
 21
49.565699607368181
 31
0.0
 70
2
 71
8
 72
1
 74
0
 75
0
 41
1.0
 42
0.0
  1
\A1;<>\S0.01^ 0.02;
  3
Standard
100
AcDb2LineAngularDimension
 13
42.3635334754523285
 23
19.5843714894795689
 33
0.0
 14
90.5744656437612861
 24
40.2461995616119879
 34
0.0
 15
89.9999999999999858
 25
39.3750000000000071
 35
0.0
 16
79.3658132711661608
 26
53.7427315491275621
 36
0.0
  0
LINE
  5
F3
100
AcDbEntity
  8
0
 62
256
370
-1
 48
1.0
  6
ByLayer
100
AcDbLine
 10
90.0
 20
90.0
 30
0.0
 11
10.0
 21
80.0
 31
0.0
  0
LINE
  5
F4
100
AcDbEntity
  8
0
 62
256
370
-1
 48
1.0
  6
ByLayer
100
AcDbLine
 10
10.0
 20
80.0
 30
0.0
 11
20.0
 21
10.0
 31
0.0
  0
LINE
  5
F5
100
AcDbEntity
  8
0
 62
256
370
-1
 48
1.0
  6
ByLayer
100
AcDbLine
 10
20.0
 20
10.0
 30
0.0
 11
90.0
 21
40.0
 31
0.0
  0
LINE
  5
F6
100
AcDbEntity
  8
0
 62
256
370
-1
 48
1.0
  6
ByLayer
100
AcDbLine
 10
90.0
 20
40.0
 30
0.0
 11
90.0
 21
90.0
 31
0.0
  0
DIMENSION
  5
F7
100
AcDbEntity
  8
0
 62
256
370
-1
 48
1.0
  6
ByLayer
100
AcDbDimension
 10
20.0
 20
10.0
 30
0.0
 11
25.9622135893443939
 21
67.8081276473175905
 31
0.0
 70
2
 71
8
 72
1
 74
0
 75
0
 41
1.0
 42
0.0
  1

  3
Standard
100
AcDb2LineAngularDimension
 13
90.0
 23
90.0000000000000142
 33
0.0
 14
10.0000000000000107
 24
80.0
 34
0.0
 15
10.0000000000000107
 25
80.0
 35
0.0
 16
22.3092822874641392
 26
64.1281512197389532
 36
0.0
  0
DIMENSION
  5
F8
100
AcDbEntity
  8
0
 62
256
370
-1
 48
1.0
  6
ByLayer
100
AcDbDimension
 10
90.0
 20
39.9999999999999929
 30
0.0
 11
78.4603475956453451
 21
76.9280869482455643
 31
0.0
 70
2
 71
8
 72
1
 74
0
 75
0
 41
1.0
 42
0.0
  1
\U+2300<>
  3
Standard
100
AcDb2LineAngularDimension
 13
31.170910232960761
 23
82.6463637791200796
 33
0.0
 14
90.6201736729460379
 24
90.0775217091181872
 34
0.0
 15
90.0
 25
90.0000000000000142
 35
0.0
 16
75.6731911623925129
 26
80.0611350257382242
 36
0.0
  0
ENDBLK
  5
F9
100
AcDbEntity
  8
0
100
AcDbBlockEnd
  0
BLOCK
  5
FA
100
AcDbEntity
  8
0
100
AcDbBlockBegin
  2
spline_cp_3deg_closed
 70
0
 10
0.0
 20
0.0
 30
0.0
  3
spline_cp_3deg_closed
  1

  0
SPLINE
  5
FB
100
AcDbEntity
  8
0
 62
256
370
-1
 48
1.0
  6
ByLayer
100
AcDbSpline
 70
8
 71
3
 72
14
 73
10
 74
0
 40
-2.0
 40
-2.0
 40
-1.0
 40
0.0
 40
1.0
 40
2.0
 40
3.0
 40
4.0
 40
5.0
 40
6.0
 40
7.0
 40
8.0
 40
9.0
 40
9.0
 10
10.0
 20
90.0
 30
0.0
 10
10.0
 20
10.0
 30
0.0
 10
90.0
 20
10.0
 30
0.0
 10
90.0
 20
50.0
 30
0.0
 10
60.0
 20
40.0
 30
0.0
 10
50.0
 20
50.0
 30
0.0
 10
40.0
 20
90.0
 30
0.0
 10
10.0
 20
90.0
 30
0.0
 10
10.0
 20
10.0
 30
0.0
 10
90.0
 20
10.0
 30
0.0
  0
ENDBLK
  5
FC
100
AcDbEntity
  8
0
100
AcDbBlockEnd
  0
BLOCK
  5
FD
100
AcDbEntity
  8
0
100
AcDbBlockBegin
  2
points
 70
0
 10
0.0
 20
0.0
 30
0.0
  3
points
  1

  0
POINT
  5
FE
100
AcDbEntity
  8
0
 62
256
370
-1
 48
1.0
  6
ByLayer
100
AcDbPoint
 10
30.0
 20
63.3333333333333286
 30
0.0
  0
POINT
  5
FF
100
AcDbEntity
  8
0
 62
256
370
-1
 48
1.0
  6
ByLayer
100
AcDbPoint
 10
50.0
 20
63.3333333333333286
 30
0.0
  0
POINT
  5
100
100
AcDbEntity
  8
0
 62
256
370
-1
 48
1.0
  6
ByLayer
100
AcDbPoint
 10
70.0
 20
63.3333333333333286
 30
0.0
  0
POINT
  5
101
100
AcDbEntity
  8
0
 62
256
370
-1
 48
1.0
  6
ByLayer
100
AcDbPoint
 10
90.0
 20
63.3333333333333286
 30
0.0
  0
POINT
  5
102
100
AcDbEntity
  8
0
 62
256
370
-1
 48
1.0
  6
ByLayer
100
AcDbPoint
 10
10.0
 20
36.6666666666666572
 30
0.0
  0
POINT
  5
103
100
AcDbEntity
  8
0
 62
256
370
-1
 48
1.0
  6
ByLayer
100
AcDbPoint
 10
30.0
 20
36.6666666666666572
 30
0.0
  0
POINT
  5
104
100
AcDbEntity
  8
0
 62
256
370
-1
 48
1.0
  6
ByLayer
100
AcDbPoint
 10
50.0
 20
36.6666666666666572
 30
0.0
  0
POINT
  5
105
100
AcDbEntity
  8
0
 62
256
370
-1
 48
1.0
  6
ByLayer
100
AcDbPoint
 10
70.0
 20
36.6666666666666572
 30
0.0
  0
POINT
  5
106
100
AcDbEntity
  8
0
 62
256
370
-1
 48
1.0
  6
ByLayer
100
AcDbPoint
 10
90.0
 20
36.6666666666666572
 30
0.0
  0
POINT
  5
107
100
AcDbEntity
  8
0
 62
256
370
-1
 48
1.0
  6
ByLayer
100
AcDbPoint
 10
90.0
 20
10.0
 30
0.0
  0
POINT
  5
108
100
AcDbEntity
  8
0
 62
256
370
-1
 48
1.0
  6
ByLayer
100
AcDbPoint
 10
70.0
 20
10.0
 30
0.0
  0
POINT
  5
109
100
AcDbEntity
  8
0
 62
256
370
-1
 48
1.0
  6
ByLayer
100
AcDbPoint
 10
50.0
 20
10.0
 30
0.0
  0
POINT
  5
10A
100
AcDbEntity
  8
0
 62
256
370
-1
 48
1.0
  6
ByLayer
100
AcDbPoint
 10
30.0
 20
10.0
 30
0.0
  0
POINT
  5
10B
100
AcDbEntity
  8
0
 62
256
370
-1
 48
1.0
  6
ByLayer
100
AcDbPoint
 10
10.0
 20
10.0
 30
0.0
  0
POINT
  5
10C
100
AcDbEntity
  8
0
 62
256
370
-1
 48
1.0
  6
ByLayer
100
AcDbPoint
 10
10.0
 20
90.0
 30
0.0
  0
POINT
  5
10D
100
AcDbEntity
  8
0
 62
256
370
-1
 48
1.0
  6
ByLayer
100
AcDbPoint
 10
30.0
 20
90.0
 30
0.0
  0
POINT
  5
10E
100
AcDbEntity
  8
0
 62
256
370
-1
 48
1.0
  6
ByLayer
100
AcDbPoint
 10
50.0
 20
90.0
 30
0.0
  0
POINT
  5
10F
100
AcDbEntity
  8
0
 62
256
370
-1
 48
1.0
  6
ByLayer
100
AcDbPoint
 10
70.0
 20
90.0
 30
0.0
  0
POINT
  5
110
100
AcDbEntity
  8
0
 62
256
370
-1
 48
1.0
  6
ByLayer
100
AcDbPoint
 10
90.0
 20
90.0
 30
0.0
  0
POINT
  5
111
100
AcDbEntity
  8
0
 62
256
370
-1
 48
1.0
  6
ByLayer
100
AcDbPoint
 10
10.0
 20
63.3333333333333286
 30
0.0
  0
ENDBLK
  5
112
100
AcDbEntity
  8
0
100
AcDbBlockEnd
  0
BLOCK
  5
113
100
AcDbEntity
  8
0
100
AcDbBlockBegin
  2
block01
 70
0
 10
0.0
 20
0.0
 30
0.0
  3
block01
  1

  0
LINE
  5
114
100
AcDbEntity
  8
0
 62
256
370
-1
 48
1.0
  6
ByLayer
100
AcDbLine
 10
20.0
 20
90.0
 30
0.0
 11
90.0
 21
90.0
 31
0.0
  0
LINE
  5
115
100
AcDbEntity
  8
0
 62
256
370
-1
 48
1.0
  6
ByLayer
100
AcDbLine
 10
30.0
 20
60.0
 30
0.0
 11
90.0
 21
60.0
 31
0.0
  0
LINE
  5
116
100
AcDbEntity
  8
0
 62
256
370
-1
 48
1.0
  6
ByLayer
100
AcDbLine
 10
90.0
 20
60.0
 30
0.0
 11
90.0
 21
90.0
 31
0.0
  0
LINE
  5
117
100
AcDbEntity
  8
0
 62
256
370
-1
 48
1.0
  6
ByLayer
100
AcDbLine
 10
30.0
 20
80.0
 30
0.0
 11
30.0
 21
60.0
 31
0.0
  0
ARC
  5
118
100
AcDbEntity
  8
0
 62
256
370
-1
 48
1.0
  6
ByLayer
100
AcDbCircle
 10
20.0
 20
80.0
 30
0.0
 40
10.0
100
AcDbArc
 50
90.0
 51
0.0
  0
MTEXT
  5
119
100
AcDbEntity
  8
0
 62
256
370
-1
 48
1.0
  6
ByLayer
100
AcDbMText
 10
40.0000000000000071
 20
80.0
 30
0.0
 40
10.0
 41
100.0
 71
1
 72
1
  1
block01
  7
textstyle0
 50
0.0
 73
1
 44
1.0
  0
ENDBLK
  5
11A
100
AcDbEntity
  8
0
100
AcDbBlockEnd
  0
BLOCK
  5
11B
100
AcDbEntity
  8
0
100
AcDbBlockBegin
  2
dim_aligned
 70
0
 10
0.0
 20
0.0
 30
0.0
  3
dim_aligned
  1

  0
DIMENSION
  5
11C
100
AcDbEntity
  8
0
 62
256
370
-1
 48
1.0
  6
ByLayer
100
AcDbDimension
 10
92.4253562503633361
 20
69.7014250014533161
 30
0.0
 11
52.4253562503633432
 21
79.7014250014533161
 31
0.0
 70
1
 71
8
 72
1
 74
0
 75
0
 41
1.0
 42
0.0
  1

  3
Standard
100
AcDbAlignedDimension
 13
10.0000000000000107
 23
80.0
 33
0.0
 14
90.0
 24
59.9999999999999929
 34
0.0
1001
ACAD
1000
DSTYLE
1002
{
1070
144
1040
1.0
1070
40
1040
1.0
1002
}
  0
DIMENSION
  5
11D
100
AcDbEntity
  8
0
 62
256
370
-1
 48
1.0
  6
ByLayer
100
AcDbDimension
 10
50.0
 20
70.0
 30
0.0
 11
30.0
 21
70.0
 31
0.0
 70
1
 71
8
 72
1
 74
0
 75
0
 41
1.0
 42
0.0
  1
\U+2300<>
  3
Standard
100
AcDbAlignedDimension
 13
9.9999999999999947
 23
60.0
 33
0.0
 14
50.0
 24
59.9999999999999929
 34
0.0
1001
ACAD
1000
DSTYLE
1002
{
1070
144
1040
1.0
1070
40
1040
1.0
1002
}
  0
DIMENSION
  5
11E
100
AcDbEntity
  8
0
 62
256
370
-1
 48
1.0
  6
ByLayer
100
AcDbDimension
 10
68.3560101269464298
 20
59.8639392383214428
 30
0.0
 11
38.3560101269464298
 21
54.8639392383214357
 31
0.0
 70
1
 71
8
 72
1
 74
0
 75
0
 41
1.0
 42
0.0
  1
text
  3
Standard
100
AcDbAlignedDimension
 13
9.9999999999999964
 23
40.0
 33
0.0
 14
70.0
 24
50.0000000000000071
 34
0.0
1001
ACAD
1000
DSTYLE
1002
{
1070
144
1040
1.0
1070
40
1040
1.0
1002
}
  0
DIMENSION
  5
11F
100
AcDbEntity
  8
0
 62
256
370
-1
 48
1.0
  6
ByLayer
100
AcDbDimension
 10
81.4142135623731065
 20
19.8994949366116209
 30
0.0
 11
46.4142135623731065
 21
24.8994949366116529
 31
0.0
 70
1
 71
8
 72
1
 74
0
 75
0
 41
1.0
 42
0.0
  1
\A1;<>\S0.01^ 0.02;
  3
Standard
100
AcDbAlignedDimension
 13
10.0
 23
20.0
 33
0.0
 14
80.0
 24
9.9999999999999414
 34
0.0
1001
ACAD
1000
DSTYLE
1002
{
1070
144
1040
1.0
1070
40
1040
1.0
1002
}
  0
ENDBLK
  5
120
100
AcDbEntity
  8
0
100
AcDbBlockEnd
  0
BLOCK
  5
121
100
AcDbEntity
  8
0
100
AcDbBlockBegin
  2
hatch_solid
 70
0
 10
0.0
 20
0.0
 30
0.0
  3
hatch_solid
  1

  0
LWPOLYLINE
  5
122
100
AcDbEntity
  8
0
 62
256
370
-1
 48
1.0
  6
ByLayer
100
AcDbPolyline
 90
18
 70
1
 10
20.0
 20
90.0
 10
10.0
 20
80.0
 10
10.0
 20
30.0
 42
0.9999999999999999
 10
50.0
 20
30.0
 10
50.0
 20
50.0
 10
60.0
 20
50.0
 10
60.0
 20
20.0
 10
70.0
 20
10.0
 10
90.0
 20
10.0
 10
90.0
 20
70.0
 10
80.0
 20
70.0
 10
80.0
 20
80.0
 10
90.0
 20
80.0
 10
90.0
 20
90.0
 10
50.0
 20
90.0
 10
50.0
 20
80.0
 10
40.0
 20
80.0
 10
40.0
 20
90.0
  0
HATCH
  5
123
100
AcDbEntity
  8
0
 62
256
370
-1
 48
1.0
  6
ByLayer
100
AcDbHatch
 10
0.0
 20
0.0
 30
0.0
210
0.0
220
0.0
230
1.0
  2
SOLID
 70
1
 71
0
 91
1
 92
1
 93
18
 72
1
 10
20.0
 20
90.0
 11
10.0
 21
80.0
 72
1
 10
10.0
 20
80.0
 11
10.0
 21
30.0
 72
2
 10
30.0
 20
30.0
 40
20.0
 50
180.0
 51
0.0
 73
1
 72
1
 10
50.0
 20
30.0
 11
50.0
 21
50.0
 72
1
 10
50.0
 20
50.0
 11
60.0
 21
50.0
 72
1
 10
60.0
 20
50.0
 11
60.0
 21
20.0
 72
1
 10
60.0
 20
20.0
 11
70.0
 21
10.0
 72
1
 10
70.0
 20
10.0
 11
90.0
 21
10.0
 72
1
 10
90.0
 20
10.0
 11
90.0
 21
70.0
 72
1
 10
90.0
 20
70.0
 11
80.0
 21
70.0
 72
1
 10
80.0
 20
70.0
 11
80.0
 21
80.0
 72
1
 10
80.0
 20
80.0
 11
90.0
 21
80.0
 72
1
 10
90.0
 20
80.0
 11
90.0
 21
90.0
 72
1
 10
90.0
 20
90.0
 11
50.0
 21
90.0
 72
1
 10
50.0
 20
90.0
 11
50.0
 21
80.0
 72
1
 10
50.0
 20
80.0
 11
40.0
 21
80.0
 72
1
 10
40.0
 20
80.0
 11
40.0
 21
90.0
 72
1
 10
40.0
 20
90.0
 11
20.0
 21
90.0
 97
0
 75
0
 76
1
 98
0
1001
ACAD
1010
0.0
1020
0.0
1030
0
  0
ENDBLK
  5
124
100
AcDbEntity
  8
0
100
AcDbBlockEnd
  0
BLOCK
  5
125
100
AcDbEntity
  8
0
100
AcDbBlockBegin
  2
dim_vertical
 70
0
 10
0.0
 20
0.0
 30
0.0
  3
dim_vertical
  1

  0
DIMENSION
  5
126
100
AcDbEntity
  8
0
 62
256
370
-1
 48
1.0
  6
ByLayer
100
AcDbDimension
 10
10.0000000000000107
 20
90.0
 30
0.0
 11
10.0000000000000107
 21
50.0
 31
0.0
 70
0
 71
8
 72
1
 74
0
 75
0
 41
1.0
 42
0.0
  1

  3
Standard
100
AcDbAlignedDimension
 13
20.0
 23
10.0
 33
0.0
 14
20.0
 24
90.0
 34
0.0
 50
90.0
100
AcDbRotatedDimension
1001
ACAD
1000
DSTYLE
1002
{
1070
144
1040
1.0
1070
40
1040
1.0
1002
}
  0
DIMENSION
  5
127
100
AcDbEntity
  8
0
 62
256
370
-1
 48
1.0
  6
ByLayer
100
AcDbDimension
 10
30.0
 20
80.0
 30
0.0
 11
30.0
 21
45.0
 31
0.0
 70
0
 71
8
 72
1
 74
0
 75
0
 41
1.0
 42
0.0
  1
\U+2300<>
  3
Standard
100
AcDbAlignedDimension
 13
40.0
 23
10.0
 33
0.0
 14
40.0000000000000071
 24
80.0
 34
0.0
 50
90.0
100
AcDbRotatedDimension
1001
ACAD
1000
DSTYLE
1002
{
1070
144
1040
1.0
1070
40
1040
1.0
1002
}
  0
DIMENSION
  5
128
100
AcDbEntity
  8
0
 62
256
370
-1
 48
1.0
  6
ByLayer
100
AcDbDimension
 10
50.0
 20
70.0000000000000142
 30
0.0
 11
50.0
 21
40.0
 31
0.0
 70
0
 71
8
 72
1
 74
0
 75
0
 41
1.0
 42
0.0
  1
text
  3
Standard
100
AcDbAlignedDimension
 13
60.0
 23
9.9999999999999947
 33
0.0
 14
60.0
 24
70.0000000000000142
 34
0.0
 50
90.0
100
AcDbRotatedDimension
1001
ACAD
1000
DSTYLE
1002
{
1070
144
1040
1.0
1070
40
1040
1.0
1002
}
  0
DIMENSION
  5
129
100
AcDbEntity
  8
0
 62
256
370
-1
 48
1.0
  6
ByLayer
100
AcDbDimension
 10
70.0
 20
59.9999999999999929
 30
0.0
 11
70.0
 21
34.9999999999999716
 31
0.0
 70
0
 71
8
 72
1
 74
0
 75
0
 41
1.0
 42
0.0
  1
\A1;<>\S0.01^ 0.02;
  3
Standard
100
AcDbAlignedDimension
 13
80.0
 23
9.9999999999999414
 33
0.0
 14
80.0
 24
59.9999999999999929
 34
0.0
 50
90.0
100
AcDbRotatedDimension
1001
ACAD
1000
DSTYLE
1002
{
1070
144
1040
1.0
1070
40
1040
1.0
1002
}
  0
ENDBLK
  5
12A
100
AcDbEntity
  8
0
100
AcDbBlockEnd
  0
BLOCK
  5
12B
100
AcDbEntity
  8
0
100
AcDbBlockBegin
  2
dim_angular_arc
 70
0
 10
0.0
 20
0.0
 30
0.0
  3
dim_angular_arc
  1

  0
DIMENSION
  5
12C
100
AcDbEntity
  8
0
 62
256
370
-1
 48
1.0
  6
ByLayer
100
AcDbDimension
 10
61.7157287525381122
 20
38.2842712474619233
 30
0.0
 11
77.0140103481010101
 21
41.3509523384512718
 31
0.0
 70
2
 71
8
 72
1
 74
0
 75
0
 41
1.0
 42
0.0
  1
text
  3
Standard
100
AcDb2LineAngularDimension
 13
90.0
 23
10.0000000000000906
 33
0.0
 14
90.0
 24
50.0000000000000071
 34
0.0
 15
90.0
 25
10.0000000000000906
 35
0.0
 16
81.2172277209816258
 26
42.777752376604127
 36
0.0
  0
DIMENSION
  5
12D
100
AcDbEntity
  8
0
 62
256
370
-1
 48
1.0
  6
ByLayer
100
AcDbDimension
 10
81.0557280900008408
 20
27.8885438199983184
 30
0.0
 11
75.9980095999999747
 21
19.3764992000000298
 31
0.0
 70
130
 71
8
 72
1
 74
0
 75
0
 41
1.0
 42
0.0
  1
\A1;<>\S0.01^ 0.02;
  3
Standard
100
AcDb2LineAngularDimension
 13
90.0
 23
10.0000000000000906
 33
0.0
 14
90.0
 24
29.9999999999999787
 34
0.0
 15
90.0
 25
10.0000000000000906
 35
0.0
 16
87.9467394191065353
 26
23.1795361089202707
 36
0.0
  0
ARC
  5
12E
100
AcDbEntity
  8
0
 62
256
370
-1
 48
1.0
  6
ByLayer
100
AcDbCircle
 10
90.0
 20
10.0
 30
0.0
 40
80.0
100
AcDbArc
 50
90.0
 51
180.0
  0
ARC
  5
12F
100
AcDbEntity
  8
0
 62
256
370
-1
 48
1.0
  6
ByLayer
100
AcDbCircle
 10
90.0
 20
10.0
 30
0.0
 40
60.0
100
AcDbArc
 50
90.0
 51
170.5376777919744029
  0
ARC
  5
130
100
AcDbEntity
  8
0
 62
256
370
-1
 48
1.0
  6
ByLayer
100
AcDbCircle
 10
90.0
 20
10.0
 30
0.0
 40
40.0
100
AcDbArc
 50
90.0
 51
135.0
  0
ARC
  5
131
100
AcDbEntity
  8
0
 62
256
370
-1
 48
1.0
  6
ByLayer
100
AcDbCircle
 10
90.0
 20
10.0
 30
0.0
 40
20.0
100
AcDbArc
 50
90.0
 51
116.5650511770780327
  0
DIMENSION
  5
132
100
AcDbEntity
  8
0
 62
256
370
-1
 48
1.0
  6
ByLayer
100
AcDbDimension
 10
10.0
 20
10.0000000000000107
 30
0.0
 11
38.5484368398288098
 21
61.4515631601712968
 31
0.0
 70
2
 71
8
 72
1
 74
0
 75
0
 41
1.0
 42
0.0
  1

  3
Standard
100
AcDb2LineAngularDimension
 13
90.0
 23
10.0000000000000906
 33
0.0
 14
90.0
 24
90.0000000000000142
 34
0.0
 15
90.0
 25
10.0000000000000906
 35
0.0
 16
53.6182507867949667
 26
73.0150381055001674
 36
0.0
  0
DIMENSION
  5
133
100
AcDbEntity
  8
0
 62
256
370
-1
 48
1.0
  6
ByLayer
100
AcDbDimension
 10
30.8163645700713786
 20
19.8639392383214215
 30
0.0
 11
55.6199350049289194
 21
50.5843060227177972
 31
0.0
 70
2
 71
8
 72
1
 74
0
 75
0
 41
1.0
 42
0.0
  1
\U+2300<>
  3
Standard
100
AcDb2LineAngularDimension
 13
90.0
 23
10.0000000000000906
 33
0.0
 14
90.0
 24
69.9999999999999858
 34
0.0
 15
90.0
 25
10.0000000000000906
 35
0.0
 16
65.980233797180361
 26
57.4565653621583081
 36
0.0
  0
ENDBLK
  5
134
100
AcDbEntity
  8
0
100
AcDbBlockEnd
  0
ENDSEC
  0
SECTION
  2
ENTITIES
  0
INSERT
  5
135
100
AcDbEntity
  8
entities
 62
256
370
-1
 48
1.0
  6
ByLayer
100
AcDbBlockReference
  2
spline_cp_3deg_closed
 10
25.0
 20
875.0
 30
0.0
  0
ENDSEC
  0
SECTION
  2
OBJECTS
  0
DICTIONARY
  5
C
100
AcDbDictionary
280
0
281
1
  3
ACAD_GROUP
350
D
  3
ACAD_LAYOUT
350
1A
  3
ACAD_MLINESTYLE
350
17
  3
ACAD_PLOTSETTINGS
350
19
  3
ACAD_PLOTSTYLENAME
350
E
  3
AcDbVariableDictionary
350
136
  3
QCAD_OBJECTS
350
137
  0
DICTIONARY
  5
D
100
AcDbDictionary
280
0
281
1
  0
ACDBDICTIONARYWDFLT
  5
E
100
AcDbDictionary
281
1
  3
Normal
350
F
100
AcDbDictionaryWithDefault
340
F
  0
ACDBPLACEHOLDER
  5
F
  0
DICTIONARY
  5
17
100
AcDbDictionary
280
0
281
1
  3
Standard
350
18
  0
MLINESTYLE
  5
18
100
AcDbMlineStyle
  2
STANDARD
 70
0
  3

 62
256
 51
90.0
 52
90.0
 71
2
 49
0.5
 62
256
  6
BYLAYER
 49
-0.5
 62
256
  6
BYLAYER
  0
DICTIONARY
  5
19
100
AcDbDictionary
280
0
281
1
  0
DICTIONARY
  5
1A
100
AcDbDictionary
281
1
  3
Layout1
350
1E
  3
Layout2
350
26
  3
Model
350
22
  0
LAYOUT
  5
1E
100
AcDbPlotSettings
  1

  2
none_device
  4

  6

 40
0.0
 41
0.0
 42
0.0
 43
0.0
 44
0.0
 45
0.0
 46
0.0
 47
0.0
 48
0.0
 49
0.0
140
0.0
141
0.0
142
1.0
143
1.0
 70
688
 72
0
 73
0
 74
5
  7

 75
16
147
1.0
148
0.0
149
0.0
100
AcDbLayout
  1
Layout1
 70
1
 71
1
 10
0.0
 20
0.0
 11
420.0
 21
297.0
 12
0.0
 22
0.0
 32
0.0
 14
100000000000000000000.0
 24
100000000000000000000.0
 34
100000000000000000000.0
 15
-100000000000000000000.0
 25
-100000000000000000000.0
 35
-100000000000000000000.0
146
0.0
 13
0.0
 23
0.0
 33
0.0
 16
1.0
 26
0.0
 36
0.0
 17
0.0
 27
1.0
 37
0.0
 76
0
330
1B
  0
LAYOUT
  5
22
100
AcDbPlotSettings
  1

  2
none_device
  4

  6

 40
0.0
 41
0.0
 42
0.0
 43
0.0
 44
0.0
 45
0.0
 46
0.0
 47
0.0
 48
0.0
 49
0.0
140
0.0
141
0.0
142
1.0
143
1.0
 70
1712
 72
0
 73
0
 74
0
  7

 75
0
147
1.0
148
0.0
149
0.0
100
AcDbLayout
  1
Model
 70
1
 71
0
 10
0.0
 20
0.0
 11
12.0
 21
9.0
 12
0.0
 22
0.0
 32
0.0
 14
0.0
 24
0.0
 34
0.0
 15
0.0
 25
0.0
 35
0.0
146
0.0
 13
0.0
 23
0.0
 33
0.0
 16
1.0
 26
0.0
 36
0.0
 17
0.0
 27
1.0
 37
0.0
 76
0
330
1F
  0
LAYOUT
  5
26
100
AcDbPlotSettings
  1

  2
none_device
  4

  6

 40
0.0
 41
0.0
 42
0.0
 43
0.0
 44
0.0
 45
0.0
 46
0.0
 47
0.0
 48
0.0
 49
0.0
140
0.0
141
0.0
142
1.0
143
1.0
 70
688
 72
0
 73
0
 74
5
  7

 75
16
147
1.0
148
0.0
149
0.0
100
AcDbLayout
  1
Layout2
 70
1
 71
2
 10
0.0
 20
0.0
 11
12.0
 21
9.0
 12
0.0
 22
0.0
 32
0.0
 14
0.0
 24
0.0
 34
0.0
 15
0.0
 25
0.0
 35
0.0
146
0.0
 13
0.0
 23
0.0
 33
0.0
 16
1.0
 26
0.0
 36
0.0
 17
0.0
 27
1.0
 37
0.0
 76
0
330
23
  0
DICTIONARY
  5
136
100
AcDbDictionary
281
1
  3
DIMASSOC
350
139
  3
HIDETEXT
350
138
  0
DICTIONARYVAR
  5
138
100
DictionaryVariables
280
0
  1
2
  0
DICTIONARYVAR
  5
139
100
DictionaryVariables
280
0
  1
1
  0
DICTIONARY
  5
137
100
AcDbDictionary
281
1
  3
ColorSettings/BackgroundColor
350
13A
  3
ColorSettings/ColorMode
350
13B
  3
Grid/DisplayGrid
350
13C
  3
Grid/DisplayGrid00
350
13D
  3
Grid/DisplayGrid01
350
13E
  3
Grid/DisplayGrid02
350
13F
  3
Grid/DisplayGrid03
350
140
  3
Grid/GridSpacingX
350
141
  3
Grid/GridSpacingX00
350
142
  3
Grid/GridSpacingX01
350
143
  3
Grid/GridSpacingX02
350
144
  3
Grid/GridSpacingX03
350
145
  3
Grid/GridSpacingY
350
146
  3
Grid/GridSpacingY00
350
147
  3
Grid/GridSpacingY01
350
148
  3
Grid/GridSpacingY02
350
149
  3
Grid/GridSpacingY03
350
14A
  3
Grid/IsometricGrid00
350
14B
  3
Grid/IsometricGrid01
350
14C
  3
Grid/IsometricGrid02
350
14D
  3
Grid/IsometricGrid03
350
14E
  3
Grid/IsometricProjection00
350
14F
  3
Grid/IsometricProjection01
350
150
  3
Grid/IsometricProjection02
350
151
  3
Grid/IsometricProjection03
350
152
  3
Grid/MetaGridSpacingX
350
153
  3
Grid/MetaGridSpacingX00
350
154
  3
Grid/MetaGridSpacingX01
350
155
  3
Grid/MetaGridSpacingX02
350
156
  3
Grid/MetaGridSpacingX03
350
157
  3
Grid/MetaGridSpacingY
350
158
  3
Grid/MetaGridSpacingY00
350
159
  3
Grid/MetaGridSpacingY01
350
15A
  3
Grid/MetaGridSpacingY02
350
15B
  3
Grid/MetaGridSpacingY03
350
15C
  3
MultiPageSettings/Columns
350
15D
  3
MultiPageSettings/GlueMarginBottom
350
15E
  3
MultiPageSettings/GlueMarginsBottom
350
15F
  3
MultiPageSettings/GlueMarginsLeft
350
160
  3
MultiPageSettings/GlueMarginsRight
350
161
  3
MultiPageSettings/GlueMarginsTop
350
162
  3
MultiPageSettings/PrintCropMarks
350
163
  3
MultiPageSettings/Rows
350
164
  3
PageSettings/OffsetX
350
165
  3
PageSettings/OffsetY
350
166
  3
PageSettings/PageOrientation
350
167
  3
PageSettings/PaperHeight
350
168
  3
PageSettings/PaperWidth
350
169
  3
PageSettings/Scale
350
16A
  3
PageSettings/ShowPaperBorders
350
16B
  3
PageTagSettings/EnablePageTags
350
16C
  3
PageTagSettings/TagAlignment
350
16D
  3
PageTagSettings/TagFont
350
16E
  3
PageTagSettings/TagPosition
350
16F
  3
UnitSettings/PaperUnit
350
170
  3
ViewportCenter
350
171
  3
ViewportHeight
350
172
  3
ViewportWidth
350
173
  0
XRECORD
  5
13A
330
137
100
AcDbXrecord
280
1
1000
White
  0
XRECORD
  5
13B
330
137
100
AcDbXrecord
280
1
1000
FullColor
  0
XRECORD
  5
13C
330
137
100
AcDbXrecord
280
1
290
1
  0
XRECORD
  5
13D
330
137
100
AcDbXrecord
280
1
290
1
  0
XRECORD
  5
13E
330
137
100
AcDbXrecord
280
1
290
1
  0
XRECORD
  5
13F
330
137
100
AcDbXrecord
280
1
290
1
  0
XRECORD
  5
140
330
137
100
AcDbXrecord
280
1
290
1
  0
XRECORD
  5
141
330
137
100
AcDbXrecord
280
1
1000
auto
  0
XRECORD
  5
142
330
137
100
AcDbXrecord
280
1
1000
auto
  0
XRECORD
  5
143
330
137
100
AcDbXrecord
280
1
1000
auto
  0
XRECORD
  5
144
330
137
100
AcDbXrecord
280
1
1000
auto
  0
XRECORD
  5
145
330
137
100
AcDbXrecord
280
1
1000
auto
  0
XRECORD
  5
146
330
137
100
AcDbXrecord
280
1
1000
auto
  0
XRECORD
  5
147
330
137
100
AcDbXrecord
280
1
1000
auto
  0
XRECORD
  5
148
330
137
100
AcDbXrecord
280
1
1000
auto
  0
XRECORD
  5
149
330
137
100
AcDbXrecord
280
1
1000
auto
  0
XRECORD
  5
14A
330
137
100
AcDbXrecord
280
1
1000
auto
  0
XRECORD
  5
14B
330
137
100
AcDbXrecord
280
1
290
0
  0
XRECORD
  5
14C
330
137
100
AcDbXrecord
280
1
290
0
  0
XRECORD
  5
14D
330
137
100
AcDbXrecord
280
1
290
0
  0
XRECORD
  5
14E
330
137
100
AcDbXrecord
280
1
290
0
  0
XRECORD
  5
14F
330
137
100
AcDbXrecord
280
1
 90
65537
  0
XRECORD
  5
150
330
137
100
AcDbXrecord
280
1
 90
65537
  0
XRECORD
  5
151
330
137
100
AcDbXrecord
280
1
 90
65537
  0
XRECORD
  5
152
330
137
100
AcDbXrecord
280
1
 90
65537
  0
XRECORD
  5
153
330
137
100
AcDbXrecord
280
1
1000
auto
  0
XRECORD
  5
154
330
137
100
AcDbXrecord
280
1
1000
auto
  0
XRECORD
  5
155
330
137
100
AcDbXrecord
280
1
1000
auto
  0
XRECORD
  5
156
330
137
100
AcDbXrecord
280
1
1000
auto
  0
XRECORD
  5
157
330
137
100
AcDbXrecord
280
1
1000
auto
  0
XRECORD
  5
158
330
137
100
AcDbXrecord
280
1
1000
auto
  0
XRECORD
  5
159
330
137
100
AcDbXrecord
280
1
1000
auto
  0
XRECORD
  5
15A
330
137
100
AcDbXrecord
280
1
1000
auto
  0
XRECORD
  5
15B
330
137
100
AcDbXrecord
280
1
1000
auto
  0
XRECORD
  5
15C
330
137
100
AcDbXrecord
280
1
1000
auto
  0
XRECORD
  5
15D
330
137
100
AcDbXrecord
280
1
 90
1
  0
XRECORD
  5
15E
330
137
100
AcDbXrecord
280
1
 40
10.0
  0
XRECORD
  5
15F
330
137
100
AcDbXrecord
280
1
 40
10.0
  0
XRECORD
  5
160
330
137
100
AcDbXrecord
280
1
 40
10.0
  0
XRECORD
  5
161
330
137
100
AcDbXrecord
280
1
 40
10.0
  0
XRECORD
  5
162
330
137
100
AcDbXrecord
280
1
 40
10.0
  0
XRECORD
  5
163
330
137
100
AcDbXrecord
280
1
290
0
  0
XRECORD
  5
164
330
137
100
AcDbXrecord
280
1
 90
1
  0
XRECORD
  5
165
330
137
100
AcDbXrecord
280
1
 40
-150.0
  0
XRECORD
  5
166
330
137
100
AcDbXrecord
280
1
 40
-232.5
  0
XRECORD
  5
167
330
137
100
AcDbXrecord
280
1
1000
Portrait
  0
XRECORD
  5
168
330
137
100
AcDbXrecord
280
1
 40
297.0
  0
XRECORD
  5
169
330
137
100
AcDbXrecord
280
1
 40
210.0
  0
XRECORD
  5
16A
330
137
100
AcDbXrecord
280
1
1000
1:5
  0
XRECORD
  5
16B
330
137
100
AcDbXrecord
280
1
290
1
  0
XRECORD
  5
16C
330
137
100
AcDbXrecord
280
1
290
0
  0
XRECORD
  5
16D
330
137
100
AcDbXrecord
280
1
1000
Inside
  0
XRECORD
  5
16E
330
137
100
AcDbXrecord
280
1
1000
Arial,10,-1,5,50,0,0,0,0,0
  0
XRECORD
  5
16F
330
137
100
AcDbXrecord
280
1
1000
TopLeft
  0
XRECORD
  5
170
330
137
100
AcDbXrecord
280
1
 90
4
  0
XRECORD
  5
172
330
137
100
AcDbXrecord
280
1
 40
247.4828015432907478
  0
XRECORD
  5
173
330
137
100
AcDbXrecord
280
1
 40
491.8677655151077488
  0
ENDSEC
  0
EOF
