999
dxflib 3.26.4.0
  0
SECTION
  2
HEADER
  9
$ACADVER
  1
AC1015
  9
$HANDSEED
  5
FFFF
  9
$ANGBASE
 50
0.0
  9
$ANGDIR
 70
0
  9
$ATTMODE
 70
1
  9
$AUNITS
 70
0
  9
$AUPREC
 70
0
  9
$CECOLOR
 62
256
  9
$CELTSCALE
 40
1.0
  9
$CHAMFERA
 40
0.5
  9
$CHAMFERB
 40
0.5
  9
$CHAMFERC
 40
1.0
  9
$CHAMFERD
 40
0.0
  9
$CMLJUST
 70
0
  9
$CMLSCALE
 40
1.0
  9
$DIMADEC
 70
0
  9
$DIMALT
 70
0
  9
$DIMALTD
 70
2
  9
$DIMALTF
 40
25.3999999999999986
  9
$DIMALTRND
 40
0.0
  9
$DIMALTTD
 70
2
  9
$DIMALTTZ
 70
0
  9
$DIMALTU
 70
2
  9
$DIMALTZ
 70
0
  9
$DIMAPOST
  1

  9
$DIMASZ
 40
0.18
  9
$DIMATFIT
 70
3
  9
$DIMAUNIT
 70
0
  9
$DIMAZIN
 70
0
  9
$DIMBLK
  1
0
  9
$DIMBLK1
  1
0
  9
$DIMBLK2
  1
0
  9
$DIMCEN
 40
0.09
  9
$DIMCLRD
 70
0
  9
$DIMCLRE
 70
0
  9
$DIMDEC
 70
4
  9
$DIMDLE
 40
0.0
  9
$DIMDLI
 40
0.38
  9
$DIMDSEP
 70
46
  9
$DIMEXE
 40
0.18
  9
$DIMEXO
 40
0.0625
  9
$DIMFRAC
 70
0
  9
$DIMGAP
 40
0.09
  9
$DIMJUST
 70
0
  9
$DIMLDRBLK
  1

  9
$DIMLFAC
 40
1.0
  9
$DIMLIM
 70
0
  9
$DIMLUNIT
 70
2
  9
$DIMLWD
 70
-2
  9
$DIMLWE
 70
-2
  9
$DIMPOST
  1

  9
$DIMRND
 40
0.0
  9
$DIMSAH
 70
0
  9
$DIMSCALE
 40
1.0
  9
$DIMSD1
 70
0
  9
$DIMSD2
 70
0
  9
$DIMSE1
 70
0
  9
$DIMSE2
 70
0
  9
$DIMSOXD
 70
0
  9
$DIMTAD
 70
0
  9
$DIMTDEC
 70
4
  9
$DIMTFAC
 40
1.0
  9
$DIMTIH
 70
1
  9
$DIMTIX
 70
0
  9
$DIMTM
 40
0.0
  9
$DIMTOFL
 70
0
  9
$DIMTOH
 70
1
  9
$DIMTOL
 70
0
  9
$DIMTOLJ
 70
1
  9
$DIMTP
 40
0.0
  9
$DIMTSZ
 40
0.0
  9
$DIMTVP
 40
0.0
  9
$DIMTXSTY
  7
Standard
  9
$DIMTXT
 40
0.18
  9
$DIMTZIN
 70
0
  9
$DIMUPT
 70
0
  9
$DIMZIN
 70
0
  9
$DISPSILH
 70
0
  9
$DWGCODEPAGE
  3
ANSI_1252
  9
$ELEVATION
 40
0.0
  9
$EXTMAX
 10
-252.4980999999999938
 20
22.7478000000000016
 30
0.0
  9
$EXTMIN
 10
-334.6893000000000029
 20
-22.976700000000001
 30
0.0
  9
$FILLETRAD
 40
0.5
  9
$FILLMODE
 70
1
  9
$INSBASE
 10
0.0
 20
0.0
 30
0.0
  9
$INSUNITS
 70
4
  9
$LIMCHECK
 70
0
  9
$LIMMAX
 10
12.0
 20
9.0
  9
$LIMMIN
 10
0.0
 20
0.0
  9
$LTSCALE
 40
1.0
  9
$LUNITS
 70
2
  9
$LUPREC
 70
4
  9
$MAXACTVP
 70
64
  9
$MEASUREMENT
 70
0
  9
$MIRRTEXT
 70
1
  9
$ORTHOMODE
 70
0
  9
$PDMODE
 70
0
  9
$PDSIZE
 40
0.0
  9
$PELEVATION
 40
0.0
  9
$PEXTMAX
 10
-100000000000000000000.0
 20
-100000000000000000000.0
 30
-100000000000000000000.0
  9
$PEXTMIN
 10
100000000000000000000.0
 20
100000000000000000000.0
 30
100000000000000000000.0
  9
$PINSBASE
 10
0.0
 20
0.0
 30
0.0
  9
$PLIMCHECK
 70
0
  9
$PLIMMAX
 10
12.0
 20
9.0
  9
$PLIMMIN
 10
0.0
 20
0.0
  9
$PLINEGEN
 70
0
  9
$PLINEWID
 40
0.0
  9
$PROXYGRAPHICS
 70
1
  9
$PSLTSCALE
 70
1
  9
$PUCSNAME
  2

  9
$PUCSORG
 10
0.0
 20
0.0
 30
0.0
  9
$PUCSXDIR
 10
1.0
 20
0.0
 30
0.0
  9
$PUCSYDIR
 10
0.0
 20
1.0
 30
0.0
  9
$QTEXTMODE
 70
0
  9
$REGENMODE
 70
1
  9
$SHADEDGE
 70
3
  9
$SHADEDIF
 70
70
  9
$SKETCHINC
 40
0.1
  9
$SKPOLY
 70
0
  9
$SPLFRAME
 70
0
  9
$SPLINESEGS
 70
8
  9
$SPLINETYPE
 70
6
  9
$SURFTAB1
 70
6
  9
$SURFTAB2
 70
6
  9
$SURFTYPE
 70
6
  9
$SURFU
 70
6
  9
$SURFV
 70
6
  9
$TEXTSIZE
 40
0.2
  9
$TEXTSTYLE
  7
Standard
  9
$THICKNESS
 40
0.0
  9
$TILEMODE
 70
1
  9
$TRACEWID
 40
0.05
  9
$TREEDEPTH
 70
3020
  9
$UCSNAME
  2

  9
$UCSORG
 10
0.0
 20
0.0
 30
0.0
  9
$UCSXDIR
 10
1.0
 20
0.0
 30
0.0
  9
$UCSYDIR
 10
0.0
 20
1.0
 30
0.0
  9
$UNITMODE
 70
0
  9
$USERI1
 70
0
  9
$USERI2
 70
0
  9
$USERI3
 70
0
  9
$USERI4
 70
0
  9
$USERI5
 70
0
  9
$USERR1
 40
0.0
  9
$USERR2
 40
0.0
  9
$USERR3
 40
0.0
  9
$USERR4
 40
0.0
  9
$USERR5
 40
0.0
  9
$USRTIMER
 70
1
  9
$VISRETAIN
 70
1
  0
ENDSEC
  0
SECTION
  2
TABLES
  0
TABLE
  2
VPORT
  5
8
100
AcDbSymbolTable
 70
1
  0
VPORT
  5
30
100
AcDbSymbolTableRecord
100
AcDbViewportTableRecord
  2
*Active
 70
0
 10
0.0
 20
0.0
 11
1.0
 21
1.0
 12
286.3055555555554861
 22
148.5
 13
0.0
 23
0.0
 14
10.0
 24
10.0
 15
10.0
 25
10.0
 16
0.0
 26
0.0
 36
1.0
 17
0.0
 27
0.0
 37
0.0
 40
297.0
 41
1.92798353909465
 42
50.0
 43
0.0
 44
0.0
 50
0.0
 51
0.0
 71
0
 72
100
 73
1
 74
3
 75
1
 76
1
 77
0
 78
0
281
0
 65
1
110
0.0
120
0.0
130
0.0
111
1.0
121
0.0
131
0.0
112
0.0
122
1.0
132
0.0
 79
0
146
0.0
  0
ENDTAB
  0
TABLE
  2
LTYPE
  5
5
100
AcDbSymbolTable
 70
41
  0
LTYPE
  5
16
100
AcDbSymbolTableRecord
100
AcDbLinetypeTableRecord
  2
Continuous
 70
0
  3
Solid line
 72
65
 73
0
 40
0.0
  0
LTYPE
  5
31
100
AcDbSymbolTableRecord
100
AcDbLinetypeTableRecord
  2
ACAD_ISO10W100
 70
0
  3
ISO dash dot __ . __ . __ . __ . __ . __ . __ . 
 72
65
 73
4
 40
18.0
 49
12.0
 74
0
 49
-3.0
 74
0
 49
0.0
 74
0
 49
-3.0
 74
0
  0
LTYPE
  5
32
100
AcDbSymbolTableRecord
100
AcDbLinetypeTableRecord
  2
DASHEDX2
 70
0
  3
Dashed (2x) ____  ____  ____  ____  ____  ___
 72
65
 73
2
 40
38.0999999999999943
 49
25.3999999999999986
 74
0
 49
-12.6999999999999993
 74
0
  0
LTYPE
  5
33
100
AcDbSymbolTableRecord
100
AcDbLinetypeTableRecord
  2
CENTER2
 70
0
  3
Center (.5x) ___ _ ___ _ ___ _ ___ _ ___ _ ___
 72
65
 73
4
 40
28.5750000000000028
 49
19.0500000000000007
 74
0
 49
-3.1749999999999998
 74
0
 49
3.1749999999999998
 74
0
 49
-3.1749999999999998
 74
0
  0
LTYPE
  5
34
100
AcDbSymbolTableRecord
100
AcDbLinetypeTableRecord
  2
DASHDOTX2
 70
0
  3
Dash dot (2x) ____  .  ____  .  ____  .  ___
 72
65
 73
4
 40
50.7999999999999972
 49
25.3999999999999986
 74
0
 49
-12.6999999999999993
 74
0
 49
0.0
 74
0
 49
-12.6999999999999993
 74
0
  0
LTYPE
  5
35
100
AcDbSymbolTableRecord
100
AcDbLinetypeTableRecord
  2
DASHED
 70
0
  3
Dashed __ __ __ __ __ __ __ __ __ __ __ __ __ _
 72
65
 73
2
 40
19.0499999999999972
 49
12.6999999999999993
 74
0
 49
-6.3499999999999996
 74
0
  0
LTYPE
  5
36
100
AcDbSymbolTableRecord
100
AcDbLinetypeTableRecord
  2
DASHED2
 70
0
  3
Dashed (.5x) _ _ _ _ _ _ _ _ _ _ _ _ _ _ _ _ _ 
 72
65
 73
2
 40
9.5249999999999986
 49
6.3499999999999996
 74
0
 49
-3.1749999999999998
 74
0
  0
LTYPE
  5
15
100
AcDbSymbolTableRecord
100
AcDbLinetypeTableRecord
  2
ByLayer
 70
0
  3

 72
65
 73
0
 40
0.0
  0
LTYPE
  5
37
100
AcDbSymbolTableRecord
100
AcDbLinetypeTableRecord
  2
HIDDEN2
 70
0
  3
Hidden (.5x) _ _ _ _ _ _ _ _ _ _ _ _ _ _ _ _ _ 
 72
65
 73
2
 40
4.7624999999999993
 49
3.1749999999999998
 74
0
 49
-1.5874999999999999
 74
0
  0
LTYPE
  5
38
100
AcDbSymbolTableRecord
100
AcDbLinetypeTableRecord
  2
BORDER
 70
0
  3
Border __ __ . __ __ . __ __ . __ __ . __ __ .
 72
65
 73
6
 40
44.4499999999999957
 49
12.6999999999999993
 74
0
 49
-6.3499999999999996
 74
0
 49
12.6999999999999993
 74
0
 49
-6.3499999999999996
 74
0
 49
0.0
 74
0
 49
-6.3499999999999996
 74
0
  0
LTYPE
  5
39
100
AcDbSymbolTableRecord
100
AcDbLinetypeTableRecord
  2
HIDDEN
 70
0
  3
Hidden __ __ __ __ __ __ __ __ __ __ __ __ __ __
 72
65
 73
2
 40
9.5249999999999986
 49
6.3499999999999996
 74
0
 49
-3.1749999999999998
 74
0
  0
LTYPE
  5
3A
100
AcDbSymbolTableRecord
100
AcDbLinetypeTableRecord
  2
DIVIDE
 70
0
  3
Divide ____ . . ____ . . ____ . . ____ . . ____
 72
65
 73
6
 40
31.75
 49
12.6999999999999993
 74
0
 49
-6.3499999999999996
 74
0
 49
0.0
 74
0
 49
-6.3499999999999996
 74
0
 49
0.0
 74
0
 49
-6.3499999999999996
 74
0
  0
LTYPE
  5
3B
100
AcDbSymbolTableRecord
100
AcDbLinetypeTableRecord
  2
PHANTOM2
 70
0
  3
Phantom (.5x) ___ _ _ ___ _ _ ___ _ _ ___ _ _
 72
65
 73
6
 40
31.7500000000000036
 49
15.875
 74
0
 49
-3.1749999999999998
 74
0
 49
3.1749999999999998
 74
0
 49
-3.1749999999999998
 74
0
 49
3.1749999999999998
 74
0
 49
-3.1749999999999998
 74
0
  0
LTYPE
  5
3C
100
AcDbSymbolTableRecord
100
AcDbLinetypeTableRecord
  2
BORDERX2
 70
0
  3
Border (2x) ____  ____  .  ____  ____  .  ___
 72
65
 73
6
 40
88.8999999999999915
 49
25.3999999999999986
 74
0
 49
-12.6999999999999993
 74
0
 49
25.3999999999999986
 74
0
 49
-12.6999999999999993
 74
0
 49
0.0
 74
0
 49
-12.6999999999999993
 74
0
  0
LTYPE
  5
3D
100
AcDbSymbolTableRecord
100
AcDbLinetypeTableRecord
  2
HIDDENX2
 70
0
  3
Hidden (2x) ____ ____ ____ ____ ____ ____ ____ 
 72
65
 73
2
 40
19.0499999999999972
 49
12.6999999999999993
 74
0
 49
-6.3499999999999996
 74
0
  0
LTYPE
  5
3E
100
AcDbSymbolTableRecord
100
AcDbLinetypeTableRecord
  2
ACAD_ISO07W100
 70
0
  3
ISO dot . . . . . . . . . . . . . . . . . . . . 
 72
65
 73
2
 40
3.0
 49
0.0
 74
0
 49
-3.0
 74
0
  0
LTYPE
  5
3F
100
AcDbSymbolTableRecord
100
AcDbLinetypeTableRecord
  2
ACAD_ISO05W100
 70
0
  3
ISO long-dash double-dot ____ .. ____ .. ____ . 
 72
65
 73
6
 40
33.0
 49
24.0
 74
0
 49
-3.0
 74
0
 49
0.0
 74
0
 49
-3.0
 74
0
 49
0.0
 74
0
 49
-3.0
 74
0
  0
LTYPE
  5
40
100
AcDbSymbolTableRecord
100
AcDbLinetypeTableRecord
  2
ACAD_ISO15W100
 70
0
  3
ISO double-dash triple-dot __ __ . . . __ __ . .
 72
65
 73
10
 40
39.0
 49
12.0
 74
0
 49
-3.0
 74
0
 49
12.0
 74
0
 49
-3.0
 74
0
 49
0.0
 74
0
 49
-3.0
 74
0
 49
0.0
 74
0
 49
-3.0
 74
0
 49
0.0
 74
0
 49
-3.0
 74
0
  0
LTYPE
  5
41
100
AcDbSymbolTableRecord
100
AcDbLinetypeTableRecord
  2
ACAD_ISO04W100
 70
0
  3
ISO long-dash dot ____ . ____ . ____ . ____ . _
 72
65
 73
4
 40
30.0
 49
24.0
 74
0
 49
-3.0
 74
0
 49
0.0
 74
0
 49
-3.0
 74
0
  0
LTYPE
  5
42
100
AcDbSymbolTableRecord
100
AcDbLinetypeTableRecord
  2
BORDER2
 70
0
  3
Border (.5x) __.__.__.__.__.__.__.__.__.__.__.
 72
65
 73
6
 40
22.2249999999999979
 49
6.3499999999999996
 74
0
 49
-3.1749999999999998
 74
0
 49
6.3499999999999996
 74
0
 49
-3.1749999999999998
 74
0
 49
0.0
 74
0
 49
-3.1749999999999998
 74
0
  0
LTYPE
  5
43
100
AcDbSymbolTableRecord
100
AcDbLinetypeTableRecord
  2
ACAD_ISO09W100
 70
0
  3
ISO long-dash double-short-dash ____ __ __ ____
 72
65
 73
6
 40
45.0
 49
24.0
 74
0
 49
-3.0
 74
0
 49
6.0
 74
0
 49
-3.0
 74
0
 49
6.0
 74
0
 49
-3.0
 74
0
  0
LTYPE
  5
44
100
AcDbSymbolTableRecord
100
AcDbLinetypeTableRecord
  2
DIVIDEX2
 70
0
  3
Divide (2x) ________  .  .  ________  .  .  _
 72
65
 73
6
 40
63.5
 49
25.3999999999999986
 74
0
 49
-12.6999999999999993
 74
0
 49
0.0
 74
0
 49
-12.6999999999999993
 74
0
 49
0.0
 74
0
 49
-12.6999999999999993
 74
0
  0
LTYPE
  5
45
100
AcDbSymbolTableRecord
100
AcDbLinetypeTableRecord
  2
DASHDOT
 70
0
  3
Dash dot __ . __ . __ . __ . __ . __ . __ . __
 72
65
 73
4
 40
25.3999999999999986
 49
12.6999999999999993
 74
0
 49
-6.3499999999999996
 74
0
 49
0.0
 74
0
 49
-6.3499999999999996
 74
0
  0
LTYPE
  5
46
100
AcDbSymbolTableRecord
100
AcDbLinetypeTableRecord
  2
DOTX2
 70
0
  3
Dot (2x) .  .  .  .  .  .  .  .  .  .  .  .  .  .
 72
65
 73
2
 40
12.6999999999999993
 49
0.0
 74
0
 49
-12.6999999999999993
 74
0
  0
LTYPE
  5
47
100
AcDbSymbolTableRecord
100
AcDbLinetypeTableRecord
  2
DASHDOT2
 70
0
  3
Dash dot (.5x) _._._._._._._._._._._._._._._.
 72
65
 73
4
 40
12.6999999999999993
 49
6.3499999999999996
 74
0
 49
-3.1749999999999998
 74
0
 49
0.0
 74
0
 49
-3.1749999999999998
 74
0
  0
LTYPE
  5
48
100
AcDbSymbolTableRecord
100
AcDbLinetypeTableRecord
  2
PHANTOM
 70
0
  3
Phantom ______  __  __  ______  __  __  ______ 
 72
65
 73
6
 40
63.5000000000000071
 49
31.75
 74
0
 49
-6.3499999999999996
 74
0
 49
6.3499999999999996
 74
0
 49
-6.3499999999999996
 74
0
 49
6.3499999999999996
 74
0
 49
-6.3499999999999996
 74
0
  0
LTYPE
  5
49
100
AcDbSymbolTableRecord
100
AcDbLinetypeTableRecord
  2
ACAD_ISO13W100
 70
0
  3
ISO double-dash double-dot __ __ . . __ __ . . _
 72
65
 73
8
 40
36.0
 49
12.0
 74
0
 49
-3.0
 74
0
 49
12.0
 74
0
 49
-3.0
 74
0
 49
0.0
 74
0
 49
-3.0
 74
0
 49
0.0
 74
0
 49
-3.0
 74
0
  0
LTYPE
  5
4A
100
AcDbSymbolTableRecord
100
AcDbLinetypeTableRecord
  2
DOT2
 70
0
  3
Dot (.5x) ........................................
 72
65
 73
2
 40
3.1749999999999998
 49
0.0
 74
0
 49
-3.1749999999999998
 74
0
  0
LTYPE
  5
4B
100
AcDbSymbolTableRecord
100
AcDbLinetypeTableRecord
  2
ACAD_ISO12W100
 70
0
  3
ISO dash double-dot __ . . __ . . __ . . __ . . 
 72
65
 73
6
 40
21.0
 49
12.0
 74
0
 49
-3.0
 74
0
 49
0.0
 74
0
 49
-3.0
 74
0
 49
0.0
 74
0
 49
-3.0
 74
0
  0
LTYPE
  5
4C
100
AcDbSymbolTableRecord
100
AcDbLinetypeTableRecord
  2
ACAD_ISO06W100
 70
0
  3
ISO long-dash triple-dot ____ ... ____ ... ____
 72
65
 73
8
 40
36.0
 49
24.0
 74
0
 49
-3.0
 74
0
 49
0.0
 74
0
 49
-3.0
 74
0
 49
0.0
 74
0
 49
-3.0
 74
0
 49
0.0
 74
0
 49
-3.0
 74
0
  0
LTYPE
  5
14
100
AcDbSymbolTableRecord
100
AcDbLinetypeTableRecord
  2
ByBlock
 70
0
  3

 72
65
 73
0
 40
0.0
  0
LTYPE
  5
4D
100
AcDbSymbolTableRecord
100
AcDbLinetypeTableRecord
  2
PHANTOMX2
 70
0
  3
Phantom (2x) ____________    ____    ____   _
 72
65
 73
6
 40
127.0000000000000142
 49
63.5
 74
0
 49
-12.6999999999999993
 74
0
 49
12.6999999999999993
 74
0
 49
-12.6999999999999993
 74
0
 49
12.6999999999999993
 74
0
 49
-12.6999999999999993
 74
0
  0
LTYPE
  5
4E
100
AcDbSymbolTableRecord
100
AcDbLinetypeTableRecord
  2
CENTER
 70
0
  3
Center ____ _ ____ _ ____ _ ____ _ ____ _ ____
 72
65
 73
4
 40
50.8000000000000043
 49
31.75
 74
0
 49
-6.3499999999999996
 74
0
 49
6.3499999999999996
 74
0
 49
-6.3499999999999996
 74
0
  0
LTYPE
  5
4F
100
AcDbSymbolTableRecord
100
AcDbLinetypeTableRecord
  2
ACAD_ISO02W100
 70
0
  3
ISO dash __ __ __ __ __ __ __ __ __ __ __ __ __
 72
65
 73
2
 40
15.0
 49
12.0
 74
0
 49
-3.0
 74
0
  0
LTYPE
  5
50
100
AcDbSymbolTableRecord
100
AcDbLinetypeTableRecord
  2
ACAD_ISO08W100
 70
0
  3
ISO long-dash short-dash ____ __ ____ __ ____ _
 72
65
 73
4
 40
36.0
 49
24.0
 74
0
 49
-3.0
 74
0
 49
6.0
 74
0
 49
-3.0
 74
0
  0
LTYPE
  5
51
100
AcDbSymbolTableRecord
100
AcDbLinetypeTableRecord
  2
ACAD_ISO11W100
 70
0
  3
ISO double-dash dot __ __ . __ __ . __ __ . __ _
 72
65
 73
6
 40
33.0
 49
12.0
 74
0
 49
-3.0
 74
0
 49
12.0
 74
0
 49
-3.0
 74
0
 49
0.0
 74
0
 49
-3.0
 74
0
  0
LTYPE
  5
52
100
AcDbSymbolTableRecord
100
AcDbLinetypeTableRecord
  2
CENTERX2
 70
0
  3
Center (2x) ________  __  ________  __  _____
 72
65
 73
4
 40
101.6000000000000085
 49
63.5
 74
0
 49
-12.6999999999999993
 74
0
 49
12.6999999999999993
 74
0
 49
-12.6999999999999993
 74
0
  0
LTYPE
  5
53
100
AcDbSymbolTableRecord
100
AcDbLinetypeTableRecord
  2
ACAD_ISO14W100
 70
0
  3
ISO dash triple-dot __ . . . __ . . . __ . . . _
 72
65
 73
8
 40
24.0
 49
12.0
 74
0
 49
-3.0
 74
0
 49
0.0
 74
0
 49
-3.0
 74
0
 49
0.0
 74
0
 49
-3.0
 74
0
 49
0.0
 74
0
 49
-3.0
 74
0
  0
LTYPE
  5
54
100
AcDbSymbolTableRecord
100
AcDbLinetypeTableRecord
  2
ACAD_ISO03W100
 70
0
  3
ISO dash space __    __    __    __    __    __
 72
65
 73
2
 40
30.0
 49
12.0
 74
0
 49
-18.0
 74
0
  0
LTYPE
  5
55
100
AcDbSymbolTableRecord
100
AcDbLinetypeTableRecord
  2
DOT
 70
0
  3
Dot . . . . . . . . . . . . . . . . . . . . . . . .
 72
65
 73
2
 40
6.3499999999999996
 49
0.0
 74
0
 49
-6.3499999999999996
 74
0
  0
LTYPE
  5
56
100
AcDbSymbolTableRecord
100
AcDbLinetypeTableRecord
  2
DIVIDE2
 70
0
  3
Divide (.5x) __..__..__..__..__..__..__..__.._
 72
65
 73
6
 40
15.875
 49
6.3499999999999996
 74
0
 49
-3.1749999999999998
 74
0
 49
0.0
 74
0
 49
-3.1749999999999998
 74
0
 49
0.0
 74
0
 49
-3.1749999999999998
 74
0
  0
ENDTAB
  0
TABLE
  2
LAYER
  5
2
100
AcDbSymbolTable
 70
2
  0
LAYER
  5
10
100
AcDbSymbolTableRecord
100
AcDbLayerTableRecord
  2
0
 70
0
 62
7
420
16777215
  6
Continuous
370
-3
390
F
  0
LAYER
  5
57
100
AcDbSymbolTableRecord
100
AcDbLayerTableRecord
  2
layer 1
 70
0
 62
7
420
16777215
  6
Continuous
370
-3
390
F
  0
ENDTAB
  0
TABLE
  2
STYLE
  5
3
100
AcDbSymbolTable
 70
1
  0
STYLE
  5
58
100
AcDbSymbolTableRecord
100
AcDbTextStyleTableRecord
  2
Standard
 70
0
 40
0.0
 41
1.0
 50
0.0
 71
0
 42
2.5
  3

  4

1001
ACAD
1000
txt
1071
0
  0
ENDTAB
  0
TABLE
  2
VIEW
  5
6
100
AcDbSymbolTable
 70
0
  0
ENDTAB
  0
TABLE
  2
UCS
  5
7
100
AcDbSymbolTable
 70
0
  0
ENDTAB
  0
TABLE
  2
APPID
  5
9
100
AcDbSymbolTable
 70
1
  0
APPID
  5
12
100
AcDbSymbolTableRecord
100
AcDbRegAppTableRecord
  2
ACAD
 70
0
  0
APPID
  5
59
100
AcDbSymbolTableRecord
100
AcDbRegAppTableRecord
  2
QCAD
 70
0
  0
ENDTAB
  0
TABLE
  2
DIMSTYLE
  5
A
100
AcDbSymbolTable
 70
1
100
AcDbDimStyleTable
 71
0
  0
DIMSTYLE
105
27
100
AcDbSymbolTableRecord
100
AcDbDimStyleTableRecord
  2
Standard
 41
0.18
 42
0.0625
 43
3.75
 44
0.18
 70
0
 73
1
 74
0
 77
0
 78
8
140
0.18
141
2.5
143
0.03937007874016
147
0.09
171
3
172
1
271
2
272
2
274
3
278
44
283
0
284
8
340
58
  0
ENDTAB
  0
TABLE
  2
BLOCK_RECORD
  5
1
100
AcDbSymbolTable
 70
1
  0
BLOCK_RECORD
  5
1F
100
AcDbSymbolTableRecord
100
AcDbBlockTableRecord
  2
*Model_Space
340
22
  0
BLOCK_RECORD
  5
1B
100
AcDbSymbolTableRecord
100
AcDbBlockTableRecord
  2
*Paper_Space
340
1E
  0
BLOCK_RECORD
  5
23
100
AcDbSymbolTableRecord
100
AcDbBlockTableRecord
  2
*Paper_Space0
340
26
  0
ENDTAB
  0
ENDSEC
  0
SECTION
  2
BLOCKS
  0
BLOCK
  5
20
100
AcDbEntity
  8
0
100
AcDbBlockBegin
  2
*Model_Space
 70
0
 10
0.0
 20
0.0
 30
0.0
  3
*Model_Space
  1

  0
ENDBLK
  5
21
100
AcDbEntity
  8
0
100
AcDbBlockEnd
  0
BLOCK
  5
1C
100
AcDbEntity
 67
1
  8
0
100
AcDbBlockBegin
  2
*Paper_Space
 70
0
 10
0.0
 20
0.0
 30
0.0
  3
*Paper_Space
  1

  0
ENDBLK
  5
1D
100
AcDbEntity
 67
1
  8
0
100
AcDbBlockEnd
  0
BLOCK
  5
24
100
AcDbEntity
  8
0
100
AcDbBlockBegin
  2
*Paper_Space0
 70
0
 10
0.0
 20
0.0
 30
0.0
  3
*Paper_Space0
  1

  0
ENDBLK
  5
25
100
AcDbEntity
  8
0
100
AcDbBlockEnd
  0
ENDSEC
  0
SECTION
  2
ENTITIES
  0
SPLINE
  5
5A
100
AcDbEntity
  8
layer 1
 62
256
370
9
 48
1.0
  6
ByLayer
100
AcDbSpline
 70
8
 71
3
 72
68
 73
64
 74
0
 40
0.0
 40
0.0
 40
0.0
 40
0.0
 40
0.0625
 40
0.0625
 40
0.0625
 40
0.0625
 40
0.125
 40
0.125
 40
0.125
 40
0.125
 40
0.1875
 40
0.1875
 40
0.1875
 40
0.1875
 40
0.25
 40
0.25
 40
0.25
 40
0.25
 40
0.3125
 40
0.3125
 40
0.3125
 40
0.3125
 40
0.375
 40
0.375
 40
0.375
 40
0.375
 40
0.4375
 40
0.4375
 40
0.4375
 40
0.4375
 40
0.5
 40
0.5
 40
0.5
 40
0.5
 40
0.5625
 40
0.5625
 40
0.5625
 40
0.5625
 40
0.625
 40
0.625
 40
0.625
 40
0.625
 40
0.6875
 40
0.6875
 40
0.6875
 40
0.6875
 40
0.75
 40
0.75
 40
0.75
 40
0.75
 40
0.8125
 40
0.8125
 40
0.8125
 40
0.8125
 40
0.875
 40
0.875
 40
0.875
 40
0.875
 40
0.9375
 40
0.9375
 40
0.9375
 40
0.9375
 40
1.0
 40
1.0
 40
1.0
 40
1.0
 10
-264.2742000000000075
 20
16.8743000000000016
 30
0.0
 10
-264.2742000000000075
 20
16.8743000000000016
 30
0.0
 10
-264.2993000000000166
 20
16.8746000000000009
 30
0.0
 10
-264.2993000000000166
 20
16.8746000000000009
 30
0.0
 10
-264.2993000000000166
 20
16.8746000000000009
 30
0.0
 10
-264.2993000000000166
 20
16.8746000000000009
 30
0.0
 10
-264.3242000000000189
 20
16.8743000000000016
 30
0.0
 10
-264.3242000000000189
 20
16.8743000000000016
 30
0.0
 10
-264.3242000000000189
 20
16.8743000000000016
 30
0.0
 10
-264.3242000000000189
 20
16.8743000000000016
 30
0.0
 10
-264.3242000000000189
 20
16.8743000000000016
 30
0.0
 10
-264.3242000000000189
 20
16.8743000000000016
 30
0.0
 10
-264.3242000000000189
 20
16.8743000000000016
 30
0.0
 10
-264.3242000000000189
 20
16.8743000000000016
 30
0.0
 10
-264.3242000000000189
 20
16.875
 30
0.0
 10
-264.3242000000000189
 20
16.875
 30
0.0
 10
-264.3242000000000189
 20
16.875
 30
0.0
 10
-265.9175999999999931
 20
16.9017000000000017
 30
0.0
 10
-267.1974999999999909
 20
18.1983999999999995
 30
0.0
 10
-267.1974999999999909
 20
19.7866
 30
0.0
 10
-267.1974999999999909
 20
19.7866
 30
0.0
 10
-267.1974999999999909
 20
21.3862999999999985
 30
0.0
 10
-265.9175999999999931
 20
22.6824000000000012
 30
0.0
 10
-264.3242000000000189
 20
22.7090999999999994
 30
0.0
 10
-264.3242000000000189
 20
22.7090999999999994
 30
0.0
 10
-264.3242000000000189
 20
22.7090999999999994
 30
0.0
 10
-264.3242000000000189
 20
22.7098000000000013
 30
0.0
 10
-264.3242000000000189
 20
22.7098000000000013
 30
0.0
 10
-264.3242000000000189
 20
22.7098000000000013
 30
0.0
 10
-264.3242000000000189
 20
22.7098000000000013
 30
0.0
 10
-264.3242000000000189
 20
22.7098000000000013
 30
0.0
 10
-264.3242000000000189
 20
22.7098000000000013
 30
0.0
 10
-264.3242000000000189
 20
22.7098000000000013
 30
0.0
 10
-264.3242000000000189
 20
22.7098000000000013
 30
0.0
 10
-264.3242000000000189
 20
22.7098000000000013
 30
0.0
 10
-264.3242000000000189
 20
22.7098000000000013
 30
0.0
 10
-264.3242000000000189
 20
22.7098000000000013
 30
0.0
 10
-264.3242000000000189
 20
22.7098000000000013
 30
0.0
 10
-264.2993000000000166
 20
22.7094999999999985
 30
0.0
 10
-264.2993000000000166
 20
22.7094999999999985
 30
0.0
 10
-264.2993000000000166
 20
22.7094999999999985
 30
0.0
 10
-264.2993000000000166
 20
22.7094999999999985
 30
0.0
 10
-264.2742000000000075
 20
22.7098000000000013
 30
0.0
 10
-264.2742000000000075
 20
22.7098000000000013
 30
0.0
 10
-264.2742000000000075
 20
22.7098000000000013
 30
0.0
 10
-264.2742000000000075
 20
22.7098000000000013
 30
0.0
 10
-264.2742000000000075
 20
22.7090999999999994
 30
0.0
 10
-264.2742000000000075
 20
22.7090999999999994
 30
0.0
 10
-264.2742000000000075
 20
22.7090999999999994
 30
0.0
 10
-262.6908000000000243
 20
22.6822000000000017
 30
0.0
 10
-261.3509999999999991
 20
21.3861999999999988
 30
0.0
 10
-261.3509999999999991
 20
19.7866
 30
0.0
 10
-261.3509999999999991
 20
19.7866
 30
0.0
 10
-261.3509999999999991
 20
18.1984999999999992
 30
0.0
 10
-262.6908000000000243
 20
16.9019000000000013
 30
0.0
 10
-264.2742000000000075
 20
16.875
 30
0.0
 10
-264.2742000000000075
 20
16.875
 30
0.0
 10
-264.2742000000000075
 20
16.875
 30
0.0
 10
-264.2742000000000075
 20
16.8743000000000016
 30
0.0
 10
-264.2742000000000075
 20
16.8743000000000016
 30
0.0
 10
-264.2742000000000075
 20
16.8743000000000016
 30
0.0
 10
-264.2742000000000075
 20
16.8743000000000016
 30
0.0
 10
-264.2742000000000075
 20
16.8743000000000016
 30
0.0
 10
-264.2742000000000075
 20
16.8743000000000016
 30
0.0
  0
SPLINE
  5
5B
100
AcDbEntity
  8
layer 1
 62
256
370
9
 48
1.0
  6
ByLayer
100
AcDbSpline
 70
8
 71
3
 72
20
 73
16
 74
0
 40
0.0
 40
0.0
 40
0.0
 40
0.0
 40
0.25
 40
0.25
 40
0.25
 40
0.25
 40
0.5
 40
0.5
 40
0.5
 40
0.5
 40
0.75
 40
0.75
 40
0.75
 40
0.75
 40
1.0
 40
1.0
 40
1.0
 40
1.0
 10
-264.2991999999999848
 20
22.1824000000000012
 30
0.0
 10
-265.6062000000000012
 20
22.1688000000000009
 30
0.0
 10
-266.6585999999999785
 20
21.0962999999999994
 30
0.0
 10
-266.6585999999999785
 20
19.7866
 30
0.0
 10
-266.6585999999999785
 20
19.7866
 30
0.0
 10
-266.6585999999999785
 20
18.4880999999999993
 30
0.0
 10
-265.6062000000000012
 20
17.4161000000000001
 30
0.0
 10
-264.2991999999999848
 20
17.4024999999999999
 30
0.0
 10
-264.2991999999999848
 20
17.4024999999999999
 30
0.0
 10
-262.9916000000000054
 20
17.4161000000000001
 30
0.0
 10
-261.8897999999999797
 20
18.4880999999999993
 30
0.0
 10
-261.8897999999999797
 20
19.7866
 30
0.0
 10
-261.8897999999999797
 20
19.7866
 30
0.0
 10
-261.8897999999999797
 20
21.0962999999999994
 30
0.0
 10
-262.9916000000000054
 20
22.1688000000000009
 30
0.0
 10
-264.2991999999999848
 20
22.1824000000000012
 30
0.0
  0
SPLINE
  5
5C
100
AcDbEntity
  8
layer 1
 62
256
370
9
 48
1.0
  6
ByLayer
100
AcDbSpline
 70
8
 71
3
 72
184
 73
180
 74
0
 40
0.0
 40
0.0
 40
0.0
 40
0.0
 40
0.0222222222222222
 40
0.0222222222222222
 40
0.0222222222222222
 40
0.0222222222222222
 40
0.0444444444444444
 40
0.0444444444444444
 40
0.0444444444444444
 40
0.0444444444444444
 40
0.0666666666666667
 40
0.0666666666666667
 40
0.0666666666666667
 40
0.0666666666666667
 40
0.0888888888888889
 40
0.0888888888888889
 40
0.0888888888888889
 40
0.0888888888888889
 40
0.1111111111111111
 40
0.1111111111111111
 40
0.1111111111111111
 40
0.1111111111111111
 40
0.1333333333333333
 40
0.1333333333333333
 40
0.1333333333333333
 40
0.1333333333333333
 40
0.1555555555555556
 40
0.1555555555555556
 40
0.1555555555555556
 40
0.1555555555555556
 40
0.1777777777777778
 40
0.1777777777777778
 40
0.1777777777777778
 40
0.1777777777777778
 40
0.2
 40
0.2
 40
0.2
 40
0.2
 40
0.2222222222222222
 40
0.2222222222222222
 40
0.2222222222222222
 40
0.2222222222222222
 40
0.2444444444444445
 40
0.2444444444444445
 40
0.2444444444444445
 40
0.2444444444444445
 40
0.2666666666666667
 40
0.2666666666666667
 40
0.2666666666666667
 40
0.2666666666666667
 40
0.2888888888888889
 40
0.2888888888888889
 40
0.2888888888888889
 40
0.2888888888888889
 40
0.3111111111111111
 40
0.3111111111111111
 40
0.3111111111111111
 40
0.3111111111111111
 40
0.3333333333333333
 40
0.3333333333333333
 40
0.3333333333333333
 40
0.3333333333333333
 40
0.3555555555555555
 40
0.3555555555555555
 40
0.3555555555555555
 40
0.3555555555555555
 40
0.3777777777777777
 40
0.3777777777777777
 40
0.3777777777777777
 40
0.3777777777777777
 40
0.3999999999999999
 40
0.3999999999999999
 40
0.3999999999999999
 40
0.3999999999999999
 40
0.4222222222222221
 40
0.4222222222222221
 40
0.4222222222222221
 40
0.4222222222222221
 40
0.4444444444444443
 40
0.4444444444444443
 40
0.4444444444444443
 40
0.4444444444444443
 40
0.4666666666666665
 40
0.4666666666666665
 40
0.4666666666666665
 40
0.4666666666666665
 40
0.4888888888888887
 40
0.4888888888888887
 40
0.4888888888888887
 40
0.4888888888888887
 40
0.5111111111111108
 40
0.5111111111111108
 40
0.5111111111111108
 40
0.5111111111111108
 40
0.5333333333333331
 40
0.5333333333333331
 40
0.5333333333333331
 40
0.5333333333333331
 40
0.5555555555555554
 40
0.5555555555555554
 40
0.5555555555555554
 40
0.5555555555555554
 40
0.5777777777777776
 40
0.5777777777777776
 40
0.5777777777777776
 40
0.5777777777777776
 40
0.5999999999999999
 40
0.5999999999999999
 40
0.5999999999999999
 40
0.5999999999999999
 40
0.6222222222222221
 40
0.6222222222222221
 40
0.6222222222222221
 40
0.6222222222222221
 40
0.6444444444444444
 40
0.6444444444444444
 40
0.6444444444444444
 40
0.6444444444444444
 40
0.6666666666666666
 40
0.6666666666666666
 40
0.6666666666666666
 40
0.6666666666666666
 40
0.6888888888888889
 40
0.6888888888888889
 40
0.6888888888888889
 40
0.6888888888888889
 40
0.7111111111111111
 40
0.7111111111111111
 40
0.7111111111111111
 40
0.7111111111111111
 40
0.7333333333333334
 40
0.7333333333333334
 40
0.7333333333333334
 40
0.7333333333333334
 40
0.7555555555555556
 40
0.7555555555555556
 40
0.7555555555555556
 40
0.7555555555555556
 40
0.7777777777777779
 40
0.7777777777777779
 40
0.7777777777777779
 40
0.7777777777777779
 40
0.8000000000000002
 40
0.8000000000000002
 40
0.8000000000000002
 40
0.8000000000000002
 40
0.8222222222222224
 40
0.8222222222222224
 40
0.8222222222222224
 40
0.8222222222222224
 40
0.8444444444444447
 40
0.8444444444444447
 40
0.8444444444444447
 40
0.8444444444444447
 40
0.8666666666666669
 40
0.8666666666666669
 40
0.8666666666666669
 40
0.8666666666666669
 40
0.8888888888888892
 40
0.8888888888888892
 40
0.8888888888888892
 40
0.8888888888888892
 40
0.9111111111111114
 40
0.9111111111111114
 40
0.9111111111111114
 40
0.9111111111111114
 40
0.9333333333333337
 40
0.9333333333333337
 40
0.9333333333333337
 40
0.9333333333333337
 40
0.9555555555555559
 40
0.9555555555555559
 40
0.9555555555555559
 40
0.9555555555555559
 40
0.9777777777777782
 40
0.9777777777777782
 40
0.9777777777777782
 40
0.9777777777777782
 40
1.0
 40
1.0
 40
1.0
 40
1.0
 10
-264.2742000000000075
 20
21.4832000000000001
 30
0.0
 10
-264.2742000000000075
 20
21.4832000000000001
 30
0.0
 10
-264.2796000000000163
 20
21.4832000000000001
 30
0.0
 10
-264.2796000000000163
 20
21.4832000000000001
 30
0.0
 10
-264.2796000000000163
 20
21.4832000000000001
 30
0.0
 10
-264.2796000000000163
 20
21.4832000000000001
 30
0.0
 10
-264.2857000000000198
 20
21.4832000000000001
 30
0.0
 10
-264.2857000000000198
 20
21.4832000000000001
 30
0.0
 10
-264.2857000000000198
 20
21.4832000000000001
 30
0.0
 10
-264.2857000000000198
 20
21.4832000000000001
 30
0.0
 10
-264.291499999999985
 20
21.4832000000000001
 30
0.0
 10
-264.291499999999985
 20
21.4832000000000001
 30
0.0
 10
-264.291499999999985
 20
21.4832000000000001
 30
0.0
 10
-264.291499999999985
 20
21.4832000000000001
 30
0.0
 10
-264.2968999999999937
 20
21.4832000000000001
 30
0.0
 10
-264.2968999999999937
 20
21.4832000000000001
 30
0.0
 10
-264.2968999999999937
 20
21.4832000000000001
 30
0.0
 10
-264.2968999999999937
 20
21.4832000000000001
 30
0.0
 10
-264.3018000000000143
 20
21.4832000000000001
 30
0.0
 10
-264.3018000000000143
 20
21.4832000000000001
 30
0.0
 10
-264.3018000000000143
 20
21.4832000000000001
 30
0.0
 10
-264.3018000000000143
 20
21.4832000000000001
 30
0.0
 10
-264.3063000000000216
 20
21.4832000000000001
 30
0.0
 10
-264.3063000000000216
 20
21.4832000000000001
 30
0.0
 10
-264.3063000000000216
 20
21.4832000000000001
 30
0.0
 10
-264.3063000000000216
 20
21.4832000000000001
 30
0.0
 10
-264.3102999999999838
 20
21.4832000000000001
 30
0.0
 10
-264.3102999999999838
 20
21.4832000000000001
 30
0.0
 10
-264.3102999999999838
 20
21.4832000000000001
 30
0.0
 10
-264.3102999999999838
 20
21.4832000000000001
 30
0.0
 10
-264.3138999999999896
 20
21.4832000000000001
 30
0.0
 10
-264.3138999999999896
 20
21.4832000000000001
 30
0.0
 10
-264.3138999999999896
 20
21.4832000000000001
 30
0.0
 10
-264.3138999999999896
 20
21.4832000000000001
 30
0.0
 10
-264.3170000000000073
 20
21.4832000000000001
 30
0.0
 10
-264.3170000000000073
 20
21.4832000000000001
 30
0.0
 10
-264.3170000000000073
 20
21.4832000000000001
 30
0.0
 10
-264.3170000000000073
 20
21.4832000000000001
 30
0.0
 10
-264.319500000000005
 20
21.4832000000000001
 30
0.0
 10
-264.319500000000005
 20
21.4832000000000001
 30
0.0
 10
-264.319500000000005
 20
21.4832000000000001
 30
0.0
 10
-264.319500000000005
 20
21.4832000000000001
 30
0.0
 10
-264.3215000000000146
 20
21.4832000000000001
 30
0.0
 10
-264.3215000000000146
 20
21.4832000000000001
 30
0.0
 10
-264.3215000000000146
 20
21.4832000000000001
 30
0.0
 10
-264.3215000000000146
 20
21.4832000000000001
 30
0.0
 10
-264.3229999999999791
 20
21.4832000000000001
 30
0.0
 10
-264.3229999999999791
 20
21.4832000000000001
 30
0.0
 10
-264.3229999999999791
 20
21.4832000000000001
 30
0.0
 10
-264.3229999999999791
 20
21.4832000000000001
 30
0.0
 10
-264.3238999999999805
 20
21.4832000000000001
 30
0.0
 10
-264.3238999999999805
 20
21.4832000000000001
 30
0.0
 10
-264.3238999999999805
 20
21.4832000000000001
 30
0.0
 10
-264.3238999999999805
 20
21.4832000000000001
 30
0.0
 10
-264.3242000000000189
 20
21.4832000000000001
 30
0.0
 10
-264.3242000000000189
 20
21.4832000000000001
 30
0.0
 10
-264.3242000000000189
 20
21.4832000000000001
 30
0.0
 10
-264.3242000000000189
 20
21.4832000000000001
 30
0.0
 10
-265.2717000000000098
 20
21.4832000000000001
 30
0.0
 10
-265.2717000000000098
 20
21.4832000000000001
 30
0.0
 10
-265.2717000000000098
 20
21.4832000000000001
 30
0.0
 10
-265.2717000000000098
 20
21.4832000000000001
 30
0.0
 10
-265.2717000000000098
 20
18.1244000000000014
 30
0.0
 10
-265.2717000000000098
 20
18.1244000000000014
 30
0.0
 10
-265.2717000000000098
 20
18.1244000000000014
 30
0.0
 10
-265.2717000000000098
 20
18.1244000000000014
 30
0.0
 10
-264.8700999999999794
 20
18.1244000000000014
 30
0.0
 10
-264.8700999999999794
 20
18.1244000000000014
 30
0.0
 10
-264.8700999999999794
 20
18.1244000000000014
 30
0.0
 10
-264.8700999999999794
 20
18.1244000000000014
 30
0.0
 10
-264.8700999999999794
 20
19.5687999999999995
 30
0.0
 10
-264.8700999999999794
 20
19.5687999999999995
 30
0.0
 10
-264.8700999999999794
 20
19.5687999999999995
 30
0.0
 10
-264.8700999999999794
 20
19.5687999999999995
 30
0.0
 10
-264.3242000000000189
 20
19.5687999999999995
 30
0.0
 10
-264.3242000000000189
 20
19.5687999999999995
 30
0.0
 10
-264.3242000000000189
 20
19.5687999999999995
 30
0.0
 10
-264.3242000000000189
 20
19.5687999999999995
 30
0.0
 10
-264.3238999999999805
 20
19.5687999999999995
 30
0.0
 10
-264.3238999999999805
 20
19.5687999999999995
 30
0.0
 10
-264.3238999999999805
 20
19.5687999999999995
 30
0.0
 10
-264.3238999999999805
 20
19.5687999999999995
 30
0.0
 10
-264.3229999999999791
 20
19.5687999999999995
 30
0.0
 10
-264.3229999999999791
 20
19.5687999999999995
 30
0.0
 10
-264.3229999999999791
 20
19.5687999999999995
 30
0.0
 10
-264.3229999999999791
 20
19.5687999999999995
 30
0.0
 10
-264.3215000000000146
 20
19.5687999999999995
 30
0.0
 10
-264.3215000000000146
 20
19.5687999999999995
 30
0.0
 10
-264.3215000000000146
 20
19.5687999999999995
 30
0.0
 10
-264.3215000000000146
 20
19.5687999999999995
 30
0.0
 10
-264.319500000000005
 20
19.5687999999999995
 30
0.0
 10
-264.319500000000005
 20
19.5687999999999995
 30
0.0
 10
-264.319500000000005
 20
19.5687999999999995
 30
0.0
 10
-264.319500000000005
 20
19.5687999999999995
 30
0.0
 10
-264.3170000000000073
 20
19.5687999999999995
 30
0.0
 10
-264.3170000000000073
 20
19.5687999999999995
 30
0.0
 10
-264.3170000000000073
 20
19.5687999999999995
 30
0.0
 10
-264.3170000000000073
 20
19.5687999999999995
 30
0.0
 10
-264.3138999999999896
 20
19.5687999999999995
 30
0.0
 10
-264.3138999999999896
 20
19.5687999999999995
 30
0.0
 10
-264.3138999999999896
 20
19.5687999999999995
 30
0.0
 10
-264.3138999999999896
 20
19.5687999999999995
 30
0.0
 10
-264.3102999999999838
 20
19.5687999999999995
 30
0.0
 10
-264.3102999999999838
 20
19.5687999999999995
 30
0.0
 10
-264.3102999999999838
 20
19.5687999999999995
 30
0.0
 10
-264.3102999999999838
 20
19.5687999999999995
 30
0.0
 10
-264.3063000000000216
 20
19.5687999999999995
 30
0.0
 10
-264.3063000000000216
 20
19.5687999999999995
 30
0.0
 10
-264.3063000000000216
 20
19.5687999999999995
 30
0.0
 10
-264.3063000000000216
 20
19.5687999999999995
 30
0.0
 10
-264.3018000000000143
 20
19.5687999999999995
 30
0.0
 10
-264.3018000000000143
 20
19.5687999999999995
 30
0.0
 10
-264.3018000000000143
 20
19.5687999999999995
 30
0.0
 10
-264.3018000000000143
 20
19.5687999999999995
 30
0.0
 10
-264.2968999999999937
 20
19.5687999999999995
 30
0.0
 10
-264.2968999999999937
 20
19.5687999999999995
 30
0.0
 10
-264.2968999999999937
 20
19.5687999999999995
 30
0.0
 10
-264.2968999999999937
 20
19.5687999999999995
 30
0.0
 10
-264.291499999999985
 20
19.5687999999999995
 30
0.0
 10
-264.291499999999985
 20
19.5687999999999995
 30
0.0
 10
-264.291499999999985
 20
19.5687999999999995
 30
0.0
 10
-264.291499999999985
 20
19.5687999999999995
 30
0.0
 10
-264.2857000000000198
 20
19.5687999999999995
 30
0.0
 10
-264.2857000000000198
 20
19.5687999999999995
 30
0.0
 10
-264.2857000000000198
 20
19.5687999999999995
 30
0.0
 10
-264.2857000000000198
 20
19.5687999999999995
 30
0.0
 10
-264.2796000000000163
 20
19.5687999999999995
 30
0.0
 10
-264.2796000000000163
 20
19.5687999999999995
 30
0.0
 10
-264.2796000000000163
 20
19.5687999999999995
 30
0.0
 10
-264.2796000000000163
 20
19.5687999999999995
 30
0.0
 10
-264.2742000000000075
 20
19.5687999999999995
 30
0.0
 10
-264.2742000000000075
 20
19.5687999999999995
 30
0.0
 10
-264.2742000000000075
 20
19.5687999999999995
 30
0.0
 10
-264.2742000000000075
 20
19.5687999999999995
 30
0.0
 10
-263.9075000000000273
 20
19.5687999999999995
 30
0.0
 10
-263.9075000000000273
 20
19.5687999999999995
 30
0.0
 10
-263.9075000000000273
 20
19.5687999999999995
 30
0.0
 10
-263.5520000000000209
 20
19.5687999999999995
 30
0.0
 10
-263.3686999999999898
 20
19.3736999999999995
 30
0.0
 10
-263.3804000000000087
 20
18.9725000000000001
 30
0.0
 10
-263.3804000000000087
 20
18.9725000000000001
 30
0.0
 10
-263.3804000000000087
 20
18.8003999999999998
 30
0.0
 10
-263.3804000000000087
 20
18.6287999999999982
 30
0.0
 10
-263.3686999999999898
 20
18.4567000000000014
 30
0.0
 10
-263.3686999999999898
 20
18.4567000000000014
 30
0.0
 10
-263.3573000000000093
 20
18.2963999999999984
 30
0.0
 10
-263.3455999999999904
 20
18.1817999999999991
 30
0.0
 10
-263.3233000000000175
 20
18.1244000000000014
 30
0.0
 10
-263.3233000000000175
 20
18.1244000000000014
 30
0.0
 10
-263.3233000000000175
 20
18.1244000000000014
 30
0.0
 10
-262.8184999999999718
 20
18.1244000000000014
 30
0.0
 10
-262.8184999999999718
 20
18.1244000000000014
 30
0.0
 10
-262.8184999999999718
 20
18.1244000000000014
 30
0.0
 10
-262.8184999999999718
 20
18.1244000000000014
 30
0.0
 10
-262.8184999999999718
 20
18.1927999999999983
 30
0.0
 10
-262.8184999999999718
 20
18.1927999999999983
 30
0.0
 10
-262.8184999999999718
 20
18.1927999999999983
 30
0.0
 10
-262.9443999999999733
 20
18.238900000000001
 30
0.0
 10
-262.9904999999999973
 20
18.3421999999999983
 30
0.0
 10
-262.9674999999999727
 20
18.525500000000001
 30
0.0
 10
-262.9674999999999727
 20
18.525500000000001
 30
0.0
 10
-262.9674999999999727
 20
18.525500000000001
 30
0.0
 10
-263.0018999999999778
 20
19.1331999999999987
 30
0.0
 10
-263.0018999999999778
 20
19.1331999999999987
 30
0.0
 10
-263.0018999999999778
 20
19.1331999999999987
 30
0.0
 10
-263.0131999999999834
 20
19.4769000000000005
 30
0.0
 10
-263.1281999999999925
 20
19.6832999999999991
 30
0.0
 10
-263.3455999999999904
 20
19.774799999999999
 30
0.0
 10
-263.3455999999999904
 20
19.774799999999999
 30
0.0
 10
-263.0702999999999747
 20
19.9355000000000011
 30
0.0
 10
-262.9331000000000245
 20
20.1995000000000005
 30
0.0
 10
-262.9331000000000245
 20
20.5772000000000013
 30
0.0
 10
-262.9331000000000245
 20
20.5772000000000013
 30
0.0
 10
-262.9443999999999733
 20
21.1620999999999988
 30
0.0
 10
-263.2653999999999996
 20
21.4604999999999997
 30
0.0
 10
-263.9075000000000273
 20
21.4832000000000001
 30
0.0
 10
-263.9075000000000273
 20
21.4832000000000001
 30
0.0
 10
-263.9075000000000273
 20
21.4832000000000001
 30
0.0
 10
-264.2742000000000075
 20
21.4832000000000001
 30
0.0
 10
-264.2742000000000075
 20
21.4832000000000001
 30
0.0
  0
SPLINE
  5
5D
100
AcDbEntity
  8
layer 1
 62
256
370
9
 48
1.0
  6
ByLayer
100
AcDbSpline
 70
8
 71
3
 72
148
 73
144
 74
0
 40
0.0
 40
0.0
 40
0.0
 40
0.0
 40
0.0277777777777778
 40
0.0277777777777778
 40
0.0277777777777778
 40
0.0277777777777778
 40
0.0555555555555556
 40
0.0555555555555556
 40
0.0555555555555556
 40
0.0555555555555556
 40
0.0833333333333333
 40
0.0833333333333333
 40
0.0833333333333333
 40
0.0833333333333333
 40
0.1111111111111111
 40
0.1111111111111111
 40
0.1111111111111111
 40
0.1111111111111111
 40
0.1388888888888889
 40
0.1388888888888889
 40
0.1388888888888889
 40
0.1388888888888889
 40
0.1666666666666667
 40
0.1666666666666667
 40
0.1666666666666667
 40
0.1666666666666667
 40
0.1944444444444445
 40
0.1944444444444445
 40
0.1944444444444445
 40
0.1944444444444445
 40
0.2222222222222223
 40
0.2222222222222223
 40
0.2222222222222223
 40
0.2222222222222223
 40
0.2500000000000001
 40
0.2500000000000001
 40
0.2500000000000001
 40
0.2500000000000001
 40
0.2777777777777778
 40
0.2777777777777778
 40
0.2777777777777778
 40
0.2777777777777778
 40
0.3055555555555556
 40
0.3055555555555556
 40
0.3055555555555556
 40
0.3055555555555556
 40
0.3333333333333334
 40
0.3333333333333334
 40
0.3333333333333334
 40
0.3333333333333334
 40
0.3611111111111112
 40
0.3611111111111112
 40
0.3611111111111112
 40
0.3611111111111112
 40
0.388888888888889
 40
0.388888888888889
 40
0.388888888888889
 40
0.388888888888889
 40
0.4166666666666668
 40
0.4166666666666668
 40
0.4166666666666668
 40
0.4166666666666668
 40
0.4444444444444446
 40
0.4444444444444446
 40
0.4444444444444446
 40
0.4444444444444446
 40
0.4722222222222224
 40
0.4722222222222224
 40
0.4722222222222224
 40
0.4722222222222224
 40
0.5000000000000001
 40
0.5000000000000001
 40
0.5000000000000001
 40
0.5000000000000001
 40
0.5277777777777779
 40
0.5277777777777779
 40
0.5277777777777779
 40
0.5277777777777779
 40
0.5555555555555557
 40
0.5555555555555557
 40
0.5555555555555557
 40
0.5555555555555557
 40
0.5833333333333335
 40
0.5833333333333335
 40
0.5833333333333335
 40
0.5833333333333335
 40
0.6111111111111113
 40
0.6111111111111113
 40
0.6111111111111113
 40
0.6111111111111113
 40
0.6388888888888891
 40
0.6388888888888891
 40
0.6388888888888891
 40
0.6388888888888891
 40
0.6666666666666669
 40
0.6666666666666669
 40
0.6666666666666669
 40
0.6666666666666669
 40
0.6944444444444446
 40
0.6944444444444446
 40
0.6944444444444446
 40
0.6944444444444446
 40
0.7222222222222224
 40
0.7222222222222224
 40
0.7222222222222224
 40
0.7222222222222224
 40
0.7500000000000002
 40
0.7500000000000002
 40
0.7500000000000002
 40
0.7500000000000002
 40
0.777777777777778
 40
0.777777777777778
 40
0.777777777777778
 40
0.777777777777778
 40
0.8055555555555558
 40
0.8055555555555558
 40
0.8055555555555558
 40
0.8055555555555558
 40
0.8333333333333336
 40
0.8333333333333336
 40
0.8333333333333336
 40
0.8333333333333336
 40
0.8611111111111114
 40
0.8611111111111114
 40
0.8611111111111114
 40
0.8611111111111114
 40
0.8888888888888892
 40
0.8888888888888892
 40
0.8888888888888892
 40
0.8888888888888892
 40
0.916666666666667
 40
0.916666666666667
 40
0.916666666666667
 40
0.916666666666667
 40
0.9444444444444448
 40
0.9444444444444448
 40
0.9444444444444448
 40
0.9444444444444448
 40
0.9722222222222225
 40
0.9722222222222225
 40
0.9722222222222225
 40
0.9722222222222225
 40
1.0
 40
1.0
 40
1.0
 40
1.0
 10
-264.2742000000000075
 20
19.9582000000000015
 30
0.0
 10
-264.2742000000000075
 20
19.9582000000000015
 30
0.0
 10
-264.2773000000000252
 20
19.9582000000000015
 30
0.0
 10
-264.2773000000000252
 20
19.9582000000000015
 30
0.0
 10
-264.2773000000000252
 20
19.9582000000000015
 30
0.0
 10
-264.2773000000000252
 20
19.9582000000000015
 30
0.0
 10
-264.283299999999997
 20
19.9582000000000015
 30
0.0
 10
-264.283299999999997
 20
19.9582000000000015
 30
0.0
 10
-264.283299999999997
 20
19.9582000000000015
 30
0.0
 10
-264.283299999999997
 20
19.9582000000000015
 30
0.0
 10
-264.2889000000000124
 20
19.9582000000000015
 30
0.0
 10
-264.2889000000000124
 20
19.9582000000000015
 30
0.0
 10
-264.2889000000000124
 20
19.9582000000000015
 30
0.0
 10
-264.2889000000000124
 20
19.9582000000000015
 30
0.0
 10
-264.2941999999999894
 20
19.9582000000000015
 30
0.0
 10
-264.2941999999999894
 20
19.9582000000000015
 30
0.0
 10
-264.2941999999999894
 20
19.9582000000000015
 30
0.0
 10
-264.2941999999999894
 20
19.9582000000000015
 30
0.0
 10
-264.2991000000000099
 20
19.9582000000000015
 30
0.0
 10
-264.2991000000000099
 20
19.9582000000000015
 30
0.0
 10
-264.2991000000000099
 20
19.9582000000000015
 30
0.0
 10
-264.2991000000000099
 20
19.9582000000000015
 30
0.0
 10
-264.3036000000000172
 20
19.9582000000000015
 30
0.0
 10
-264.3036000000000172
 20
19.9582000000000015
 30
0.0
 10
-264.3036000000000172
 20
19.9582000000000015
 30
0.0
 10
-264.3036000000000172
 20
19.9582000000000015
 30
0.0
 10
-264.3077999999999861
 20
19.9582000000000015
 30
0.0
 10
-264.3077999999999861
 20
19.9582000000000015
 30
0.0
 10
-264.3077999999999861
 20
19.9582000000000015
 30
0.0
 10
-264.3077999999999861
 20
19.9582000000000015
 30
0.0
 10
-264.3115000000000236
 20
19.9582000000000015
 30
0.0
 10
-264.3115000000000236
 20
19.9582000000000015
 30
0.0
 10
-264.3115000000000236
 20
19.9582000000000015
 30
0.0
 10
-264.3115000000000236
 20
19.9582000000000015
 30
0.0
 10
-264.3147000000000162
 20
19.9582000000000015
 30
0.0
 10
-264.3147000000000162
 20
19.9582000000000015
 30
0.0
 10
-264.3147000000000162
 20
19.9582000000000015
 30
0.0
 10
-264.3147000000000162
 20
19.9582000000000015
 30
0.0
 10
-264.3176000000000272
 20
19.9582000000000015
 30
0.0
 10
-264.3176000000000272
 20
19.9582000000000015
 30
0.0
 10
-264.3176000000000272
 20
19.9582000000000015
 30
0.0
 10
-264.3176000000000272
 20
19.9582000000000015
 30
0.0
 10
-264.3199000000000183
 20
19.9582000000000015
 30
0.0
 10
-264.3199000000000183
 20
19.9582000000000015
 30
0.0
 10
-264.3199000000000183
 20
19.9582000000000015
 30
0.0
 10
-264.3199000000000183
 20
19.9582000000000015
 30
0.0
 10
-264.3217999999999961
 20
19.9582000000000015
 30
0.0
 10
-264.3217999999999961
 20
19.9582000000000015
 30
0.0
 10
-264.3217999999999961
 20
19.9582000000000015
 30
0.0
 10
-264.3217999999999961
 20
19.9582000000000015
 30
0.0
 10
-264.3231000000000108
 20
19.9582000000000015
 30
0.0
 10
-264.3231000000000108
 20
19.9582000000000015
 30
0.0
 10
-264.3231000000000108
 20
19.9582000000000015
 30
0.0
 10
-264.3231000000000108
 20
19.9582000000000015
 30
0.0
 10
-264.3238999999999805
 20
19.9582000000000015
 30
0.0
 10
-264.3238999999999805
 20
19.9582000000000015
 30
0.0
 10
-264.3238999999999805
 20
19.9582000000000015
 30
0.0
 10
-264.3238999999999805
 20
19.9582000000000015
 30
0.0
 10
-264.3242000000000189
 20
19.9582000000000015
 30
0.0
 10
-264.3242000000000189
 20
19.9582000000000015
 30
0.0
 10
-264.3242000000000189
 20
19.9582000000000015
 30
0.0
 10
-264.3242000000000189
 20
19.9582000000000015
 30
0.0
 10
-264.8700999999999794
 20
19.9582000000000015
 30
0.0
 10
-264.8700999999999794
 20
19.9582000000000015
 30
0.0
 10
-264.8700999999999794
 20
19.9582000000000015
 30
0.0
 10
-264.8700999999999794
 20
19.9582000000000015
 30
0.0
 10
-264.8700999999999794
 20
21.1163999999999987
 30
0.0
 10
-264.8700999999999794
 20
21.1163999999999987
 30
0.0
 10
-264.8700999999999794
 20
21.1163999999999987
 30
0.0
 10
-264.8700999999999794
 20
21.1163999999999987
 30
0.0
 10
-264.3242000000000189
 20
21.1163999999999987
 30
0.0
 10
-264.3242000000000189
 20
21.1163999999999987
 30
0.0
 10
-264.3242000000000189
 20
21.1163999999999987
 30
0.0
 10
-264.3242000000000189
 20
21.1163999999999987
 30
0.0
 10
-264.3238999999999805
 20
21.1163999999999987
 30
0.0
 10
-264.3238999999999805
 20
21.1163999999999987
 30
0.0
 10
-264.3238999999999805
 20
21.1163999999999987
 30
0.0
 10
-264.3238999999999805
 20
21.1163999999999987
 30
0.0
 10
-264.3229000000000042
 20
21.1163999999999987
 30
0.0
 10
-264.3229000000000042
 20
21.1163999999999987
 30
0.0
 10
-264.3229000000000042
 20
21.1163999999999987
 30
0.0
 10
-264.3229000000000042
 20
21.1163999999999987
 30
0.0
 10
-264.3213000000000079
 20
21.1163999999999987
 30
0.0
 10
-264.3213000000000079
 20
21.1163999999999987
 30
0.0
 10
-264.3213000000000079
 20
21.1163999999999987
 30
0.0
 10
-264.3213000000000079
 20
21.1163999999999987
 30
0.0
 10
-264.3190999999999917
 20
21.1163999999999987
 30
0.0
 10
-264.3190999999999917
 20
21.1163999999999987
 30
0.0
 10
-264.3190999999999917
 20
21.1163999999999987
 30
0.0
 10
-264.3190999999999917
 20
21.1163999999999987
 30
0.0
 10
-264.3163999999999874
 20
21.1163999999999987
 30
0.0
 10
-264.3163999999999874
 20
21.1163999999999987
 30
0.0
 10
-264.3163999999999874
 20
21.1163999999999987
 30
0.0
 10
-264.3163999999999874
 20
21.1163999999999987
 30
0.0
 10
-264.3129999999999882
 20
21.1163999999999987
 30
0.0
 10
-264.3129999999999882
 20
21.1163999999999987
 30
0.0
 10
-264.3129999999999882
 20
21.1163999999999987
 30
0.0
 10
-264.3129999999999882
 20
21.1163999999999987
 30
0.0
 10
-264.3091999999999757
 20
21.1163999999999987
 30
0.0
 10
-264.3091999999999757
 20
21.1163999999999987
 30
0.0
 10
-264.3091999999999757
 20
21.1163999999999987
 30
0.0
 10
-264.3091999999999757
 20
21.1163999999999987
 30
0.0
 10
-264.3048000000000002
 20
21.1163999999999987
 30
0.0
 10
-264.3048000000000002
 20
21.1163999999999987
 30
0.0
 10
-264.3048000000000002
 20
21.1163999999999987
 30
0.0
 10
-264.3048000000000002
 20
21.1163999999999987
 30
0.0
 10
-264.2998999999999796
 20
21.1163999999999987
 30
0.0
 10
-264.2998999999999796
 20
21.1163999999999987
 30
0.0
 10
-264.2998999999999796
 20
21.1163999999999987
 30
0.0
 10
-264.2998999999999796
 20
21.1163999999999987
 30
0.0
 10
-264.2946000000000026
 20
21.1163999999999987
 30
0.0
 10
-264.2946000000000026
 20
21.1163999999999987
 30
0.0
 10
-264.2946000000000026
 20
21.1163999999999987
 30
0.0
 10
-264.2946000000000026
 20
21.1163999999999987
 30
0.0
 10
-264.2887999999999806
 20
21.1163999999999987
 30
0.0
 10
-264.2887999999999806
 20
21.1163999999999987
 30
0.0
 10
-264.2887999999999806
 20
21.1163999999999987
 30
0.0
 10
-264.2887999999999806
 20
21.1163999999999987
 30
0.0
 10
-264.2826000000000022
 20
21.1163999999999987
 30
0.0
 10
-264.2826000000000022
 20
21.1163999999999987
 30
0.0
 10
-264.2826000000000022
 20
21.1163999999999987
 30
0.0
 10
-264.2826000000000022
 20
21.1163999999999987
 30
0.0
 10
-264.2758999999999787
 20
21.1163999999999987
 30
0.0
 10
-264.2758999999999787
 20
21.1163999999999987
 30
0.0
 10
-264.2758999999999787
 20
21.1163999999999987
 30
0.0
 10
-264.2758999999999787
 20
21.1163999999999987
 30
0.0
 10
-264.2742000000000075
 20
21.1163999999999987
 30
0.0
 10
-264.2742000000000075
 20
21.1163999999999987
 30
0.0
 10
-264.2742000000000075
 20
21.1163999999999987
 30
0.0
 10
-264.2742000000000075
 20
21.1163999999999987
 30
0.0
 10
-263.8731000000000222
 20
21.1163999999999987
 30
0.0
 10
-263.8731000000000222
 20
21.1163999999999987
 30
0.0
 10
-263.8731000000000222
 20
21.1163999999999987
 30
0.0
 10
-263.5407000000000153
 20
21.1047000000000011
 30
0.0
 10
-263.3573000000000093
 20
20.9099000000000004
 30
0.0
 10
-263.3455999999999904
 20
20.5436000000000014
 30
0.0
 10
-263.3455999999999904
 20
20.5436000000000014
 30
0.0
 10
-263.3455999999999904
 20
20.1419999999999995
 30
0.0
 10
-263.5520000000000209
 20
19.9472999999999985
 30
0.0
 10
-263.9418999999999755
 20
19.9582000000000015
 30
0.0
 10
-263.9418999999999755
 20
19.9582000000000015
 30
0.0
 10
-263.9418999999999755
 20
19.9582000000000015
 30
0.0
 10
-264.2742000000000075
 20
19.9582000000000015
 30
0.0
 10
-264.2742000000000075
 20
19.9582000000000015
 30
0.0
  0
SPLINE
  5
5E
100
AcDbEntity
  8
layer 1
 62
256
370
9
 48
1.0
  6
ByLayer
100
AcDbSpline
 70
8
 71
3
 72
8
 73
4
 74
0
 40
0.0
 40
0.0
 40
0.0
 40
0.0
 40
1.0
 40
1.0
 40
1.0
 40
1.0
 10
-264.2742000000000075
 20
21.4832000000000001
 30
0.0
 10
-264.2742000000000075
 20
21.4832000000000001
 30
0.0
 10
-264.2742000000000075
 20
21.4832000000000001
 30
0.0
 10
-264.2742000000000075
 20
21.4832000000000001
 30
0.0
  0
ENDSEC
  0
SECTION
  2
OBJECTS
  0
DICTIONARY
  5
C
100
AcDbDictionary
280
0
281
1
  3
ACAD_GROUP
350
D
  3
ACAD_LAYOUT
350
1A
  3
ACAD_MLINESTYLE
350
17
  3
ACAD_PLOTSETTINGS
350
19
  3
ACAD_PLOTSTYLENAME
350
E
  3
AcDbVariableDictionary
350
5F
  3
QCAD_OBJECTS
350
60
  0
DICTIONARY
  5
D
100
AcDbDictionary
280
0
281
1
  0
ACDBDICTIONARYWDFLT
  5
E
100
AcDbDictionary
281
1
  3
Normal
350
F
100
AcDbDictionaryWithDefault
340
F
  0
ACDBPLACEHOLDER
  5
F
  0
DICTIONARY
  5
17
100
AcDbDictionary
280
0
281
1
  3
Standard
350
18
  0
MLINESTYLE
  5
18
100
AcDbMlineStyle
  2
STANDARD
 70
0
  3

 62
256
 51
90.0
 52
90.0
 71
2
 49
0.5
 62
256
  6
BYLAYER
 49
-0.5
 62
256
  6
BYLAYER
  0
DICTIONARY
  5
19
100
AcDbDictionary
280
0
281
1
  0
DICTIONARY
  5
1A
100
AcDbDictionary
281
1
  3
Layout1
350
1E
  3
Layout2
350
26
  3
Model
350
22
  0
LAYOUT
  5
1E
100
AcDbPlotSettings
  1

  2
none_device
  4

  6

 40
0.0
 41
0.0
 42
0.0
 43
0.0
 44
0.0
 45
0.0
 46
0.0
 47
0.0
 48
0.0
 49
0.0
140
0.0
141
0.0
142
1.0
143
1.0
 70
688
 72
0
 73
0
 74
5
  7

 75
16
147
1.0
148
0.0
149
0.0
100
AcDbLayout
  1
Layout1
 70
1
 71
1
 10
0.0
 20
0.0
 11
420.0
 21
297.0
 12
0.0
 22
0.0
 32
0.0
 14
100000000000000000000.0
 24
100000000000000000000.0
 34
100000000000000000000.0
 15
-100000000000000000000.0
 25
-100000000000000000000.0
 35
-100000000000000000000.0
146
0.0
 13
0.0
 23
0.0
 33
0.0
 16
1.0
 26
0.0
 36
0.0
 17
0.0
 27
1.0
 37
0.0
 76
0
330
1B
  0
LAYOUT
  5
22
100
AcDbPlotSettings
  1

  2
none_device
  4

  6

 40
0.0
 41
0.0
 42
0.0
 43
0.0
 44
0.0
 45
0.0
 46
0.0
 47
0.0
 48
0.0
 49
0.0
140
0.0
141
0.0
142
1.0
143
1.0
 70
1712
 72
0
 73
0
 74
0
  7

 75
0
147
1.0
148
0.0
149
0.0
100
AcDbLayout
  1
Model
 70
1
 71
0
 10
0.0
 20
0.0
 11
12.0
 21
9.0
 12
0.0
 22
0.0
 32
0.0
 14
0.0
 24
0.0
 34
0.0
 15
0.0
 25
0.0
 35
0.0
146
0.0
 13
0.0
 23
0.0
 33
0.0
 16
1.0
 26
0.0
 36
0.0
 17
0.0
 27
1.0
 37
0.0
 76
0
330
1F
  0
LAYOUT
  5
26
100
AcDbPlotSettings
  1

  2
none_device
  4

  6

 40
0.0
 41
0.0
 42
0.0
 43
0.0
 44
0.0
 45
0.0
 46
0.0
 47
0.0
 48
0.0
 49
0.0
140
0.0
141
0.0
142
1.0
143
1.0
 70
688
 72
0
 73
0
 74
5
  7

 75
16
147
1.0
148
0.0
149
0.0
100
AcDbLayout
  1
Layout2
 70
1
 71
2
 10
0.0
 20
0.0
 11
12.0
 21
9.0
 12
0.0
 22
0.0
 32
0.0
 14
0.0
 24
0.0
 34
0.0
 15
0.0
 25
0.0
 35
0.0
146
0.0
 13
0.0
 23
0.0
 33
0.0
 16
1.0
 26
0.0
 36
0.0
 17
0.0
 27
1.0
 37
0.0
 76
0
330
23
  0
DICTIONARY
  5
5F
100
AcDbDictionary
281
1
  3
DIMASSOC
350
62
  3
HIDETEXT
350
61
  0
DICTIONARYVAR
  5
61
100
DictionaryVariables
280
0
  1
2
  0
DICTIONARYVAR
  5
62
100
DictionaryVariables
280
0
  1
1
  0
DICTIONARY
  5
60
100
AcDbDictionary
281
1
  3
ColorSettings/BackgroundColor
350
63
  3
ColorSettings/ColorMode
350
64
  3
Grid/DisplayGrid00
350
65
  3
Grid/DisplayGrid01
350
66
  3
Grid/DisplayGrid02
350
67
  3
Grid/DisplayGrid03
350
68
  3
Grid/GridSpacingX00
350
69
  3
Grid/GridSpacingX01
350
6A
  3
Grid/GridSpacingX02
350
6B
  3
Grid/GridSpacingX03
350
6C
  3
Grid/GridSpacingY00
350
6D
  3
Grid/GridSpacingY01
350
6E
  3
Grid/GridSpacingY02
350
6F
  3
Grid/GridSpacingY03
350
70
  3
Grid/IsometricGrid00
350
71
  3
Grid/IsometricGrid01
350
72
  3
Grid/IsometricGrid02
350
73
  3
Grid/IsometricGrid03
350
74
  3
Grid/IsometricProjection00
350
75
  3
Grid/IsometricProjection01
350
76
  3
Grid/IsometricProjection02
350
77
  3
Grid/IsometricProjection03
350
78
  3
Grid/MetaGridSpacingX00
350
79
  3
Grid/MetaGridSpacingX01
350
7A
  3
Grid/MetaGridSpacingX02
350
7B
  3
Grid/MetaGridSpacingX03
350
7C
  3
Grid/MetaGridSpacingY00
350
7D
  3
Grid/MetaGridSpacingY01
350
7E
  3
Grid/MetaGridSpacingY02
350
7F
  3
Grid/MetaGridSpacingY03
350
80
  3
MultiPageSettings/Columns
350
81
  3
MultiPageSettings/GlueMarginsBottom
350
82
  3
MultiPageSettings/GlueMarginsLeft
350
83
  3
MultiPageSettings/GlueMarginsRight
350
84
  3
MultiPageSettings/GlueMarginsTop
350
85
  3
MultiPageSettings/PrintCropMarks
350
86
  3
MultiPageSettings/Rows
350
87
  3
PageSettings/OffsetX
350
88
  3
PageSettings/OffsetY
350
89
  3
PageSettings/PageOrientation
350
8A
  3
PageSettings/PaperHeight
350
8B
  3
PageSettings/PaperWidth
350
8C
  3
PageSettings/Scale
350
8D
  3
PageSettings/ShowPaperBorders
350
8E
  3
PageTagSettings/EnablePageTags
350
8F
  3
PageTagSettings/TagAlignment
350
90
  3
PageTagSettings/TagFont
350
91
  3
PageTagSettings/TagPosition
350
92
  3
UnitSettings/PaperUnit
350
93
  3
ViewportCenter
350
94
  3
ViewportHeight
350
95
  3
ViewportWidth
350
96
  0
XRECORD
  5
63
330
60
100
AcDbXrecord
280
1
1000
\U+767d\U+8272
  0
XRECORD
  5
64
330
60
100
AcDbXrecord
280
1
1000
FullColor
  0
XRECORD
  5
65
330
60
100
AcDbXrecord
280
1
290
1
  0
XRECORD
  5
66
330
60
100
AcDbXrecord
280
1
290
1
  0
XRECORD
  5
67
330
60
100
AcDbXrecord
280
1
290
1
  0
XRECORD
  5
68
330
60
100
AcDbXrecord
280
1
290
1
  0
XRECORD
  5
69
330
60
100
AcDbXrecord
280
1
1000
auto
  0
XRECORD
  5
6A
330
60
100
AcDbXrecord
280
1
1000
auto
  0
XRECORD
  5
6B
330
60
100
AcDbXrecord
280
1
1000
auto
  0
XRECORD
  5
6C
330
60
100
AcDbXrecord
280
1
1000
auto
  0
XRECORD
  5
6D
330
60
100
AcDbXrecord
280
1
1000
auto
  0
XRECORD
  5
6E
330
60
100
AcDbXrecord
280
1
1000
auto
  0
XRECORD
  5
6F
330
60
100
AcDbXrecord
280
1
1000
auto
  0
XRECORD
  5
70
330
60
100
AcDbXrecord
280
1
1000
auto
  0
XRECORD
  5
71
330
60
100
AcDbXrecord
280
1
290
0
  0
XRECORD
  5
72
330
60
100
AcDbXrecord
280
1
290
0
  0
XRECORD
  5
73
330
60
100
AcDbXrecord
280
1
290
0
  0
XRECORD
  5
74
330
60
100
AcDbXrecord
280
1
290
0
  0
XRECORD
  5
75
330
60
100
AcDbXrecord
280
1
 90
65537
  0
XRECORD
  5
76
330
60
100
AcDbXrecord
280
1
 90
65537
  0
XRECORD
  5
77
330
60
100
AcDbXrecord
280
1
 90
65537
  0
XRECORD
  5
78
330
60
100
AcDbXrecord
280
1
 90
65537
  0
XRECORD
  5
79
330
60
100
AcDbXrecord
280
1
1000
auto
  0
XRECORD
  5
7A
330
60
100
AcDbXrecord
280
1
1000
auto
  0
XRECORD
  5
7B
330
60
100
AcDbXrecord
280
1
1000
auto
  0
XRECORD
  5
7C
330
60
100
AcDbXrecord
280
1
1000
auto
  0
XRECORD
  5
7D
330
60
100
AcDbXrecord
280
1
1000
auto
  0
XRECORD
  5
7E
330
60
100
AcDbXrecord
280
1
1000
auto
  0
XRECORD
  5
7F
330
60
100
AcDbXrecord
280
1
1000
auto
  0
XRECORD
  5
80
330
60
100
AcDbXrecord
280
1
1000
auto
  0
XRECORD
  5
81
330
60
100
AcDbXrecord
280
1
 90
1
  0
XRECORD
  5
82
330
60
100
AcDbXrecord
280
1
 40
10.0
  0
XRECORD
  5
83
330
60
100
AcDbXrecord
280
1
 40
10.0
  0
XRECORD
  5
84
330
60
100
AcDbXrecord
280
1
 40
10.0
  0
XRECORD
  5
85
330
60
100
AcDbXrecord
280
1
 40
10.0
  0
XRECORD
  5
86
330
60
100
AcDbXrecord
280
1
290
0
  0
XRECORD
  5
87
330
60
100
AcDbXrecord
280
1
 90
1
  0
XRECORD
  5
88
330
60
100
AcDbXrecord
280
1
 40
0.0
  0
XRECORD
  5
89
330
60
100
AcDbXrecord
280
1
 40
0.0
  0
XRECORD
  5
8A
330
60
100
AcDbXrecord
280
1
1000
Portrait
  0
XRECORD
  5
8B
330
60
100
AcDbXrecord
280
1
 40
297.0
  0
XRECORD
  5
8C
330
60
100
AcDbXrecord
280
1
 40
210.0
  0
XRECORD
  5
8D
330
60
100
AcDbXrecord
280
1
1000
1:1
  0
XRECORD
  5
8E
330
60
100
AcDbXrecord
280
1
290
1
  0
XRECORD
  5
8F
330
60
100
AcDbXrecord
280
1
290
0
  0
XRECORD
  5
90
330
60
100
AcDbXrecord
280
1
1000
Inside
  0
XRECORD
  5
91
330
60
100
AcDbXrecord
280
1
1000
Arial,10,-1,5,50,0,0,0,0,0
  0
XRECORD
  5
92
330
60
100
AcDbXrecord
280
1
1000
TopLeft
  0
XRECORD
  5
93
330
60
100
AcDbXrecord
280
1
 90
4
  0
XRECORD
  5
95
330
60
100
AcDbXrecord
280
1
 40
28.5157084751979184
  0
XRECORD
  5
96
330
60
100
AcDbXrecord
280
1
 40
56.6744748415268873
  0
ENDSEC
  0
EOF
